<svg xmlns="http://www.w3.org/2000/svg" viewBox="0 0 543.93 427.85"><defs><style>.cls-1{fill:#ec008c}.cls-2{fill:#fec77c}.cls-3{fill:#00aeef}.cls-4{fill:#fff}.cls-5{fill:#231f20}.cls-6{fill:#27aae1}.cls-7{fill:#ed1c24}.cls-8,.cls-9{fill:none;stroke:#ed1c24;stroke-miterlimit:10}.cls-8{stroke-width:4px}.cls-9{stroke-width:2px}.cls-10{fill:#bcbec0}</style></defs><title>Asset 6clown</title><g id="Layer_2" data-name="Layer 2"><g id="Layer_4" data-name="Layer 4"><path class="cls-1" d="M339.07 199.16c-1.51 4.71-5.86 9.84-8.41 14.11a86.7 86.7 0 0 1-12.41-13.61c-.15 44 20.82 108.07-26.31 109.13-15.29.34-18.93 1.2-38.58.93-49.93-.67-34-71.51-33.86-111.8-5.52 6.62-9.71 12.85-12.64 14.46-3.64-6.54-3.81-6.39-8.41-14.11 4.38-11.3 1.54-5.19 5.44-14.32 6.18-19.26 25.52-26.39 42.42-41.77-15.41 34.53 47.37 46.52 49.63 3.24 23.65 19.4 31.26 21.32 43.13 53.74z" transform="translate(0 -.25)"/><path class="cls-2" d="M537.45 135c-1.06-8.06-9.16-20.21-19.24-16.22-3.08 1.22-5 3.36-5 6.78 0 8.69 6.42 4.48 11.14 3.05 6.65 1.13 5.68 14.53 1.64 17.76-3.36 2.68-5.47 1.61-8.71-.76-3.84-2.8-7.28-12.6-7.83-5-.23 3.22 2.79 8 2.77 11.82 0 5.77-1.77 11.56-3.81 16.92-4.65 12.25-12.15 23.55-20.28 33.82-16 20.15-34.3 37.26-61.88 35.39-31.66-2.15-63.45-19.58-87.24-39.47l-8.41 14.11.17.15 1.8 1.56h.05c34 23.78 98.77 56.49 137.91 27 14.54-11 26.58-27.53 37.28-41.91 13.21-17.77 30.93-41.8 29.59-65.11M.07 134.14c1.06-8.06 9.16-20.21 19.24-16.22 3.08 1.22 5 3.36 5 6.78 0 8.69-6.42 4.48-11.14 3.05-6.65 1.13-5.68 14.53-1.64 17.76 3.36 2.68 5.47 1.61 8.71-.76 3.84-2.8 7.28-12.6 7.83-5 .23 3.22-2.79 8-2.77 11.82 0 5.77 1.77 11.56 3.81 16.92 4.65 12.25 12.15 23.55 20.28 33.82 16 20.15 34.3 37.26 61.88 35.39 31.66-2.15 63.45-19.58 87.24-39.47l8.41 14.11-.17.15-1.8 1.56h-.05c-34 23.78-98.77 56.49-137.91 27-14.54-11-26.58-27.53-37.28-41.91-13.27-17.67-30.98-41.69-29.64-65" transform="translate(0 -.25)"/><path class="cls-2" d="M543.93 146.53l-6.48-11.76"/><path class="cls-3" d="M95.49 298.43c15.73-16.77 99.8 1.69 112.61 6.18 18.76 6.58 36.61 19.66 56.73 20.78 24.16 1.35 44.1-16.33 65.63-25.16 39.9-16.36 95.3-33.12 117.21 1.1 18 28-19.24 46.25-23 49.19-16.11 12.56-35.79 18.93-54.91 22.83a227.33 227.33 0 0 1-67.6 3.43c-8.87-.88-32.37-1.41-37.76-12 35.49-11.13 67-34.3 103-44.43 10.56-3 34.28-7 37.42-7.92 5.75-1.76 4.94-5.87.84-5.84-13.54.1-38.62 8.17-51.53 12.7a379 379 0 0 0-44.94 19.39c-14.82 7.5-33 22.4-49.72 21.73-20.09-.81-47.15-19.87-65.8-28.17-19.34-8.6-53.2-19.86-67.13-21.32-1.05-.11-1.33 1.57-.31 1.87 28.77 8.44 140.89 55 139.24 58.56-2.59 5.61-39.43 8.71-44.58 8.79-24 .35-32.53.06-56.54-6.9-29.08-8.44-104.92-36.35-68.86-74.81z" transform="translate(0 -.25)"/><path class="cls-1" d="M332.38 83.49a11.84 11.84 0 0 1 5.78 4.72c-1.46 1.08-3.28 1.59-6.11 1.66-1.21 0-2.57.06-4 .06a7.26 7.26 0 0 0-1.62-.33 7 7 0 0 0-2.26.16 23.84 23.84 0 0 1-4-.65c-.18-1.31-.35-2.7-.52-4.18a15 15 0 0 1 12.73-1.44z" transform="translate(0 -.25)"/><path class="cls-1" d="M332.38 83.49a15 15 0 0 0-12.67 1.43c-1.26-11.09-2.56-26-10-30-5.27-2.85-6.52-5.87-12.43-6.93-2.92-.52-6.08-1.06-9.36-1.5-8.24-1.1-17.13-1.61-24.4.16l-.63.16a111.17 111.17 0 0 0-12.27 4.1c-2.05.81-4.13 1.69-6.13 2.62-5 2.3-9.55 4.88-12 7.31-1.32 1.31-2.27 5-3 9.1-.36.39-.71.79-1 1.2a28.73 28.73 0 0 0-6.32 19.81 4.63 4.63 0 0 1-.17 1.53 17.28 17.28 0 0 0-8.54 2.19 47.61 47.61 0 0 1-14.06-6.4c-2.34-1.56-4.66-3.53-5.44-6.28s.8-6.33 3.57-6.55A8.57 8.57 0 0 1 194.1 67a8.32 8.32 0 0 1 6.28-6.48c-2.86-2.55-5.87-5.36-6.67-9.16s2-8.54 5.74-8a8.55 8.55 0 0 1-1.39-10.83 8 8 0 0 1 10.35-2.37 10.59 10.59 0 0 1 3.83-9.16 9.91 9.91 0 0 1 9.63-1.44 10.86 10.86 0 0 1 4.39-10.63 10.13 10.13 0 0 1 11.22 0 9.38 9.38 0 0 1 7-7.25 9.11 9.11 0 0 1 9.23 3.76 12.36 12.36 0 0 1 17.19.62C272.12 1.33 278-.7 282.6.67s8.09 5.09 11.4 8.66a14.89 14.89 0 0 1 16.12-2.86A15.72 15.72 0 0 1 319 20.62c2.28-.65 8.87 2 9.88 3.33a10.19 10.19 0 0 1 .89 10.67 5.58 5.58 0 0 1 8-.35 6 6 0 0 1-.2 8.22A7.7 7.7 0 0 1 344.4 46a8.19 8.19 0 0 1 .43 7.87c3.92 2 4.77 8.34 1.51 11.33 1.36 2-.27 5.33-2.66 5.39a14.17 14.17 0 0 1-1.18 11.65c-1.57 2.82-2.73 4.75-4.34 6a11.84 11.84 0 0 0-5.78-4.75z" transform="translate(0 -.25)"/><path class="cls-2" d="M331.48 112.9c-3.7 1.26-8-2-11.06-5.39a36.49 36.49 0 0 0 1-8.33 4.71 4.71 0 0 0 1.38 1.82c1.67 1.21 4.81 3 6.82 2.6 5.14-1.13 4.29-5.49 4.07-7.13a8.22 8.22 0 0 0-5.65-6.52c1.42 0 2.78 0 4-.06 2.83-.06 4.66-.57 6.11-1.66a20 20 0 0 1 3 10.29c.17 5.12-2.08 11.79-9.67 14.38z" transform="translate(0 -.25)"/><path class="cls-4" d="M244.32 99.91a9.37 9.37 0 0 0 .57-2.91 1 1 0 0 0 .12-.33l.09-.49a.4.4 0 0 0-.23-.41 8 8 0 0 0-2.71-5.77c-4.82-3.79-11.58.27-11.85 5.83a7.52 7.52 0 0 1-1.42-.85 9.46 9.46 0 0 0-3.53-2c.33-2.09.75-4.16 1.23-6.22a9.6 9.6 0 0 1 .47-.85c-.15.41-.28.82-.41 1.23a33.72 33.72 0 0 1 5-5 13.18 13.18 0 0 1 3.89-2 12.16 12.16 0 0 1 5.14 0 11.66 11.66 0 0 1 4 1.81c.42.32.89.72 1.35 1.08a13.18 13.18 0 0 1 3.54 5.36 11.09 11.09 0 0 1 .25 6 15 15 0 0 0-5.5 5.52z" transform="translate(0 -.25)"/><path class="cls-2" d="M321.84 91a4.23 4.23 0 0 0-1 1.79c0-.14 0-.27-.07-.4-.2-1-.38-2.11-.54-3.3a23.84 23.84 0 0 0 4 .65 5 5 0 0 0-2.39 1.26z" transform="translate(0 -.25)"/><path class="cls-5" d="M230.41 97.43c-1 .25-2 .54-3 .87-.22.07-.49-.39-.67-.85s-.26-.84-.2-.85c.44-.12 2.05-.42 3.78-.74a7.43 7.43 0 0 0 .09 1.57z" transform="translate(0 -.25)"/><path class="cls-4" d="M226.72 97.45c.18.46.45.93.67.85 1-.34 2-.62 3-.87a8.24 8.24 0 0 0 4.69 6.1 7.12 7.12 0 0 0 7.16-.69 5.81 5.81 0 0 0 1-1l.16.1a10.63 10.63 0 0 0-.36 1.43 10.35 10.35 0 0 0-.15 2.12 9.79 9.79 0 0 1-2.35 1.07 10.59 10.59 0 0 1-8.31-1.22 14.32 14.32 0 0 1-5.51-6.41c-.19-.42-.36-.84-.52-1.27zM304.46 88.29a13.53 13.53 0 0 1-1.38 7.61h-1.6c.13-.67-.66-1.13-1.32-1.33a25.71 25.71 0 0 0-2.92-.75 7.5 7.5 0 0 0-.57-3.85c-3-6.82-13.51-5.65-14.9 1.66a7.38 7.38 0 0 0 .19 3.45 2.26 2.26 0 0 0-.3.35 5.72 5.72 0 0 0 .72.79 7.64 7.64 0 0 0 .93 1.55l-1.52.57a15.23 15.23 0 0 0-3.91-3.46 13.67 13.67 0 0 1 .84-11.42 12.55 12.55 0 0 1 .92-1.39c1.16-.57 2.84-2.66 3.88-3.47 7.87-4.6 19.69-.6 20.94 9.69z" transform="translate(0 -.25)"/><path class="cls-2" d="M302.07 81.55c.25.34.5.7.75 1.05a12.06 12.06 0 0 0-.75-1.05zm-52.4 6.87a13.18 13.18 0 0 0-3.54-5.36c.89.69 1.78 1.26 2.4 1.09-1.3-2.92-4.42-5.65-6.86-7.7a6.72 6.72 0 0 0-4-1.93 6.36 6.36 0 0 0-4 1.84 22.45 22.45 0 0 0-6.61 9.57 9.6 9.6 0 0 0-.47.85c.24-1.07.5-2.13.76-3.2.57-2.32 1.18-8.33 2.15-13.66 2.3-2.55 4.87-4.92 6.09-8.13a6.32 6.32 0 0 0 7.33-.77 6.8 6.8 0 0 0 1.62-7.41c1.84 2.71 6.72 1.88 7.61-1.3a6.1 6.1 0 0 0 7.22 2.8 6.36 6.36 0 0 0 3.94-5.11 6 6 0 0 0 4.69 5 5.94 5.94 0 0 0 6.52-4.88 9.43 9.43 0 0 0 12.65-1.81 5.37 5.37 0 0 0 1.59 6.8 5 5 0 0 0 6.58-1.52 5.15 5.15 0 0 0 2.32 6.19 4.85 4.85 0 0 0 6.16-2.28 4.51 4.51 0 0 0 1.34 4.44 4.18 4.18 0 0 0 5.28 0 4.35 4.35 0 0 0-.73 5.53c1 1.49 3.19 1.48 4.74 1.28-2.13.36-4.32 1.63-4.28 3.89a4.17 4.17 0 0 0 3.85 3.91 3.61 3.61 0 0 0-2.62 4c.36 1.76 2.55 4 3.48 5.31a6.84 6.84 0 0 0 1.78 1.76l-.07.08c-3.14 4-1.44 12.84 1.3 16.73a34.15 34.15 0 0 0 2.5 3.13 35.86 35.86 0 0 1-7.12 14.43c-.49.6-1 1.18-1.54 1.75a15.54 15.54 0 0 0 .16-12.1c-2.09-4.65-6.75-7.52-11.51-8.55a26 26 0 0 0-4.2-.54l.37-.16a13.91 13.91 0 0 0 6.49-6.43 13.53 13.53 0 0 0 1.38-7.61C303.21 78 291.39 74 283.51 78.57a2 2 0 0 1 .23-.16 14 14 0 0 1 7-2.18 14.12 14.12 0 0 1 11.36 5.31 53.19 53.19 0 0 0-8.2-8.95 7.7 7.7 0 0 0-4-2.17c-2-.21-3.89 1.09-5.33 2.51-2.48 2.43-4.88 5.82-5.6 9.24a1 1 0 0 0 .68-.12 12.55 12.55 0 0 0-.92 1.39 13.67 13.67 0 0 0-.84 11.42c-.21-.14-.42-.26-.64-.38-7.57-4.23-17.25-4.39-25.25-1.08a17.5 17.5 0 0 0-2.11 1.05 11.09 11.09 0 0 0-.22-6.03z" transform="translate(0 -.25)"/><path class="cls-4" d="M300.46 96.61a1 1 0 0 0 1-.72h1.6a13.91 13.91 0 0 1-6.49 6.43l-.37.16a58.14 58.14 0 0 0-9.46.5 14.21 14.21 0 0 1-3.14-1.32 11.27 11.27 0 0 0-1.83-3.35l1.52-.57a7.65 7.65 0 0 0 2.34 2 8.16 8.16 0 0 0 9.09-1 7.61 7.61 0 0 0 2.14-3.32 20.82 20.82 0 0 1 2.28.8 3.46 3.46 0 0 0 1.32.39z" transform="translate(0 -.25)"/><path class="cls-2" d="M243.52 97.33c.6.16 1.14.1 1.38-.34a9.37 9.37 0 0 1-.57 2.91 10.72 10.72 0 0 0-.63 1.3 5.24 5.24 0 0 1-.41.58 107.4 107.4 0 0 0-10.5-4.85 25 25 0 0 1 10.73.4z" transform="translate(0 -.25)"/><path class="cls-1" d="M244.54 53.63a6.8 6.8 0 0 1-1.61 7.37 6.32 6.32 0 0 1-7.33.77c-1.22 3.21-3.79 5.58-6.09 8.13.73-4.09 1.69-7.79 3-9.1 2.43-2.43 7-5 12-7.31z" transform="translate(0 -.25)"/><path class="cls-2" d="M243.13 107.14a15.5 15.5 0 0 1-1.59 1c-3.85.55-7.69 1.54-10.45 4.32a11.3 11.3 0 0 0-1 1.22 7.25 7.25 0 0 0-1.19.93l-1.55 1.55a38 38 0 0 1-2.6-18.16q.2-2.43.59-4.84a15.35 15.35 0 0 0 .9 4.45c.15.43.33.85.52 1.27a14.32 14.32 0 0 0 5.51 6.41 10.59 10.59 0 0 0 8.31 1.22 9.79 9.79 0 0 0 2.35-1.07 11.08 11.08 0 0 0 .2 1.7zM296.89 95.45a7.61 7.61 0 0 1-2.14 3.32 8.16 8.16 0 0 1-9.09 1 7.86 7.86 0 0 1-3.27-3.59l.07.06a21.9 21.9 0 0 1 14.43-.79z" transform="translate(0 -.25)"/><path class="cls-4" d="M230.3 95.86c-1.73.32-3.35.62-3.78.74-.06 0 0 .43.2.85l-.48.17a15.35 15.35 0 0 1-.9-4.45.6.6 0 0 1 0-.16 9.46 9.46 0 0 1 3.53 2 7.52 7.52 0 0 0 1.42.85.09.09 0 0 0 .01 0z" transform="translate(0 -.25)"/><path class="cls-1" d="M326.44 89.6a7.26 7.26 0 0 1 1.62.33c-1.27 0-2.58 0-3.87-.16a7 7 0 0 1 2.25-.17z" transform="translate(0 -.25)"/><path class="cls-2" d="M320.76 92.41c0 .14.05.27.07.4a9.48 9.48 0 0 0 .58 6.37 36.49 36.49 0 0 1-1 8.33 34.15 34.15 0 0 1-2.5-3.13c-2.74-3.89-4.43-12.69-1.3-16.73l.07-.08a11.45 11.45 0 0 0 3.53 1.53c.17 1.2.35 2.31.55 3.31z" transform="translate(0 -.25)"/><path class="cls-2" d="M319.7 84.93c.17 1.48.33 2.88.52 4.18a11.45 11.45 0 0 1-3.53-1.53 11.51 11.51 0 0 1 3.01-2.65z" transform="translate(0 -.25)"/><path class="cls-1" d="M309.72 54.92c7.42 4 8.72 18.92 10 30a11.51 11.51 0 0 0-3 2.65 6.84 6.84 0 0 1-1.78-1.76c-.93-1.36-3.12-3.55-3.48-5.31a3.61 3.61 0 0 1 2.62-4 3.24 3.24 0 0 0 1-.11 2.68 2.68 0 0 0-1 .11 4.17 4.17 0 0 1-3.85-3.91c0-2.26 2.15-3.54 4.28-3.89l.55-.08-.55.08c-1.55.2-3.73.22-4.74-1.28a4.35 4.35 0 0 1 .73-5.53 4.18 4.18 0 0 1-5.28 0 4.51 4.51 0 0 1-1.34-4.44 4 4 0 0 0 .34-.9 3.68 3.68 0 0 0-.34.9 4.85 4.85 0 0 1-6.16 2.28 5.15 5.15 0 0 1-2.32-6.19 4.15 4.15 0 0 0 .52-1 4.29 4.29 0 0 0-.52 1 5 5 0 0 1-6.58 1.52 5.37 5.37 0 0 1-1.59-6.8 7.07 7.07 0 0 0 .6-.86l.13-1c3.27.44 6.44 1 9.36 1.5 5.88 1.15 7.13 4.16 12.4 7.02z" transform="translate(0 -.25)"/><path class="cls-4" d="M311.93 111.58a15.54 15.54 0 0 1-.16 12.1c-8.61 9.24-21.38 13.75-33.53 17.83-3.76 1.27-7.66 2.55-11.62 2.22-3.65-.31-7-2-10.29-3.58-11-5.43-22.63-11.56-28.19-22.26a12.69 12.69 0 0 1 1.91-4.2c2.77-1.81 7.94-3.54 11.47-5.54.6-.09 1.19-.16 1.78-.24a14.69 14.69 0 0 0 7.48 8.81c5 2.52 10.86 2.6 16.37 1.79 4.14-.62 8.32-1.75 11.66-4.24s5.7-6.54 5.24-10.64c0-.11 0-.23-.05-.34l1.88-.22.86-.1a14.23 14.23 0 0 0 9.46-.5 26 26 0 0 1 4.2.54c4.78 1.05 9.44 3.93 11.53 8.57zm-30.71 13.27c1.85-4.24 8.83-10.48 13.06-12.45-5.18 1.6-15.61 9.6-22.28 11.86s-13.88 1.71-20.35-.61c-1.13-.41-5.31-2.21-6.24-1.91-2.21.71.39 2.66 1 3.63a116.41 116.41 0 0 0 8.59 11.48c2.25 2.65 4.85 5.34 8.27 6.1 4.57 1 9.23-1.86 12-5.6s4.1-8.26 5.95-12.49z" transform="translate(0 -.25)"/><path class="cls-5" d="M300.16 94.56c.66.21 1.46.67 1.32 1.33a1 1 0 0 1-1 .72 3.46 3.46 0 0 1-1.3-.36 20.82 20.82 0 0 0-2.28-.8 8 8 0 0 0 .35-1.65 25.71 25.71 0 0 1 2.91.76z" transform="translate(0 -.25)"/><path class="cls-2" d="M296.67 90a7.5 7.5 0 0 1 .57 3.85 28.65 28.65 0 0 0-6.73-.56c-2.12.06-6.83.12-8.55 1.82a7.38 7.38 0 0 1-.19-3.45c1.39-7.36 11.89-8.52 14.9-1.66z" transform="translate(0 -.25)"/><path class="cls-5" d="M297.23 93.81a8 8 0 0 1-.35 1.65 21.9 21.9 0 0 0-14.44.82l-.07-.06a7.43 7.43 0 0 1-.42-1.14c1.72-1.7 6.42-1.76 8.55-1.82a28.65 28.65 0 0 1 6.73.55z" transform="translate(0 -.25)"/><path class="cls-6" d="M293.87 72.59a53.19 53.19 0 0 1 8.2 8.95 14.12 14.12 0 0 0-11.36-5.31 14 14 0 0 0-7 2.18 2 2 0 0 0-.23.16 13 13 0 0 0-3.88 3.47 1 1 0 0 1-.68.12c.71-3.43 3.11-6.81 5.6-9.24 1.44-1.42 3.3-2.72 5.33-2.51a7.7 7.7 0 0 1 4.02 2.18z" transform="translate(0 -.25)"/><path class="cls-1" d="M287.93 46.49l-.13 1a4.1 4.1 0 0 0-.6.86 9.43 9.43 0 0 1-12.65 1.81A5.94 5.94 0 0 1 268 55a6 6 0 0 1-4.72-5 5.83 5.83 0 0 0 0-1.71l-.39-1.48.63-.16c7.28-1.77 16.17-1.27 24.41-.16z" transform="translate(0 -.25)"/><path class="cls-4" d="M294.28 112.41c-4.23 2-11.21 8.21-13.06 12.45s-3.19 8.76-5.94 12.49-7.4 6.6-12 5.6c-3.42-.75-6-3.44-8.27-6.1a116.41 116.41 0 0 1-8.58-11.49c-.63-1-3.24-2.92-1-3.63.93-.29 5.11 1.51 6.24 1.91 6.48 2.32 13.84 2.85 20.35.61s17.08-10.25 22.26-11.84z" transform="translate(0 -.25)"/><path class="cls-7" d="M284.07 103.64c.47 4.1-1.9 8.15-5.24 10.64s-7.52 3.62-11.66 4.24c-5.52.82-11.41.74-16.37-1.79a14.69 14.69 0 0 1-7.48-8.81l.86-.1 39.82-4.51c0 .1.06.22.07.33z" transform="translate(0 -.25)"/><path class="cls-7" d="M284 103.31l-39.84 4.52-.86.1c-.07-.26-.14-.52-.19-.78 1.51-1.08 2.39-2.26 2.09-3.57a14.64 14.64 0 0 0 2.07-2.75 21.93 21.93 0 0 0 2.64-6.35A17.5 17.5 0 0 1 252 93.4c7.93-3.31 17.64-3.16 25.19 1.08.22.12.43.24.64.38a12.67 12.67 0 0 0 5.75 6.81 9 9 0 0 1 .42 1.64z" transform="translate(0 -.25)"/><path class="cls-7" d="M281.79 98.32a11.27 11.27 0 0 1 1.83 3.35 12.67 12.67 0 0 1-5.75-6.81 15.23 15.23 0 0 1 3.92 3.46z" transform="translate(0 -.25)"/><path class="cls-1" d="M263.29 48.29a5.83 5.83 0 0 1 0 1.71 5.16 5.16 0 0 1 0-1.71z" transform="translate(0 -.25)"/><path class="cls-1" d="M262.9 46.8l.39 1.48a5.16 5.16 0 0 0 0 1.71 6.36 6.36 0 0 1-3.94 5.13 6.1 6.1 0 0 1-7.22-2.8l-1.53-1.43a111.17 111.17 0 0 1 12.3-4.09z" transform="translate(0 -.25)"/><path class="cls-1" d="M250.63 50.9l1.53 1.43c-.89 3.18-5.77 4-7.61 1.3l-.05-.11c1.99-.93 4.07-1.81 6.13-2.62z" transform="translate(0 -.25)"/><path class="cls-6" d="M248.53 84.15c-.62.17-1.51-.4-2.4-1.09a10.8 10.8 0 0 0-1.4-1.06 7.51 7.51 0 0 0-.8-.57 11.33 11.33 0 0 0-5.68-1.71 9.46 9.46 0 0 0-2.68.43 13.22 13.22 0 0 0-8.5 5.82 22.45 22.45 0 0 1 6.61-9.57 6.36 6.36 0 0 1 4-1.84 6.72 6.72 0 0 1 4 1.93c2.43 2.01 5.56 4.75 6.85 7.66z" transform="translate(0 -.25)"/><path class="cls-7" d="M249.93 94.46a21.93 21.93 0 0 1-2.64 6.35 14.64 14.64 0 0 1-2.07 2.75c-.12-.48-.78-1.05-1.78-1.67.07-.23.16-.46.25-.68a7.42 7.42 0 0 0 .63-1.3 15 15 0 0 1 5.61-5.45zM245.22 103.57c.3 1.31-.58 2.49-2.09 3.57a11.08 11.08 0 0 1-.2-1.69 11.84 11.84 0 0 0 2.29-1.88z" transform="translate(0 -.25)"/><path class="cls-7" d="M245.22 103.57a11.84 11.84 0 0 1-2.29 1.87 10.35 10.35 0 0 1 .15-2.12 10.63 10.63 0 0 1 .36-1.43c1 .62 1.66 1.19 1.78 1.68z" transform="translate(0 -.25)"/><path class="cls-5" d="M244.87 95.77a.4.4 0 0 1 .23.41l-.09.49a1 1 0 0 1-.12.33 10.17 10.17 0 0 0 0-1.15.24.24 0 0 0-.02-.08z" transform="translate(0 -.25)"/><path class="cls-5" d="M244.88 95.84a10.17 10.17 0 0 1 0 1.15c-.24.44-.77.5-1.38.34a25 25 0 0 0-10.74-.39c-.92-.4-1.74-.77-2.4-1.1l1.52-.27c1.67-.3 3.19-.43 3.4-.44 4.39-.27 8.56-.07 9.58.64a.24.24 0 0 1 .02.07z" transform="translate(0 -.25)"/><path class="cls-2" d="M242.16 90a8 8 0 0 1 2.71 5.78c-1-.71-5.19-.9-9.58-.64-.21 0-1.72.14-3.4.44l-1.52.27h-.07c.28-5.6 7.04-9.65 11.86-5.85zM243.28 101.79a5.81 5.81 0 0 1-1 1 7.12 7.12 0 0 1-7.16.69 8.24 8.24 0 0 1-4.69-6.1c.79-.19 1.58-.36 2.37-.49a107.4 107.4 0 0 1 10.48 4.9zM231.08 112.49c2.76-2.78 6.6-3.77 10.45-4.32-3.54 2-8.7 3.73-11.47 5.54a11.3 11.3 0 0 1 1.02-1.22z" transform="translate(0 -.25)"/><path class="cls-5" d="M230.38 95.84c.66.33 1.48.7 2.4 1.1-.79.13-1.58.29-2.37.49a7.43 7.43 0 0 1-.1-1.56h.07z" transform="translate(0 -.25)"/><path class="cls-2" d="M230.38 95.84h-.07zM229.5 69.93c-1 5.33-1.57 11.34-2.15 13.66-.26 1.07-.52 2.13-.76 3.2-.13.26-.25.52-.36.8a13 13 0 0 0-.89 5.41 12.09 12.09 0 0 0-3.35-.52 4.63 4.63 0 0 0 .17-1.53 28.73 28.73 0 0 1 6.32-19.81c.32-.42.67-.81 1.02-1.21z" transform="translate(0 -.25)"/><path class="cls-2" d="M225.33 93a1.48 1.48 0 0 0 0 .18q-.39 2.41-.59 4.84a38 38 0 0 0 2.57 18.17c-2.59 2.53-5.89 5.34-9.08 5.06-2.14-.19-4.47-2.9-6.25-4.11-5-3.38-6.75-11.37-4.23-16.79a13.19 13.19 0 0 1 5.68-5.66c1.25.34 2.52.62 3.8.86a4.17 4.17 0 0 0 4.77-3.07 12.09 12.09 0 0 1 3.33.52zm-.85 12.37a7.29 7.29 0 0 0-1.24-4.85c-2.7-3.34-8.77-.67-10.44 2.39a6.71 6.71 0 0 0-.13 6.15 6.44 6.44 0 0 0 5.12 3.46 6.11 6.11 0 0 0 5.54-2.68 8.83 8.83 0 0 0 1.15-4.47z" transform="translate(0 -.25)"/><path class="cls-4" d="M223.25 100.51a7.29 7.29 0 0 1 1.24 4.85 8.83 8.83 0 0 1-1.15 4.46 6.11 6.11 0 0 1-5.54 2.68 6.44 6.44 0 0 1-5.12-3.46 6.71 6.71 0 0 1 .13-6.15c1.67-3.05 7.74-5.72 10.44-2.38z" transform="translate(0 -.25)"/><path class="cls-1" d="M213.44 94.67a17.28 17.28 0 0 1 8.56-2.19 4.17 4.17 0 0 1-4.74 3.05 51.25 51.25 0 0 1-3.82-.86z" transform="translate(0 -.25)"/><path class="cls-8" d="M251.69 123.65c6.48 2.32 13.84 2.85 20.35.61s17.06-10.26 22.24-11.85c-4.23 2-11.21 8.21-13.06 12.45s-3.19 8.76-5.94 12.49-7.4 6.6-12 5.6c-3.42-.75-6-3.44-8.27-6.1a116.41 116.41 0 0 1-8.58-11.49c-.63-1-3.24-2.92-1-3.63.95-.29 5.13 1.51 6.26 1.92z" transform="translate(0 -.25)"/><path class="cls-9" d="M241.53 108.16c-3.85.55-7.69 1.54-10.45 4.32a11.3 11.3 0 0 0-1 1.22 12.69 12.69 0 0 0-1.91 4.2 11.16 11.16 0 0 0 .05 5.89c1 3.35 5.44 5.79 8 7.83a121.47 121.47 0 0 0 24.71 15.45c2.37 1.1 4.9 2.16 7.48 1.93a15.91 15.91 0 0 0 4.59-1.38l17.79-7.36c6-2.5 12.25-5.11 16.83-10a20.59 20.59 0 0 0 4.21-6.62 15.54 15.54 0 0 0 .16-12.1c-2.09-4.65-6.75-7.52-11.51-8.55a26 26 0 0 0-4.2-.54 58.14 58.14 0 0 0-9.46.5l-.86.1-1.88.22-39.84 4.52-.86.1c-.59.07-1.19.14-1.78.24" transform="translate(0 -.25)"/><ellipse class="cls-10" cx="268.76" cy="415.54" rx="152.62" ry="12.31"/></g></g></svg>