<?xml version="1.0" encoding="utf-8"?>
<!-- Generator: Adobe Illustrator 21.0.0, SVG Export Plug-In . SVG Version: 6.00 Build 0)  -->
<svg version="1.1" id="Layer_1" xmlns="http://www.w3.org/2000/svg" xmlns:xlink="http://www.w3.org/1999/xlink" x="0px" y="0px"
	 viewBox="0 0 750 1334" style="enable-background:new 0 0 750 1334;" xml:space="preserve">
<style type="text/css">
	.st0{fill:#030303;}
	.st1{font-family:'ArialMT';}
	.st2{font-size:24.01px;}
</style>
<title>Asset 1intervals-pink</title>
<path id="Battery" class="st0" d="M692.2,10.9h39c1.7,0,3,1.3,3,3v13c0,1.7-1.3,3-3,3h-39c-1.7,0-3-1.3-3-3v-13
	C689.2,12.2,690.6,10.9,692.2,10.9L692.2,10.9z M735.2,16.9h1.5c0.8,0,1.5,0.7,1.5,1.5l0,0v4c0,0.8-0.7,1.5-1.5,1.5h-1.5V16.9z
	 M692.2,11.9c-1.1,0-2,0.9-2,2v13c0,1.1,0.9,2,2,2h39c1.1,0,2-0.9,2-2v-13c0-1.1-0.9-2-2-2H692.2z M692.2,12.9h39c0.6,0,1,0.4,1,1
	v13c0,0.6-0.4,1-1,1h-39c-0.6,0-1-0.4-1-1v-13C691.2,13.3,691.7,12.9,692.2,12.9C692.2,12.9,692.3,12.9,692.2,12.9L692.2,12.9z"/>
<text transform="matrix(1 0 0 1 622.94 30.87)" class="st0 st1 st2">100%</text>
<text transform="matrix(1 0 0 1 327.63 30.87)" class="st0 st1 st2">5:00</text>
<text transform="matrix(1 0 0 1 374.36 30.87)" class="st0 st1 st2"> </text>
<text transform="matrix(1 0 0 1 379.7 30.87)" class="st0 st1 st2">AM</text>
<path id="Wi-Fi" class="st0" d="M109.4,24.7l-4.2,4.1l-4.3-4.2c2.2-2.3,5.8-2.5,8.2-0.4C109.1,24.4,109.2,24.6,109.4,24.7
	L109.4,24.7z M113.7,20.5L113.7,20.5l-2.2,2.1c-3.4-3.6-9-3.8-12.6-0.4c-0.1,0.1-0.2,0.2-0.3,0.3l-2.2-2.1
	c4.7-4.8,12.3-4.8,17.1-0.1C113.6,20.4,113.6,20.4,113.7,20.5L113.7,20.5z M118.1,16.3l-2.2,2.1c-5.9-6-15.5-6.1-21.5-0.2l-0.1,0.1
	l-2.2-2.1C99.2,9.1,110.9,9.1,118.1,16.3L118.1,16.3L118.1,16.3z"/>
<path id="Mobile-Signal" class="st0" d="M17.5,25.9c-3,0-5.5-2.5-5.5-5.5s2.5-5.5,5.5-5.5s5.5,2.5,5.5,5.5l0,0
	C23,23.4,20.5,25.9,17.5,25.9z M31.5,25.9c-3,0-5.5-2.5-5.5-5.5s2.5-5.5,5.5-5.5s5.5,2.5,5.5,5.5l0,0C37,23.4,34.5,25.9,31.5,25.9
	L31.5,25.9z M45.5,25.9c-3,0-5.5-2.5-5.5-5.5s2.5-5.5,5.5-5.5s5.5,2.5,5.5,5.5l0,0C51,23.4,48.5,25.9,45.5,25.9L45.5,25.9z
	 M59.5,25.9c-3,0-5.5-2.5-5.5-5.5s2.5-5.5,5.5-5.5s5.5,2.5,5.5,5.5l0,0C65,23.4,62.5,25.9,59.5,25.9L59.5,25.9z M73.5,25.9
	c-3,0-5.5-2.5-5.5-5.5s2.5-5.5,5.5-5.5s5.5,2.5,5.5,5.5l0,0C79,23.4,76.5,25.9,73.5,25.9L73.5,25.9z"/>
</svg>
