<svg id="Layer_1" xmlns="http://www.w3.org/2000/svg" viewBox="0 0 182.4 180.2"><style>.st0{fill:#00aeef}</style><title>Asset 1</title><g id="Layer_2"><path class="st0" d="M50.5 109.9c22-17 64.6-32.4 90.9-16.6s26.5 60.5 32.4 86.9c6.4-26.9 10.5-57.2 7.8-84.8-1.1-11.8-5-20.2-13.8-28.2-3.2-2.9-12-7-13.4-10.9-2-5.6 6.2-9.6 5.8-16.3-9.9-2-18.7-.8-28.1 2.3-8.3 2.7-11.8.2-17.3-6.8-4.5-5.6-7.9-12-12.2-17.7-27-35.1-71.2-9.9-102.6 4 21.5-.2 73.8-5.4 78.3 24.8 2.8 19-6.2 25.2-22 31.7-8 3.3-18.2 4.1-17.7 14.2.4 7.1 4.9 14.8 11.9 17.4z" id="Layer_2-2"/></g></svg>