<?xml version="1.0" encoding="utf-8"?>
<!-- Generator: Adobe Illustrator 21.0.0, SVG Export Plug-In . SVG Version: 6.00 Build 0)  -->
<svg version="1.1" id="Layer_1" xmlns="http://www.w3.org/2000/svg" xmlns:xlink="http://www.w3.org/1999/xlink" x="0px" y="0px"
	 viewBox="0 0 311.1 553.4" style="enable-background:new 0 0 311.1 553.4;" xml:space="preserve">
<style type="text/css">
	.st0{fill:#FEFEFE;}
	.st1{fill:#B1B1B1;}
	.st2{fill:#03A8F3;}
	.st3{fill:#99DBF9;}
	.st4{fill:#929292;}
	.st5{fill:#919191;}
	.st6{fill:#05A9F3;}
	.st7{fill:#9D9D9D;}
	.st8{fill:#A3A3A3;}
	.st9{fill:#20B2F4;}
	.st10{fill:#A0A0A0;}
	.st11{fill:#A2A2A2;}
	.st12{fill:#9E9E9E;}
	.st13{fill:#A6A6A6;}
	.st14{fill:#2AB5F5;}
	.st15{fill:#23B3F4;}
	.st16{fill:#A5A5A5;}
	.st17{fill:#2EB7F5;}
	.st18{fill:#34B9F5;}
	.st19{fill:#A7A7A7;}
	.st20{fill:#A1A1A1;}
	.st21{fill:#A4A4A4;}
	.st22{fill:#AFAFAF;}
	.st23{fill:#E7F6FD;}
	.st24{fill:#F1F9FD;}
	.st25{fill:#FDFDFD;}
	.st26{fill:#FAFAFA;}
	.st27{fill:#F2F2F2;}
	.st28{fill:#F3F3F3;}
	.st29{fill:#F9FCFE;}
	.st30{fill:#E4F5FD;}
	.st31{fill:#80D3F8;}
	.st32{fill:#030303;}
	.st33{enable-background:new    ;}
</style>
<title>Asset 1main-moon</title>
<g>
	<path class="st0" d="M-445.1,489.3V-20.4c0-1.5,0.3-1.9,1.8-1.9H-132c1.5,0,1.9,0.3,1.9,1.9v549.6c0,1.5-0.3,1.9-1.9,1.9h-311.2
		c-1.5,0-1.9-0.3-1.9-1.9c0.1-13.1,0-26.2,0-39.4c0.6-0.4,1.3-0.2,2-0.2h311.6c-0.9-0.1-2,0-3.2,0h-307.8
		C-443.2,489.5-444.1,489.7-445.1,489.3L-445.1,489.3z"/>
	<path class="st1" d="M-445.1,489.3h313.9v0.4h-313.9V489.3z"/>
	<path class="st2" d="M-196,158.7c0,49.8-40.6,91.6-92.1,91.6c-50.1,0-92.4-41.5-92.2-91.8c0.1-50.5,43-90.7,92.6-90.6
		C-237.2,68.1-196,108.7-196,158.7L-196,158.7z"/>
	<path class="st3" d="M-357.3,48.6c-10,0-20.1,0.1-30.1,0c-5.3-0.1-9.7-2.2-12.9-6.4c-4.3-5.8-2.5-13.9,4.2-17.5
		c2.7-1.4,4-2.3,3.5-6c-1-6.3,3.9-12.7,10.3-15.3c8.1-3.3,15.7-2.1,22.8,2.6c2,1.3,3.5,3.2,4.4,5.4c0.6,1.5,1.2,1.4,2.6,0.8
		c9.1-3.8,17.9-3.5,26.2,2.2c2.6,1.7,4.2,4.2,4.4,7.4c0.1,1.3,1,1.5,1.8,1.9c4,2,7,4.9,7.9,9.5c0.9,4.7-0.8,8.5-4.4,11.5
		c-3.3,2.8-7.4,3.9-11.8,3.9C-337.9,48.6-347.6,48.6-357.3,48.6z M-286.9,434.4h11.7c4.6,0,7.3,2.8,7.3,7.4v21.4
		c0,4.5-2.9,7.5-7.5,7.5h-23.4c-4.6,0-7.6-2.9-7.6-7.5v-21.8c0-4,3.1-7,7.1-7H-286.9z"/>
	<path class="st2" d="M-405.8,516.4h-6.6c-2,0-3.9-0.7-4.7-2.7c-0.9-2,0.4-3.3,1.7-4.6c2.3-2.1,4.5-4.3,6.8-6.5
		c1.9-1.9,4.6-1.9,6.5,0c2.1,2.2,4.4,4.4,6.5,6.7c1.2,1.2,2.4,2.4,1.5,4.3c-0.8,2-2.6,2.8-4.6,2.9
		C-401,516.5-403.3,516.4-405.8,516.4z"/>
	<path class="st4" d="M-162.6,501c0.9,0.7,2.4-0.7,2.9,0.5c0.5,1.4-1.5,1.3-1.8,2.3c0.6,0.9,2.6,0,2.5,1.5c-0.1,1.3-1.8,0.6-2.6,1.4
		c0.2,1.1,2.4,0.9,1.9,2.2c-0.5,1.5-2-0.1-3,0.7c-0.2,1.1,1.9,1.6,0.9,2.8c-0.9,1-1.7-0.7-2.9-0.6c-0.7,1,1.4,2.4-0.3,3.1
		c-1.2,0.5-1.2-1.5-2.4-1.5c-1,0.7,0.4,2.6-1.2,2.8c-1.2,0.1-0.7-1.6-1.7-2.1c-1.1,0.2-0.4,2.4-1.8,2.1c-1.4-0.3-0.4-2-1.2-2.8
		c-1.1,0-1.2,2.2-2.6,1.5c-1.4-0.8,0.5-2,0-3.1c-1.1-0.2-1.9,1.6-3,0.5c-0.9-1.1,0.9-1.6,0.9-2.6c-0.8-1-2.6,0.9-3-0.8
		c-0.2-1.1,1.3-1.1,1.8-1.9c0-0.1,0-0.3-0.1-0.3c-0.7-0.6-2.4,0-2.4-1.2c-0.1-1.6,1.8-0.7,2.6-1.5c-0.2-1.1-2.4-0.9-1.9-2.2
		c0.5-1.6,2,0.2,2.9-0.7c0.2-1-1.9-1.6-0.9-2.7c1-1.1,1.8,0.8,3,0.6c0.5-1-1.4-2.3,0.1-3.1c1.2-0.6,1.3,1.4,2.5,1.5
		c1-0.6-0.3-2.6,1.3-2.8c1.3-0.1,0.7,1.6,1.7,2.1c1.2-0.1,0.3-2.6,2-2.1c1.2,0.4,0.3,1.9,1,2.7c1.1,0,1.2-2.2,2.6-1.5
		c1.5,0.8-0.5,2,0,3.1c1.1,0.2,1.9-1.7,3-0.6C-160.6,499.4-162.5,499.9-162.6,501L-162.6,501z"/>
	<path class="st5" d="M-260,498.2c1.7-1.1,3.6-1.8,5.5-2.2c2.5-0.5,4.8,0,6,2.2c1.3,2.3,3,3.4,5.7,2.5c0.2-0.1,0.4,0,0.6,0
		c0.1,0,0.3,0.1,0.6,0.2c-0.7,1.4-0.3,2.4,1.1,3.1c0.7,0.3,1.1,1.1,1.3,1.8c0.9,3.7,0.5,7.4-0.6,11.5c-0.4-2.2-0.7-4-1.1-5.8
		c-1.2-4.5-4-6.1-8.7-4.9c-1.5,0.4-3.1,0.9-4.4,1.8c-1,0.7-1.7,0.5-2.1-0.5c-0.4-0.9-0.4-1.7,0.6-2.2c0.6-0.3,1.1-0.5,1.7-0.7
		c1.4-0.6,2.4-1.5,2.3-3.1c-0.1-1.7-1.2-2.7-2.8-3.2C-256,498.3-257.9,498.3-260,498.2L-260,498.2z M-328.1,499.2v-3.3
		c0-0.9-0.2-2.1,1.3-2c1.3,0,1.2,1.1,1.2,2c0,2.2,0.1,4.4,0,6.6c-0.1,1.3,0.3,1.8,1.7,1.7c2.3-0.1,4.6,0,6.9,0
		c0.9,0,1.7,0.1,1.8,1.2c0.1,1.3-0.9,1.3-1.8,1.3c-2.3,0-4.6,0.1-6.9,0c-1.2,0-1.7,0.3-1.6,1.6c0.1,2.3,0,4.6,0,7
		c0,0.9-0.1,1.7-1.3,1.7c-1.1,0-1.2-0.8-1.2-1.7c0-2.2-0.1-4.4,0-6.6c0.1-1.7-0.5-2.1-2.1-2c-2,0.1-4.2,0-6.2,0
		c-0.9,0-2.1,0.2-2.1-1.3c0-1.4,1.2-1.2,2.1-1.2c2,0,4.1-0.1,6,0c1.9,0.2,2.5-0.6,2.3-2.3C-328.2,501-328.1,500.1-328.1,499.2
		L-328.1,499.2z"/>
	<path class="st6" d="M-405.7,500.6c-2.1,0-3.8-1.5-3.8-3.5c0-1.8,1.7-3.4,3.8-3.4c2,0,3.9,1.6,3.9,3.5
		C-401.8,499-403.5,500.6-405.7,500.6z"/>
	<path class="st7" d="M-274.3,525.6c0.4-1.5-0.1-2.8,0.6-4.3c0.6,2,0.4,3.8,0.3,5.5c-0.1,1-0.7,0.4-1.1-0.1c-0.8-1-1.5-2.1-2.5-3.3
		c-0.5,1.3,0.1,2.7-0.7,4.2c-0.6-2.1-0.5-3.8-0.3-5.5c0.1-0.9,0.8-0.3,1.1,0.1C-276,523.2-275.3,524.2-274.3,525.6L-274.3,525.6z"/>
	<path class="st8" d="M-162.4,527.8c0.5-0.3,0.9,0.3,1.3,0.3c0.5-0.1,1.3,0.1,1.2-0.7c-0.1-0.9-0.7-0.2-1.1-0.2
		c-0.9-0.1-1.6-0.5-1.7-1.4c-0.2-1-0.2-2,0.8-2.7c0.9-0.6,2.6-0.1,2.7,0.1c0.7,1,0.2,2.3,0.3,3.5c0.1,0.9-0.1,1.7-1,2
		c-0.9,0.4-1.7,0.3-2.5-0.5L-162.4,527.8L-162.4,527.8z M-320,527.9c0.7-0.4,0.9,0.1,1.3,0.1c0.6,0,1.4,0.2,1.4-0.7
		c-0.1-0.8-0.7-0.1-1.1-0.2c-0.9-0.1-1.5-0.5-1.7-1.5c-0.2-1-0.2-2,0.8-2.7c0.9-0.6,1.8,0.2,2.8,0.1c0.3,0,0.2,4.7-0.2,5.1
		C-317.9,529.2-318.9,529.1-320,527.9L-320,527.9z"/>
	<path class="st9" d="M-400.7,524.2c0.9,0.3,2.1-0.7,2.3,0.8c0.1,1.1-0.6,2.1-1.9,2.2c-1.6,0.2-2.7-0.5-3.1-2.1
		c-0.4-1.6,0.3-3.3,1.7-3.7c1.4-0.4,2.4,0,3,1.5c-0.5,0.3-0.7-0.2-1-0.4c-0.7-0.4-1.4-0.7-2.1-0.2c-0.8,0.6-1,1.4-0.9,2.4
		c0.1,0.8,0.5,1.6,1.4,1.8c0.8,0.2,1.5,0,1.9-0.8C-398.9,524.5-400.4,525.2-400.7,524.2z"/>
	<path class="st10" d="M-186.3,525.8c0.5-0.2,0.7,0,0.9,0.2c0.8,0.6,1.8,0.9,2.4,0c0.5-1.1-0.7-1.2-1.4-1.4
		c-0.9-0.3-1.7-0.7-1.5-1.8c0.1-0.9,0.7-1.3,1.5-1.4c1.2-0.1,1.7,0.1,2.1,1.4c-0.5,0.2-0.7-0.3-1-0.5c-0.7-0.4-1.4-0.3-1.7,0.4
		c-0.3,0.8,0.5,1,1,1.2c1,0.3,2.1,0.5,2.1,1.8c0,0.8-0.5,1.4-1.4,1.5C-184.6,527.3-185.8,527.4-186.3,525.8L-186.3,525.8z"/>
	<path class="st11" d="M-224.4,521.4c0,1.3-0.2,2.7,0,4c0.2,1.6-0.7,1.7-1.8,1.8c-1.3,0.1-1.9-0.5-2-1.7c-0.1-1.1,0-2.6,1.4-2.5
		c1.5,0.1,1.7-0.7,1.9-1.8C-224.8,521.3-224.6,521.3-224.4,521.4L-224.4,521.4z"/>
	<path class="st12" d="M-248.7,525.6c0.8,0.4,1.2,0.7,1.7,0.9c0.6,0.3,1.3,0.1,1.6-0.5c0.3-0.8-0.4-1-1-1.2c-0.1,0-0.1,0-0.2-0.1
		c-0.9-0.4-1.9-0.5-2-1.8c0-0.7,0.4-1.2,1-1.4c1.1-0.3,2.3-0.3,2.9,0.9c-0.4,0.6-0.7,0.2-1,0c-0.7-0.6-1.6-0.5-1.9,0.3
		c-0.4,0.9,0.6,1,1.2,1.2c0.9,0.3,1.9,0.5,1.9,1.8c0,0.9-0.6,1.4-1.4,1.5C-247.1,527.4-248.2,527.4-248.7,525.6L-248.7,525.6z"/>
	<path class="st8" d="M-272.1,523.7c1.1-1,2.1-1.4,3.1-0.4c0.9,1,0.8,2.4,0.4,3.4c-0.3,0.6-1.6,0.5-2.6,0.4
		c-0.6-0.1-0.9-0.6-0.9-1.2c0-0.7,0.5-1,1.1-1.2c0.5-0.2,1.7,0.4,1.4-0.7c-0.2-0.9-1.1-0.3-1.7-0.1
		C-271.3,523.9-271.5,523.8-272.1,523.7z"/>
	<path class="st11" d="M-333.6,523.4c1.3-1,3.2-0.7,4.3-0.3c1.6,0.6,0.7,2.5,0.7,4.2c-1-0.8-0.6-1.7-0.7-2.4c-0.1-0.6,0-1.3-0.9-1.3
		c-0.7,0-0.7,0.7-0.8,1.2c-0.1,0.7,0.2,1.5-0.4,2.3c-0.7-0.7-0.4-1.5-0.4-2.2c-0.1-1-0.4-1.6-1.5-1.3
		C-333.6,523.7-333.6,523.6-333.6,523.4z"/>
	<path class="st13" d="M-234.8,523.1c0.3,1.3,0.7,2.8-0.2,3.9c-0.2,0.3-1.8,0.7-2.7,0c-1.3-1.1-0.3-2.6-0.7-4.3
		c1.3,0.9,0.8,1.7,0.9,2.5c0.1,0.6,0,1.3,0.9,1.3c0.8,0,1-0.6,1.1-1.2v-2.2C-235.1,523-234.9,523-234.8,523.1z M-264.3,522.5
		c1.2,1.1,0.8,2,0.9,2.7c0.1,0.5,0,1.1,0.8,1.2c0.8,0,1.1-0.4,1.2-1.1c0.1-0.8,0.1-1.5,0.3-2.3c0.7,1.3,0.8,2.7,0.2,3.9
		c-0.2,0.3-1.8,0.7-2.7,0.1C-264.9,525.9-264,524.4-264.3,522.5L-264.3,522.5z"/>
	<path class="st10" d="M-252.6,526.3c-0.9,1.2-1.9,1.4-3,0.4c-1-1-1-2.2,0-3.3c0.8-0.8,1.7-0.8,2.6-0.1c0.4,0.4,0.6,0.9,0.5,1.4
		c-0.1,0.5-0.6,0.4-1,0.5c-0.6,0.1-1.2-0.3-1.6,0.3c-0.1,0.1,0.1,0.5,0.3,0.7c0.6,0.7,1.2,0.3,1.8-0.1L-252.6,526.3L-252.6,526.3z"
		/>
	<path class="st11" d="M-321.8,527c-0.6-0.8-0.3-1.6-0.5-2.5c-0.1-0.5-0.3-0.9-0.9-1c-0.7,0-1,0.4-1.1,1c-0.2,0.8,0.2,1.7-0.5,2.8
		c-0.5-1.6-0.4-3-0.2-4.3c0.9,0.2,1.9-0.7,2.8,0C-321,524.2-321.5,525.7-321.8,527z"/>
	<path class="st14" d="M-393.3,525.1c-0.1,1.1-0.5,2.1-1.9,2.1c-1.5,0.1-2.1-0.8-2.1-2.2c0-1.3,0.6-2.2,1.9-2.2
		C-394.1,522.7-393.4,523.7-393.3,525.1L-393.3,525.1z"/>
	<path class="st15" d="M-410.3,526.1c-0.9,1.3-1.8,1.4-2.8,0.9c-0.9-0.4-1.1-1.3-1-2.3c0.1-0.9,0.5-1.5,1.4-1.8
		c0.7-0.3,1.3,0,1.8,0.5c0.4,0.4,0.6,0.9,0.4,1.5c-0.2,0.6-0.8,0.3-1.2,0.4c-0.5,0.1-1.1-0.3-1.4,0.3c-0.1,0.1,0.1,0.5,0.3,0.7
		c0.5,0.6,1.1,0.4,1.6,0C-411,526.2-410.9,526.2-410.3,526.1L-410.3,526.1z"/>
	<path class="st11" d="M-229.9,527c-0.6-0.8-0.3-1.6-0.5-2.5c-0.1-0.6-0.4-1-1.1-1c-0.6,0-0.8,0.4-0.9,0.9c-0.2,0.8,0.3,1.7-0.5,2.7
		c-0.5-1.5-0.4-2.8-0.2-4.2c1,0.2,2-0.8,3,0.1C-229.1,524.4-229.5,525.7-229.9,527z M-164.2,527.4c-0.6-0.9-0.4-1.6-0.5-2.2
		c0-0.8,0-1.6-1.1-1.6c-0.9,0-0.9,0.8-1,1.5c-0.1,0.6,0.2,1.3-0.5,2.1c-0.6-1.4-0.5-2.8-0.1-4.1c0-0.1,1.8-0.7,2.7-0.1
		C-163.4,524.2-163.8,525.6-164.2,527.4L-164.2,527.4z"/>
	<path class="st12" d="M-177.5,526.1c-0.8,1.3-1.7,1.3-2.7,0.9c-1-0.5-1-1.5-0.9-2.5c0.1-0.9,0.7-1.5,1.5-1.7
		c0.9-0.2,1.5,0.3,1.9,1.1c0.3,0.6,0.4,1.1-0.6,1.3c-0.7,0.1-2-0.6-1.9,0.7C-179.9,527.3-178.5,526.2-177.5,526.1z"/>
	<path class="st10" d="M-239.4,525c0,1.2-0.4,2.2-1.8,2.2c-1.4,0.1-1.9-0.7-2-2c-0.1-1.4,0.5-2.3,1.9-2.4
		C-240.1,522.8-239.4,523.7-239.4,525L-239.4,525z"/>
	<path class="st16" d="M-337.9,521.8c-1.2,0.4-1.9,0.9-1.8,2.2c0.1,1,0.2,2.1-0.3,3.3c-1.5-1.8,1-4.7-2.8-5.7
		C-340.7,521.3-339.4,521.4-337.9,521.8z M-315,526.3c0.6-0.4,0.8,0.1,1.2,0.2c0.4,0.1,0.8,0.1,1-0.3c0.3-0.6-0.3-0.6-0.6-0.8
		c-0.8-0.4-2.1-0.7-1.3-1.9c0.8-1.1,1.8-0.7,2.9,0.1c-0.4,0.7-0.7,0.1-1.1,0.1s-0.9-0.1-1,0.4c-0.1,0.5,0.4,0.6,0.8,0.7
		c0.7,0.2,1.5,0.4,1.4,1.4c0,0.6-0.5,1-1,1.1C-313.7,527.3-314.6,527.4-315,526.3L-315,526.3z M-219.9,523.6c-0.5,0.6-0.9,0-1.2,0
		c-0.4,0-0.9,0-1,0.5c-0.1,0.4,0.4,0.5,0.7,0.6c0.7,0.2,1.5,0.3,1.6,1.3c0,0.6-0.4,1.1-0.9,1.2c-0.8,0.1-1.8,0.3-2.3-0.8
		c0.4-0.6,0.7,0,1,0.1c0.5,0.2,1,0.2,1.2-0.4c0.2-0.5-0.4-0.6-0.7-0.8c-0.7-0.3-1.5-0.5-1.4-1.5c0-0.4,0.4-0.7,0.8-0.9
		C-221.3,522.6-220.6,523-219.9,523.6L-219.9,523.6z M-157.5,526.3c0.6-0.4,0.8,0.1,1.2,0.2c0.4,0.1,0.8,0.1,1-0.3
		c0.3-0.6-0.3-0.6-0.6-0.8c-0.8-0.4-2.1-0.7-1.3-1.9c0.8-1.1,1.8-0.7,2.9,0c-0.5,0.7-0.8,0.1-1.1,0.1c-0.4,0-0.9-0.1-1,0.4
		s0.4,0.6,0.8,0.7c0.7,0.2,1.5,0.4,1.4,1.4c0,0.6-0.5,1-1,1.1C-156.1,527.3-157.1,527.4-157.5,526.3L-157.5,526.3z"/>
	<path class="st17" d="M-415.1,527.2h-2c-0.9,0.1-1.4-0.2-1.3-1.2c0.1-1.5,0-2.9,0-4.5c1.2,0.3,0.8,1,0.8,1.5
		C-417.4,526-417.5,526-415.1,527.2z"/>
	<path class="st18" d="M-408.5,521.9c2.4,1.3-1.1,3.9,1.5,5c-0.7,0.4-1.5,0.3-1.5-0.2C-408.5,525.1-409.9,523.5-408.5,521.9z"/>
	<path class="st19" d="M-174,527.1c-1.2,0.2-1.5-0.3-1.6-1.1c-0.1-0.9,0.4-1.8-0.5-2.7c-0.4-0.4,0.4-0.7,0.6-1.1
		c0.2-0.4,0.6-0.2,0.7,0.1c0.1,0.4,1.1,0.4,0.4,1.2C-175.3,524.7-174.9,525.9-174,527.1z"/>
	<path class="st20" d="M-266.6,522c1.3,0.5,0.7,1.4,0.5,2.3c-0.2,0.9-0.3,2,1.2,2.9C-267.1,526.7-267.8,523.7-266.6,522z
		 M-172.3,521.8c2.4,1.4-1.1,3.9,1.5,5.1C-172.6,526.8-173.3,524.1-172.3,521.8z"/>
	<path class="st21" d="M-258.8,527.4c-1-3.9-0.8-4.4,2.6-4.4C-259.1,523.8-257.9,525.8-258.8,527.4z"/>
	<path class="st22" d="M-333.4,523.7c-0.7,1-0.1,2.3-0.8,3.7c-0.7-1.6-0.6-2.9-0.3-4.1c0.2-0.7,0.6,0,0.9,0.1
		C-333.5,523.5-333.4,523.6-333.4,523.7z"/>
	<path class="st16" d="M-169.2,527c-0.5-1.3-0.6-2.7-0.1-4.6C-168.6,524.3-168.9,525.7-169.2,527z M-326.8,527
		c-0.6-1.3-0.4-2.7-0.1-4C-326.3,524.3-326.3,525.7-326.8,527z M-336.5,523c0.6,1.3,0.6,2.7,0.1,4.6
		C-337.1,525.7-336.8,524.4-336.5,523z"/>
	<path class="st0" d="M-287.9,84.5c41.5,0,75.1,33.3,75.1,74.3c0,42.9-35.9,75-75.3,74.9c-40.8-0.1-75.5-33.9-75.4-75.1
		C-363.4,119.7-331.4,84.6-287.9,84.5L-287.9,84.5z"/>
	<path class="st23" d="M-402.3,506.3c1.6,1.8,2.9,3.1,4.2,4.5c-4.2,1.9-4.2,1.9-4.2-2.2V506.3z"/>
	<path class="st24" d="M-408.4,512.2c-1.4-0.4-2.6-0.7-4-1.1c1.1-1.7,2.4-3,4-4.5V512.2z"/>
	<path class="st25" d="M-174,499.8c0.9,1.6,1.7,3.2,2.7,4.8c0.4,0.6,0.2,1.1-0.1,1.7l-1.5,2.7c-1.2,2.2-1.6,2.2-3,0.2
		C-178.1,506-177.3,502.1-174,499.8z M-167,504.6c-0.9-0.2-2.4,0.5-3.1-0.3c-1.1-1.4-1.9-3.1-2.7-4.8c-0.4-0.9,0.6-0.8,1-0.9
		c3.2-0.9,6.8,1,8,4c0.6,1.5,0.4,2.2-1.4,2H-167z M-167,506.1h1c0.9,0.1,2.1-0.4,2.6,0.3c0.5,1-0.3,2.1-0.9,3
		c-1.7,2.2-4,3.3-6.9,2.9c-1.2-0.2-1.8-0.6-1-1.9c0.3-0.4,0.6-0.9,0.8-1.4C-170.7,506.6-169.2,505.4-167,506.1L-167,506.1z
		 M-160.7,523.6c0.9,0.1,1.1,0.7,1.1,1.4c0,0.8-0.2,1.4-1.1,1.4c-1,0-1.1-0.8-1.1-1.4C-162,524.3-161.7,523.6-160.7,523.6z
		 M-318.5,526.4c-0.9-0.1-1-0.9-0.9-1.5c0-0.7,0.3-1.4,1.2-1.3c0.9,0.1,1,0.8,1,1.5C-317.2,525.9-317.6,526.4-318.5,526.4z"/>
	<path class="st26" d="M-225.2,525.1c0,0.8-0.2,1.4-1,1.5c-0.9,0.1-1.3-0.7-1.3-1.4c0-0.8,0.3-1.5,1.2-1.5
		C-225.4,523.5-225.3,524.3-225.2,525.1z"/>
	<path class="st27" d="M-269.3,525.7c-0.2,0.6-0.7,0.8-1.2,0.8c-0.3,0-0.7-0.3-0.5-0.7c0.2-0.5,0.6-0.6,1.1-0.6
		C-269.7,525.2-269.3,525.2-269.3,525.7L-269.3,525.7z"/>
	<path class="st28" d="M-254.3,523.5c0.4,0,0.8,0.1,0.8,0.6c0,0.6-0.5,0.6-0.8,0.5c-0.3,0-0.9,0.2-0.9-0.4
		C-255.2,523.8-254.8,523.6-254.3,523.5L-254.3,523.5z"/>
	<path class="st29" d="M-395.3,526.6c-0.9-0.1-1.3-0.7-1.2-1.5c0-0.7,0.2-1.4,1-1.5c1-0.1,1.3,0.6,1.4,1.4
		C-394.1,525.8-394.4,526.4-395.3,526.6z"/>
	<path class="st30" d="M-413.2,524.6c0.3-1.1,0.9-1.2,1.6-0.9c0.2,0.1,0.4,0.6,0.3,0.7C-411.8,525-412.5,524.7-413.2,524.6z"/>
	<path class="st28" d="M-178.2,524.3c-0.3,0.6-0.8,0.4-1.2,0.4c-0.3,0-0.7-0.1-0.6-0.5c0.1-0.6,0.6-0.7,1.1-0.6
		C-178.5,523.6-178.3,523.9-178.2,524.3L-178.2,524.3z"/>
	<path class="st26" d="M-240.2,525.2c0,0.8-0.3,1.4-1.1,1.4c-0.9,0-1.3-0.7-1.3-1.5s0.4-1.5,1.3-1.5
		C-240.3,523.6-240.3,524.4-240.2,525.2z"/>
	<path class="st31" d="M-286.9,129.8c16.1,0,28.8,13,29.1,29.2c0.2,15-14.2,29.3-29.7,29.1c-14.7-0.2-29.4-13.9-29-30
		C-316,142.6-302.9,129.8-286.9,129.8L-286.9,129.8z"/>
	<g id="Pin-Right">
		<path id="Battery" class="st32" d="M-151.1-16.3h16.6c0.7,0,1.2,0.6,1.2,1.2v5.5c0,0.7-0.5,1.2-1.2,1.2h-16.6
			c-0.7,0-1.2-0.6-1.2-1.2v-5.5C-152.5-15.8-151.8-16.3-151.1-16.3z M-132.9-13.8h0.6c0.3,0,0.6,0.3,0.6,0.6v1.7
			c0,0.3-0.3,0.6-0.6,0.6h-0.6V-13.8z M-151.1-15.9c-0.5,0-0.8,0.4-0.8,0.8v5.5c0,0.5,0.4,0.8,0.8,0.8h16.6c0.5,0,0.8-0.4,0.8-0.8
			v-5.5c0-0.5-0.4-0.8-0.8-0.8C-134.6-15.9-151.1-15.9-151.1-15.9z M-151.1-15.5h16.6c0.2,0,0.4,0.2,0.4,0.4v5.5
			c0,0.2-0.2,0.4-0.4,0.4h-16.6c-0.2,0-0.4-0.2-0.4-0.4v-5.5C-151.5-15.3-151.3-15.5-151.1-15.5z"/>
		
			<text id="_100_" transform="matrix(1.0134 0 0 1 -180.6123 -7.9284)" class="st32" style="font-family:'ArialMT'; font-size:10.0646px;">100%</text>
	</g>
	<g id="_9:41-AM">
		<text transform="matrix(1.0134 0 0 1 -306.1094 -7.9284)" class="st32" style="font-family:'ArialMT'; font-size:10.0646px;">9:41</text>
		<text transform="matrix(1.0134 0 0 1 -283.9814 -7.9284)" class="st32" style="font-family:'ArialMT'; font-size:10.0646px;">AM</text>
	</g>
	<path id="Wi-Fi" class="st32" d="M-398.8-10.5l-1.8,1.7l-1.8-1.7c0.9-1,2.5-1.1,3.5-0.2C-399-10.6-398.9-10.5-398.8-10.5z
		 M-397-12.2l-0.9,0.9c-1.4-1.5-3.9-1.5-5.3-0.1l-0.1,0.1l-1-0.9c1.9-2,5.2-2,7.3-0.1C-397.1-12.3-397-12.2-397-12.2z M-395.1-14.1
		l-0.9,0.9c-2.6-2.5-6.6-2.5-9.2,0l-0.9-0.9C-403.1-17-398.2-17-395.1-14.1z"/>
	<path id="Mobile-Signal" class="st32" d="M-437.9-10c-1.3,0-2.4-1-2.4-2.3s1-2.3,2.4-2.3s2.4,1,2.4,2.3S-436.7-10-437.9-10z
		 M-432-10c-1.3,0-2.4-1-2.4-2.3s1-2.3,2.4-2.3s2.4,1,2.4,2.3S-430.6-10-432-10z M-426-10c-1.3,0-2.4-1-2.4-2.3s1-2.3,2.4-2.3
		c1.3,0,2.4,1,2.4,2.3S-424.7-10-426-10z M-420.1-10c-1.3,0-2.4-1-2.4-2.3s1-2.3,2.4-2.3s2.4,1,2.4,2.3S-418.8-10-420.1-10z
		 M-414.2-10c-1.3,0-2.4-1-2.4-2.3s1-2.3,2.4-2.3s2.4,1,2.4,2.3S-412.8-10-414.2-10z"/>
</g>
</svg>
