<?xml version="1.0" encoding="utf-8"?>
<!-- Generator: Adobe Illustrator 21.0.0, SVG Export Plug-In . SVG Version: 6.00 Build 0)  -->
<svg version="1.1" id="Layer_1" xmlns="http://www.w3.org/2000/svg" xmlns:xlink="http://www.w3.org/1999/xlink" x="0px" y="0px"
	 viewBox="0 0 310.8 553.4" style="enable-background:new 0 0 310.8 553.4;" xml:space="preserve">
<style type="text/css">
	.st0{fill:#FEFEFE;}
	.st1{fill:#B1B1B1;}
	.st2{fill:#03A8F3;}
	.st3{fill:#99DBF9;}
	.st4{fill:#929292;}
	.st5{fill:#919191;}
	.st6{fill:#05A9F3;}
	.st7{fill:#9D9D9D;}
	.st8{fill:#A3A3A3;}
	.st9{fill:#20B2F4;}
	.st10{fill:#A0A0A0;}
	.st11{fill:#A2A2A2;}
	.st12{fill:#9E9E9E;}
	.st13{fill:#A6A6A6;}
	.st14{fill:#2AB5F5;}
	.st15{fill:#23B3F4;}
	.st16{fill:#A5A5A5;}
	.st17{fill:#2EB7F5;}
	.st18{fill:#34B9F5;}
	.st19{fill:#A7A7A7;}
	.st20{fill:#A1A1A1;}
	.st21{fill:#A4A4A4;}
	.st22{fill:#AFAFAF;}
	.st23{fill:#E7F6FD;}
	.st24{fill:#F1F9FD;}
	.st25{fill:#FDFDFD;}
	.st26{fill:#FAFAFA;}
	.st27{fill:#F2F2F2;}
	.st28{fill:#F3F3F3;}
	.st29{fill:#F9FCFE;}
	.st30{fill:#E4F5FD;}
	.st31{fill:#80D3F8;}
	.st32{fill:#030303;}
	.st33{font-family:'ArialMT';}
	.st34{font-size:10.06px;}
</style>
<title>main-moon2</title>
<g id="Layer_2">
	<g id="Layer_1-2">
		<path class="st0" d="M0.1,511.6V1.9C0.1,0.4,0.4,0,1.9,0h307c1.5,0,1.9,0.3,1.9,1.9v549.6c0,1.5-0.3,1.9-1.9,1.9H1.9
			c-1.5,0-1.9-0.3-1.9-1.9c0.1-13.1,0-26.2,0-39.4c0.6-0.4,1.3-0.2,2-0.2h307.4c-0.9-0.1-2,0-3.1,0H2.6
			C1.8,511.9,0.9,511.8,0.1,511.6z"/>
		<path class="st1" d="M0.1,511.6h309.6v0.4H0.1V511.6z"/>
		<path class="st2" d="M245.7,181c0,49.8-40.1,91.6-90.8,91.6c-49.4,0-91.1-41.5-90.9-91.8c0.1-50.5,42.4-90.7,91.3-90.6
			C205.3,90.5,245.6,131,245.7,181z"/>
		<path class="st3" d="M86.7,71c-9.9,0-19.8,0.1-29.7,0c-5,0-9.7-2.3-12.7-6.4c-3.8-5.3-2.7-12.7,2.6-16.5c0.5-0.4,1-0.7,1.6-1
			c2.6-1.4,3.9-2.3,3.4-6c-1-6.3,3.8-12.7,10.2-15.3c8-3.3,15.4-2.1,22.5,2.6c1.9,1.3,3.5,3.2,4.3,5.3c0.6,1.5,1.2,1.4,2.5,0.8
			c9-3.8,17.7-3.5,25.8,2.2c2.5,1.6,4.1,4.4,4.3,7.4c0.1,1.3,1,1.5,1.8,1.9c3.9,2,6.9,5,7.8,9.5c0.9,4.7-0.8,8.5-4.3,11.5
			c-3.2,2.7-7.4,4.1-11.6,3.9C105.8,71,96.3,71,86.7,71z M156.1,456.8h11.5c4.5,0,7.2,2.8,7.2,7.4v21.4c0,4.5-2.8,7.5-7.4,7.5h-23.1
			c-4.5,0-7.5-2.9-7.5-7.5v-21.8c-0.1-3.7,2.8-6.9,6.6-7c0.1,0,0.3,0,0.4,0L156.1,456.8z"/>
		<path class="st2" d="M38.8,538.8h-6.6c-2,0-3.8-0.7-4.6-2.7s0.4-3.3,1.7-4.6c2.2-2.1,4.4-4.3,6.7-6.5c1.6-1.8,4.3-1.9,6.1-0.3
			c0.1,0.1,0.2,0.2,0.3,0.3c2.1,2.2,4.3,4.4,6.5,6.7c1.2,1.2,2.3,2.4,1.5,4.3c-0.7,1.8-2.6,3-4.5,2.9
			C43.6,538.9,41.3,538.8,38.8,538.8z"/>
		<path class="st4" d="M278.7,523.3c0.9,0.7,2.3-0.7,2.8,0.5c0.5,1.4-1.5,1.3-1.8,2.3c0.6,0.9,2.5,0,2.4,1.5
			c-0.1,1.3-1.8,0.6-2.5,1.4c0.2,1.1,2.3,0.9,1.9,2.2c-0.5,1.5-2-0.1-2.9,0.7c-0.2,1.1,1.9,1.6,0.9,2.8c-0.9,1-1.7-0.7-2.8-0.6
			c-0.7,1,1.4,2.4-0.3,3.1c-1.2,0.5-1.2-1.5-2.3-1.5c-1,0.7,0.4,2.6-1.2,2.8c-1.2,0.1-0.7-1.6-1.7-2.1c-1.1,0.2-0.4,2.4-1.8,2.1
			s-0.4-2-1.2-2.8c-1.1,0-1.2,2.2-2.5,1.5s0.5-2,0-3.1c-1.1-0.2-1.9,1.6-2.9,0.5s0.9-1.6,0.9-2.6c-0.8-1-2.5,0.9-2.9-0.8
			c-0.2-1.1,1.3-1.1,1.8-1.9c0-0.1,0-0.3-0.1-0.3c-0.7-0.6-2.3,0-2.3-1.2c-0.1-1.6,1.8-0.7,2.5-1.5c-0.2-1.1-2.3-0.9-1.9-2.2
			c0.5-1.6,2,0.2,2.8-0.7c0.2-1-1.9-1.6-0.9-2.7s1.8,0.8,2.9,0.6c0.5-1-1.4-2.3,0.1-3.1c1.2-0.6,1.3,1.4,2.4,1.5
			c1-0.6-0.3-2.6,1.3-2.8c1.3-0.1,0.7,1.6,1.7,2.1c1.2-0.1,0.3-2.6,2-2.1c1.2,0.4,0.3,1.9,1,2.7c1.1,0,1.2-2.2,2.5-1.5
			c1.5,0.8-0.5,2,0,3.1c1.1,0.2,1.9-1.7,2.9-0.6S278.8,522.2,278.7,523.3L278.7,523.3z"/>
		<path class="st5" d="M182.6,520.6c1.7-1.1,3.5-1.8,5.4-2.2c2.4-0.5,4.7,0,6,2.2s2.9,3.4,5.6,2.5c0.2-0.1,0.4,0,0.6,0
			c0.2,0.1,0.4,0.1,0.6,0.2c-0.7,1.4-0.3,2.4,1.1,3.1c0.7,0.4,1.2,1.1,1.3,1.8c0.9,3.7,0.5,7.4-0.6,11.5c-0.4-2.2-0.7-4-1.1-5.8
			c-1.2-4.5-3.9-6.1-8.6-5c-1.5,0.4-3,1-4.3,1.8c-1,0.7-1.7,0.5-2.1-0.5s-0.4-1.7,0.6-2.2c0.6-0.3,1.1-0.5,1.7-0.7
			c1.4-0.6,2.3-1.5,2.2-3.1c-0.1-1.6-1.2-2.9-2.7-3.2C186.6,520.8,184.6,520.6,182.6,520.6L182.6,520.6z M115.4,521.5v-3.3
			c0-0.9-0.2-2.1,1.3-2c1.3,0,1.2,1.1,1.2,2c0,2.2,0.1,4.4,0,6.6c-0.1,1.3,0.3,1.8,1.7,1.7c2.2-0.1,4.5,0,6.8,0
			c0.9,0,1.7,0.1,1.8,1.2c0.1,1.3-0.9,1.3-1.8,1.3c-2.2,0-4.5,0.1-6.8,0c-1.2,0-1.7,0.3-1.6,1.6c0.1,2.3,0,4.6,0,7
			c0,0.9-0.1,1.7-1.3,1.7s-1.2-0.8-1.2-1.7c0-2.2-0.1-4.4,0-6.6c0.1-1.7-0.5-2.1-2.1-2c-2,0.1-4.1,0-6.2,0c-0.9,0-2.1,0.2-2.1-1.3
			s1.2-1.2,2.1-1.2c2,0,4-0.1,6,0s2.4-0.6,2.2-2.3C115.4,523.3,115.4,522.4,115.4,521.5L115.4,521.5z"/>
		<path class="st6" d="M39,522.9c-2,0.1-3.6-1.4-3.7-3.4c0,0,0-0.1,0-0.1c0.1-2,1.8-3.5,3.7-3.4c2,0,3.7,1.5,3.8,3.5
			C42.7,521.5,41,523,39,522.9z"/>
		<path class="st7" d="M168.5,548c0.4-1.5-0.1-2.8,0.6-4.3c0.4,1.8,0.5,3.6,0.3,5.5c-0.1,1-0.7,0.4-1.1-0.1c-0.8-1-1.5-2.1-2.4-3.3
			c-0.5,1.3,0.1,2.7-0.7,4.2c-0.5-1.8-0.6-3.6-0.3-5.5c0.1-0.9,0.8-0.3,1.1,0.1C166.8,545.5,167.5,546.5,168.5,548L168.5,548z"/>
		<path class="st8" d="M278.9,550.2c0.5-0.3,0.9,0.3,1.3,0.3s1.3,0.1,1.2-0.7s-0.7-0.2-1.1-0.2c-0.9-0.1-1.6-0.5-1.7-1.4
			c-0.4-1,0-2.1,0.8-2.7c0.8-0.4,1.8-0.4,2.6,0.1c0.7,1,0.2,2.3,0.3,3.5c0.1,0.9-0.1,1.7-1,2c-0.8,0.5-1.8,0.2-2.4-0.5L278.9,550.2
			L278.9,550.2z M123.4,550.3c0.7-0.4,0.9,0.1,1.3,0.1c0.6,0,1.4,0.2,1.4-0.7s-0.7-0.1-1.1-0.2c-0.9,0-1.6-0.6-1.7-1.5
			c-0.4-1,0-2.1,0.8-2.7c0.9-0.6,1.8,0.2,2.7,0.1c0.3,0,0.2,4.7-0.2,5.2C125.5,551.6,124.5,551.5,123.4,550.3L123.4,550.3z"/>
		<path class="st9" d="M43.9,546.5c0.9,0.3,2.1-0.7,2.2,0.8c0.1,1.1-0.7,2.1-1.8,2.2c-0.1,0-0.1,0-0.2,0c-1.3,0.3-2.7-0.6-3-1.9
			c0-0.1,0-0.1,0-0.2c-0.5-1.5,0.2-3.1,1.7-3.7c1.4-0.4,2.3,0,2.9,1.5c-0.5,0.3-0.7-0.2-1-0.4c-0.7-0.4-1.4-0.7-2.1-0.2
			c-0.7,0.6-1.1,1.5-0.9,2.4c0,0.9,0.6,1.6,1.4,1.8c0.8,0.3,1.6-0.1,1.9-0.8C45.6,546.8,44.1,547.5,43.9,546.5z"/>
		<path class="st10" d="M255.3,548.2c0.3-0.2,0.7-0.1,0.9,0.2c0.8,0.6,1.8,0.9,2.3,0c0.5-1.1-0.7-1.2-1.4-1.4
			c-0.9-0.3-1.7-0.7-1.5-1.8c0.1-0.8,0.7-1.4,1.5-1.4c1.2-0.1,1.7,0.1,2.1,1.4c-0.5,0.2-0.7-0.3-1-0.5c-0.7-0.4-1.4-0.3-1.7,0.4
			s0.5,1,1,1.2c1,0.3,2.1,0.5,2.1,1.8c0,0.8-0.6,1.5-1.4,1.5c0,0,0,0,0,0C257,549.7,255.8,549.8,255.3,548.2L255.3,548.2z"/>
		<path class="st11" d="M217.8,543.7c-0.1,1.3-0.1,2.7,0,4c0.2,1.6-0.7,1.7-1.8,1.8c-0.9,0.2-1.8-0.4-2-1.3c0-0.2,0-0.3,0-0.5
			c-0.1-1.1,0-2.6,1.4-2.5s1.7-0.7,1.9-1.8C217.4,543.6,217.6,543.6,217.8,543.7L217.8,543.7z"/>
		<path class="st12" d="M193.8,548c0.8,0.4,1.2,0.7,1.7,0.9c0.6,0.3,1.3,0.1,1.6-0.5c0,0,0,0,0,0c0.3-0.8-0.4-1-1-1.2
			c-0.1,0-0.1,0-0.2-0.1c-0.9-0.4-1.9-0.5-2-1.8c0-0.6,0.4-1.2,1-1.4c1.1-0.3,2.2-0.3,2.8,0.9c-0.4,0.6-0.7,0.2-1,0
			c-0.7-0.6-1.6-0.5-1.9,0.3s0.6,1,1.2,1.2c0.9,0.3,1.9,0.5,1.9,1.8c0,0.8-0.6,1.5-1.4,1.5C195.4,549.8,194.3,549.8,193.8,548
			L193.8,548z"/>
		<path class="st8" d="M170.7,546c1.1-1,2.1-1.4,3-0.4c0.8,1,0.9,2.3,0.4,3.4c-0.3,0.6-1.6,0.5-2.5,0.4c-0.6-0.1-1-0.6-0.9-1.2
			c0-0.7,0.5-1,1.1-1.2s1.7,0.4,1.4-0.7c-0.2-0.9-1.1-0.3-1.7-0.1C171.4,546.2,171.2,546.1,170.7,546z"/>
		<path class="st11" d="M110,545.7c1.3-0.8,2.9-0.9,4.2-0.3c1.6,0.6,0.7,2.5,0.7,4.2c-1-0.8-0.6-1.7-0.7-2.4s0-1.3-0.9-1.3
			c-0.7,0-0.7,0.7-0.8,1.2c-0.1,0.7,0.2,1.5-0.4,2.3c-0.7-0.7-0.4-1.5-0.4-2.2c-0.1-1-0.4-1.6-1.5-1.3C110,546,110,545.9,110,545.7z
			"/>
		<path class="st13" d="M207.5,545.4c0.3,1.3,0.7,2.8-0.2,3.9c-0.8,0.5-1.8,0.5-2.6,0c-1.3-1.1-0.3-2.6-0.7-4.3
			c1.3,0.9,0.8,1.7,0.9,2.5c0.1,0.6,0,1.3,0.9,1.3s1-0.6,1.1-1.2v-2.2C207.2,545.3,207.4,545.3,207.5,545.4z M178.4,544.8
			c1.2,1.1,0.8,2,0.9,2.7c0.1,0.5,0,1.1,0.8,1.2s1.1-0.4,1.2-1.1c0.1-0.8,0.2-1.6,0.3-2.3c0.7,1.2,0.8,2.7,0.2,3.9
			c-0.8,0.5-1.8,0.5-2.6,0.1C177.8,548.3,178.7,546.8,178.4,544.8L178.4,544.8z"/>
		<path class="st10" d="M189.9,548.7c-0.9,1.2-1.9,1.4-2.9,0.4c-0.9-0.8-1-2.2-0.2-3.1c0.1-0.1,0.1-0.1,0.2-0.2
			c0.6-0.7,1.7-0.8,2.4-0.2c0,0,0.1,0.1,0.1,0.1c0.4,0.3,0.6,0.9,0.5,1.4c-0.1,0.5-0.6,0.4-1,0.5c-0.6,0.1-1.2-0.3-1.6,0.3
			c-0.1,0.1,0.1,0.5,0.3,0.7c0.6,0.7,1.2,0.3,1.8-0.1L189.9,548.7L189.9,548.7z"/>
		<path class="st11" d="M121.7,549.4c-0.6-0.8-0.3-1.6-0.5-2.5c0-0.5-0.4-0.9-0.9-1c-0.5-0.1-1,0.3-1.1,0.9c0,0,0,0.1,0,0.1
			c-0.2,0.8,0.2,1.7-0.5,2.8c-0.4-1.4-0.5-2.9-0.2-4.3c0.9,0.2,1.9-0.7,2.7,0C122.5,546.5,122,548,121.7,549.4z"/>
		<path class="st14" d="M51.2,547.4c-0.1,1.1-0.5,2.1-1.9,2.1s-2.1-0.8-2.1-2.2s0.6-2.2,1.9-2.2S51,546,51.2,547.4L51.2,547.4z"/>
		<path class="st15" d="M34.4,548.5c-0.9,1.3-1.8,1.4-2.7,0.9c-0.8-0.4-1.3-1.4-1-2.3c0-0.9,0.6-1.6,1.4-1.8
			c0.7-0.3,1.4-0.1,1.8,0.5c0.4,0.4,0.6,1,0.4,1.5c-0.2,0.6-0.8,0.3-1.2,0.4s-1.1-0.3-1.4,0.3c-0.1,0.1,0.1,0.5,0.3,0.7
			c0.5,0.6,1.1,0.4,1.6,0C33.7,548.5,33.8,548.5,34.4,548.5L34.4,548.5z"/>
		<path class="st11" d="M212.3,549.4c-0.6-0.8-0.3-1.6-0.5-2.5c0-0.6-0.4-1-1-1c0,0-0.1,0-0.1,0c-0.6,0-0.8,0.4-0.9,0.9
			c-0.2,0.8,0.3,1.7-0.5,2.7c-0.4-1.4-0.5-2.8-0.2-4.2c1,0.2,2-0.8,2.9,0.1C213.1,546.7,212.7,548,212.3,549.4z M277.1,549.8
			c-0.4-0.7-0.5-1.4-0.5-2.2c0-0.8,0-1.6-1.1-1.6c-0.9,0-0.9,0.8-1,1.5s0.2,1.3-0.5,2.1c-0.5-1.3-0.6-2.8-0.1-4.1
			c0-0.1,1.8-0.7,2.6-0.1C277.9,546.5,277.5,547.9,277.1,549.8L277.1,549.8z"/>
		<path class="st12" d="M264,548.5c-0.4,0.9-1.5,1.4-2.4,1c-0.1,0-0.1-0.1-0.2-0.1c-1-0.5-1-1.5-0.9-2.5c0.1-0.8,0.7-1.5,1.5-1.7
			c0.8-0.2,1.7,0.3,1.9,1.1c0.3,0.6,0.4,1.1-0.6,1.3c-0.7,0.1-2-0.6-1.9,0.7C261.7,549.7,263,548.5,264,548.5z"/>
		<path class="st10" d="M202.9,547.3c0,1.2-0.4,2.2-1.8,2.2s-1.9-0.7-2-2s0.5-2.3,1.9-2.4C202.2,545.1,202.9,546,202.9,547.3
			L202.9,547.3z"/>
		<path class="st16" d="M105.8,544.1c-1.2,0.4-1.9,0.9-1.8,2.2c0.2,1.1,0.1,2.3-0.3,3.3c-1.5-1.8,1-4.7-2.7-5.7
			C102.5,543.6,104.2,543.7,105.8,544.1z M128.4,548.6c0.6-0.4,0.8,0.1,1.2,0.2s0.8,0.1,1-0.3c0.3-0.6-0.3-0.6-0.6-0.8
			c-0.8-0.4-2.1-0.7-1.3-1.9c0.8-1.2,1.8-0.7,2.8,0.1c-0.4,0.7-0.7,0.1-1.1,0.1s-0.9-0.1-1,0.4s0.4,0.6,0.8,0.7
			c0.7,0.2,1.5,0.4,1.4,1.4c0,0.6-0.4,1-1,1.1C129.7,549.6,128.8,549.7,128.4,548.6L128.4,548.6z M222.2,545.9c-0.5,0.6-0.9,0-1.2,0
			s-0.9,0-1,0.5s0.4,0.5,0.7,0.6c0.7,0.2,1.5,0.3,1.6,1.3c0,0.6-0.4,1.1-0.9,1.2c-0.8,0.1-1.8,0.3-2.2-0.8c0.4-0.6,0.7,0,1,0.1
			c0.5,0.2,1,0.2,1.2-0.4s-0.4-0.6-0.7-0.8c-0.7-0.3-1.5-0.5-1.4-1.5c0-0.4,0.4-0.7,0.8-0.9C220.8,544.9,221.5,545.3,222.2,545.9
			L222.2,545.9z M283.8,548.6c0.6-0.4,0.8,0.1,1.2,0.2s0.8,0.1,1-0.3c0.3-0.6-0.3-0.6-0.6-0.8c-0.8-0.4-2.1-0.7-1.3-1.9
			s1.8-0.7,2.8,0c-0.5,0.7-0.8,0.1-1.1,0.1s-0.9-0.1-1,0.4s0.4,0.6,0.8,0.7c0.7,0.2,1.5,0.4,1.4,1.4c0,0.6-0.4,1-1,1.1
			C285.1,549.6,284.2,549.8,283.8,548.6L283.8,548.6z"/>
		<path class="st17" d="M29.7,549.6h-2c-0.9,0.1-1.4-0.2-1.3-1.2c0.1-1.5,0-2.9,0-4.5c1.2,0.3,0.8,1,0.8,1.5
			C27.4,548.3,27.2,548.3,29.7,549.6z"/>
		<path class="st18" d="M36.1,544.2c2.3,1.3-1.1,3.9,1.5,5c-0.7,0.4-1.5,0.3-1.5-0.2C36.1,547.4,34.8,545.8,36.1,544.2z"/>
		<path class="st19" d="M267.4,549.5c-1.2,0.2-1.5-0.3-1.6-1.1s0.4-1.8-0.5-2.7c-0.4-0.4,0.4-0.7,0.6-1.1s0.6-0.2,0.7,0.1
			s1.1,0.4,0.4,1.2C266.2,547,266.6,548.2,267.4,549.5z"/>
		<path class="st20" d="M176.1,544.3c1.3,0.5,0.7,1.4,0.5,2.3c-0.4,1.1,0.1,2.4,1.2,2.9C175.6,549.1,175,546,176.1,544.3z
			 M269.1,544.1c2.3,1.4-1.1,3.9,1.5,5.2C268.8,549.2,268.1,546.4,269.1,544.1L269.1,544.1z"/>
		<path class="st21" d="M183.9,549.8c-1-3.9-0.8-4.4,2.5-4.4C183.6,546.1,184.7,548.2,183.9,549.8z"/>
		<path class="st22" d="M110.2,546c-0.7,1-0.1,2.3-0.8,3.7c-0.6-1.3-0.7-2.8-0.3-4.1c0.2-0.7,0.6,0,0.9,0.1
			C110.1,545.8,110.2,545.9,110.2,546z"/>
		<path class="st16" d="M272.1,549.4c-0.5-1.5-0.6-3.1-0.1-4.6C272.6,546.2,272.6,547.8,272.1,549.4z M116.8,549.4
			c-0.5-1.3-0.5-2.7-0.1-4C117.2,546.6,117.3,548.1,116.8,549.4z M107.2,545.4c0.6,1.5,0.6,3.1,0.1,4.6
			C106.7,548.5,106.7,546.8,107.2,545.4L107.2,545.4z"/>
		<path class="st0" d="M155.1,106.8c41,0.1,74.1,33.3,74.1,74.3c0,0,0,0,0,0c0,42.9-35.4,75-74.3,74.9
			c-40.3-0.1-74.5-33.9-74.4-75.1C80.6,142,112.2,106.9,155.1,106.8L155.1,106.8z"/>
		<path class="st23" d="M42.3,528.7c1.6,1.8,2.8,3.1,4.1,4.5c-4.1,1.9-4.1,1.9-4.1-2.2V528.7z"/>
		<path class="st24" d="M36.2,534.5l-3.9-1.1c1.1-1.7,2.4-3.2,3.9-4.5V534.5z"/>
		<path class="st25" d="M267.4,522.1c0.9,1.6,1.7,3.2,2.6,4.8c0.4,0.6,0.2,1.1-0.1,1.7l-1.5,2.7c-1.2,2.2-1.6,2.2-2.9,0.2
			c-2.1-3.1-1.3-7.3,1.8-9.4C267.3,522.2,267.4,522.1,267.4,522.1z M274.4,527c-0.9-0.2-2.3,0.5-3-0.3c-1.1-1.5-2-3.1-2.6-4.8
			c-0.4-0.9,0.6-0.8,1-0.9c3.3-0.8,6.6,0.9,7.9,4c0.6,1.5,0.4,2.2-1.4,2L274.4,527z M274.4,528.5h1c0.9,0.1,2.1-0.4,2.5,0.3
			c0.5,1-0.3,2.1-0.9,3c-1.5,2.2-4.1,3.3-6.8,2.9c-1.2-0.2-1.8-0.6-1-1.9c0.3-0.4,0.6-0.9,0.8-1.4
			C270.8,529,272.2,527.7,274.4,528.5L274.4,528.5z M280.6,545.9c0.9,0.1,1.1,0.7,1.1,1.4s-0.2,1.4-1.1,1.4s-1.1-0.8-1.1-1.4
			c-0.2-0.6,0.2-1.2,0.8-1.4C280.3,545.9,280.4,545.9,280.6,545.9L280.6,545.9z M125,548.8c-0.9-0.1-1-0.9-0.9-1.5s0.3-1.4,1.2-1.3
			s1,0.8,1,1.5c0.1,0.6-0.4,1.2-1,1.3C125.2,548.8,125,548.8,125,548.8L125,548.8z"/>
		<path class="st26" d="M217,547.4c0,0.8-0.2,1.4-1,1.5s-1.3-0.7-1.3-1.4s0.3-1.5,1.2-1.5C216.8,545.8,216.9,546.6,217,547.4z"/>
		<path class="st27" d="M173.5,548c-0.2,0.5-0.7,0.9-1.2,0.8c-0.3,0-0.7-0.3-0.5-0.7s0.6-0.6,1.1-0.6
			C173.1,547.5,173.5,547.5,173.5,548L173.5,548z"/>
		<path class="st28" d="M188.3,545.8c0.4,0,0.8,0.1,0.8,0.6s-0.5,0.6-0.8,0.5s-0.9,0.2-0.9-0.4C187.4,546.1,187.8,545.9,188.3,545.8
			L188.3,545.8z"/>
		<path class="st29" d="M49.1,549c-0.7,0-1.2-0.6-1.2-1.3c0-0.1,0-0.2,0-0.2c0-0.7,0.2-1.4,1-1.5c1-0.1,1.3,0.6,1.4,1.4
			C50.4,548.2,49.9,548.9,49.1,549z"/>
		<path class="st30" d="M31.5,546.9c0.3-1.1,0.9-1.2,1.6-0.9c0.2,0.1,0.4,0.6,0.3,0.7C32.9,547.3,32.2,547,31.5,546.9z"/>
		<path class="st28" d="M263.3,546.6c-0.3,0.6-0.8,0.4-1.2,0.4s-0.7-0.1-0.6-0.5c0.1-0.6,0.6-0.7,1.1-0.6S263.2,546.2,263.3,546.6
			L263.3,546.6z"/>
		<path class="st26" d="M202.1,547.5c0,0.8-0.3,1.4-1.1,1.4s-1.3-0.7-1.3-1.5s0.4-1.5,1.3-1.5S202,546.7,202.1,547.5z"/>
		<path class="st31" d="M156.1,152.1c15.8,0,28.5,13,28.7,29.2c0.2,15-14,29.3-29.3,29.1c-14.5-0.2-29-13.9-28.6-30
			C127.5,164.6,140.4,152.1,156.1,152.1L156.1,152.1z"/>
		<g id="Pin-Right">
			<path id="Battery" class="st32" d="M290,6.1h16.4c0.7,0,1.2,0.5,1.2,1.2v5.4c0,0.6-0.5,1.2-1.1,1.2c0,0-0.1,0-0.1,0H290
				c-0.7,0-1.2-0.5-1.2-1.2V7.3c-0.1-0.6,0.4-1.2,1-1.2C289.9,6.1,289.9,6.1,290,6.1z M308,8.6h0.6c0.3,0,0.6,0.3,0.6,0.6v1.7
				c0,0.3-0.3,0.6-0.6,0.6H308V8.6z M290,6.5c-0.4,0-0.8,0.3-0.8,0.8c0,0,0,0,0,0v5.4c0,0.4,0.3,0.8,0.8,0.8c0,0,0,0,0,0h16.4
				c0.4,0,0.8-0.3,0.8-0.8c0,0,0,0,0,0V7.3c0-0.4-0.3-0.8-0.8-0.8c0,0,0,0,0,0H290z M290,6.9h16.4c0.2,0,0.4,0.2,0.4,0.4v5.5
				c0,0.2-0.2,0.4-0.4,0.4H290c-0.2,0-0.4-0.2-0.4-0.4V7.3C289.6,7.1,289.8,6.9,290,6.9z"/>
			<text transform="matrix(1 0 0 1 260.93 14.42)" class="st32 st33 st34">100%</text>
		</g>
		<g id="_9:41-AM">
			<text transform="matrix(1 0 0 1 137.15 14.42)" class="st32 st33 st34">9:41</text>
			<text transform="matrix(1 0 0 1 158.97 14.42)" class="st32 st33 st34">AM</text>
		</g>
		<path id="Wi-Fi" class="st32" d="M45.7,11.8l-1.8,1.7l-1.8-1.7c0.9-1,2.4-1.1,3.4-0.2c0,0,0,0,0,0C45.5,11.7,45.6,11.8,45.7,11.8z
			 M47.5,10.1L46.6,11c-1.4-1.5-3.7-1.5-5.2-0.1c0,0,0,0,0,0L41.3,11l-1-0.9c2-2,5.2-2,7.2-0.1L47.5,10.1z M49.3,8.3l-0.9,0.9
			c-2.5-2.5-6.5-2.5-9,0c0,0,0,0,0,0l-0.9-0.9C41.5,5.4,46.3,5.4,49.3,8.3L49.3,8.3z"/>
		<path id="Mobile-Signal" class="st32" d="M7.2,12.3c-1.3,0-2.3-1-2.3-2.3s1-2.3,2.3-2.3c1.3,0,2.3,1,2.3,2.2c0,0,0,0.1,0,0.1
			C9.5,11.3,8.4,12.3,7.2,12.3z M13,12.3c-1.3,0-2.3-1-2.3-2.3s1-2.3,2.3-2.3c1.3,0,2.3,1,2.3,2.3C15.4,11.3,14.4,12.3,13,12.3
			C13.1,12.3,13,12.3,13,12.3L13,12.3z M18.9,12.3c-1.3,0-2.3-1-2.3-2.3s1-2.3,2.3-2.3c1.3,0,2.3,1,2.3,2.3
			C21.2,11.3,20.2,12.3,18.9,12.3C18.9,12.3,18.9,12.3,18.9,12.3L18.9,12.3z M24.7,12.3c-1.3,0-2.3-1-2.3-2.3c0-1.3,1-2.3,2.3-2.3
			c1.3,0,2.3,1,2.3,2.3c0,0,0,0,0,0C27,11.3,26,12.3,24.7,12.3C24.7,12.3,24.7,12.3,24.7,12.3L24.7,12.3z M30.6,12.3
			c-1.3,0-2.3-1.1-2.3-2.3s1.1-2.3,2.3-2.3c1.3,0,2.3,1,2.3,2.3c0,1.3-1,2.3-2.2,2.3C30.6,12.3,30.6,12.3,30.6,12.3L30.6,12.3z"/>
	</g>
</g>
</svg>
