<svg xmlns="http://www.w3.org/2000/svg" viewBox="0 0 593.8 1056"><defs><style>.cls-1{fill:#fff}.cls-2{fill:#fefefe}.cls-3{fill:#b1b1b1}.cls-4{fill:#ea5180}.cls-5{fill:#f2b5ca}.cls-6{fill:#ea5181}.cls-7{fill:#929292}.cls-8{fill:#919191}.cls-9{fill:#ea5281}.cls-10{fill:#9d9d9d}.cls-11{fill:#a3a3a3}.cls-12{fill:#eb648f}.cls-13{fill:#a1a1a1}.cls-14{fill:#a2a2a2}.cls-15{fill:#9e9e9e}.cls-16{fill:#a6a6a6}.cls-17{fill:#ec6993}.cls-18{fill:#eb6590}.cls-19{fill:#a0a0a0}.cls-20{fill:#a5a5a5}.cls-21{fill:#ec6d96}.cls-22{fill:#a7a7a7}.cls-23{fill:#ec7199}.cls-24{fill:#a4a4a4}.cls-25{fill:#b3b3b3}.cls-26{fill:#fdf6f9}.cls-27{fill:#fdfafb}.cls-28{fill:#fdfdfd}.cls-29{fill:#fafafa}.cls-30{fill:#f2f2f2}.cls-31{fill:#fbebf1}.cls-32{fill:#f3f3f3}.cls-33,.cls-34{fill:#f0a2be}.cls-34,.cls-36{isolation:isolate}.cls-35,.cls-36{fill:#030303}.cls-36{font-size:19.29px;font-family:ArialMT,Arial}.cls-37{letter-spacing:-.06em}</style></defs><title>Asset 1pink-main-screen</title><g id="Layer_2" data-name="Layer 2"><g id="Layer_1-2" data-name="Layer 1"><path class="cls-1" d="M75.5 1149.5q0-486.9-.1-973.8c0-3.3.8-3.8 3.9-3.8q293 .15 586 0c3.1 0 3.9.5 3.9 3.8q-.15 486.9-.1 973.8a5.08 5.08 0 0 1-3.7 1.1H83.1c-2.5 0-5.2.7-7.6-1.1z" transform="translate(-75.4 -171.9)"/><path class="cls-2" d="M669.1 1150.3c0 24.9 0 49.9.1 74.8 0 2.4-.5 2.8-2.8 2.8q-294-.15-588.1 0c-2.4 0-2.8-.5-2.8-2.8.1-24.9.1-49.9.1-74.8 1.4-.7 2.9-.4 4.3-.4H665c1.3 0 2.8-.3 4.1.4z" transform="translate(-75.4 -171.9)"/><path class="cls-3" d="M669.1 1150.3H75.5v-.8h593.6z" transform="translate(-75.4 -171.9)"/><path class="cls-4" d="M372.4 691.2c-96.2 0-174.2-77.9-174.2-174.1s78-174.2 174.2-174.1 174.1 78.1 174 174.3c0 96-78 173.9-174 173.9z" transform="translate(-75.4 -171.9)"/><path class="cls-5" d="M454.2 306.6c-18.7 0-37.4.3-56.2-.1-11.7-.3-21.4-5.1-26.8-16.3a21.37 21.37 0 0 1 3.3-23.5c3.5-3.9 7.4-7.1 12.4-8.9 1.5-.5 2.4-1.1 1.8-2.8-2.6-7.8-.7-14.9 3.2-21.8 4.5-7.8 11.5-12.2 19.8-14.7 16-4.8 30.3-1.8 42.3 10.4 1.5 1.5 3.2 3.2 3.7 5 1.4 4.9 3.8 3.7 7.2 2.3 16-6.6 31.5-5.9 46.2 3.7 5.2 3.4 9.1 7.9 10.1 14.4.5 3.3 3 4.2 5.4 5.6 12.8 7.5 18.4 21.9 8.6 35.1-4.4 6-10.7 9.2-17.8 10.8a45.79 45.79 0 0 1-9.8.8zM374.4 1044.2h21.8c8.9 0 14.2 5.3 14.2 14.2v41.1c0 8.7-5.5 14.3-14.3 14.3-14.8.1-29.5.1-44.3 0-8.7 0-14.2-5.6-14.2-14.4v-41.9a13.21 13.21 0 0 1 13.2-13.3h23.6z" transform="translate(-75.4 -171.9)"/><path class="cls-6" d="M150.3 1201.7c-4.4 0-8.7.1-13.1 0-3.9-.1-7.3-1.5-8.9-5.4-1.5-3.7.6-6.3 3.1-8.7 4.2-4 8.3-8.1 12.5-12.1 4.5-4.4 9.1-4.4 13.6.2 4 4 7.9 8.1 11.9 12.2 2.3 2.3 4.3 4.8 2.8 8.4-1.5 3.8-4.6 5.3-8.4 5.5-4.5 0-9-.1-13.5-.1z" transform="translate(-75.4 -171.9)"/><path class="cls-7" d="M578.4 1183.2c-1.2-1.8-4.9 0-4.8-3 .1-2.5 3.4-1.2 4.8-2.6-.2-2.3-4.8-1.6-3.5-4.7 1.1-2.6 3.7.7 5.5-1.2.4-1.8-3.7-2.9-1.8-5s3.5 1.5 5.6 1.1c1.1-2-2.6-4.5.2-5.9 2.3-1.2 2.5 2.7 4.6 2.8 1.9-1.2-.7-5 2.4-5.3 2.5-.3 1.4 3.4 3.4 4.1 2-.8.9-4.5 3.4-4.1 2.9.4.7 3.8 2.5 5.4 2 0 2.1-4.3 4.6-2.9 2.8 1.5-.9 3.9.1 6 2.1.5 3.7-3.2 5.6-1.1s-1.7 3.1-1.7 5.2c1.5 1.9 4.8-1.6 5.6 1.5.6 2.4-2.9 2.2-3.6 4.1 1.2 1.8 4.9 0 4.8 2.9-.1 2.5-3.4 1.3-4.8 2.6.3 2.2 4.4 1.7 3.6 4.3-.9 3.1-3.9-.3-5.6 1.4-.3 2 3.7 3.1 1.7 5.2-1.8 2-3.3-1.4-5.5-1-.9.8.2 1.7.4 2.6.2 1.1 1 2.3-.4 3.2-1.6 1-2-.5-2.8-1.2-.6-.6-1.1-1.5-2-1.7-2 1.4.7 5.1-2.5 5.5-2.4.3-1.3-3.2-3.4-4.1-2.3.1-.7 5-3.8 4-2.2-.7-.6-3.7-1.9-5.2-2.2 0-2.3 4.2-4.8 2.9-2.8-1.5 1-3.9-.1-6-2.1-.5-3.7 3.2-5.6 1s1.8-3.1 1.8-5.1c-1.5-1.7-4.5 1.4-5.5-1.2-1-2.8 3-2.5 3.5-4.5z" transform="translate(-75.4 -171.9)"/><path class="cls-8" d="M463.8 1203.2c-.8-4-1.2-7.4-2.1-10.7-2.4-8.7-7.6-11.6-16.4-9.5a22.81 22.81 0 0 0-8.3 3.6c-1.6 1.1-2.9 1.2-3.9-.7s-1.2-3.6 1.1-4.7c1.1-.5 2.2-.9 3.3-1.3 2.7-1.1 4.5-2.9 4.3-5.9-.2-3.3-2.3-5.3-5.3-6.1a45.24 45.24 0 0 0-11-1.2c4.6-2.7 9.4-5 14.9-4.5 3.9.3 6.5 2.7 8.3 6 1.7 3.1 3.8 4.8 7.7 3.5 1.4-.5 5.6-2.1 3.3 2.9-.5 1.1.9 1.8 1.8 2.3 3.2 2 4.4 5 4.5 8.7-.1 5.8 0 11.5-2.2 17.6zM296.3 1168.5v-6.3c0-1.8-.3-4.1 2.5-4 2.4.1 2.3 2.1 2.3 3.8 0 4.2.1 8.4 0 12.7-.1 2.5.6 3.5 3.3 3.4 4.3-.2 8.7 0 13.1-.1 1.7 0 3.4.1 3.5 2.3.1 2.5-1.7 2.5-3.6 2.5-4.4 0-8.7.1-13.1 0-2.4-.1-3.3.6-3.2 3.1.2 4.5 0 9 .1 13.4 0 1.7-.2 3.3-2.4 3.3s-2.4-1.6-2.4-3.3c0-4.2-.2-8.5.1-12.7.2-3.3-1-4-4-3.9-3.9.2-7.9.1-11.9 0-1.8 0-4.1.3-4-2.5s2.4-2.3 4.2-2.3a102.76 102.76 0 0 1 11.1.1c4 .4 5.1-1.2 4.6-4.8a18.34 18.34 0 0 1-.2-4.7z" transform="translate(-75.4 -171.9)"/><path class="cls-9" d="M150 1171.1c-4.2-.1-7.2-3-7.1-6.8a7.18 7.18 0 0 1 7.4-6.6c3.9.1 7.2 3.4 7.1 7s-3.3 6.4-7.4 6.4z" transform="translate(-75.4 -171.9)"/><path class="cls-10" d="M398.2 1219.2c.7-3-.2-5.4 1.2-8.5 1.2 4 .5 7.2.7 10.3 0 .5-.1 1.2-.7 1.2a2.39 2.39 0 0 1-1.3-.7c-1.6-2.1-3.1-4.2-4.9-6.7-.9 2.7.1 5.2-1.3 8.5-1-4.2-.6-7.4-.5-10.5.1-1.9 1.2-1.3 2-.3 1.4 1.8 2.9 4 4.8 6.7z" transform="translate(-75.4 -171.9)"/><path class="cls-11" d="M609.4 1223.5c1-.6 1.6.6 2.6.5s2.5.2 2.4-1.3c-.1-1.8-1.4-.3-2.1-.4a3.44 3.44 0 0 1-3.4-2.8c-.4-2-.4-3.9 1.6-5.3 1.8-1.2 4.8-.2 5.1.2 1.3 2 .4 4.5.6 6.8.1 1.7-.2 3.2-1.9 3.9a3.7 3.7 0 0 1-4.6-1c-.2 0-.2-.3-.3-.6zM311.3 1223.3a28.79 28.79 0 0 0 4.1.6c.8 0 1.6-.4 1.5-1.4-.2-1.2-.9-.4-1.5-.3-2 .3-3.4-.5-3.9-2.4s-.5-3.6 1-5.1c1.8-1.8 4.7-.8 5.4-.2 1.9 1.7.5 4.6.8 7 .2 1.7-.3 3.2-2.1 3.8-2 .6-3.7.3-5.3-2z" transform="translate(-75.4 -171.9)"/><path class="cls-12" d="M163.8 1214.8c-2.8-1.4-4.7-3.8-7-1.4a4.52 4.52 0 0 0-.7 5.5 3.59 3.59 0 0 0 1.5 1.7 2.88 2.88 0 0 0 4.2-.8c1.6-2.4-1.5-1.6-2.1-2.9 1.6-.2 3.4-1 4.1.7s-.5 3.3-2 4.3a5.17 5.17 0 0 1-6.9-1.8c-1.6-2.8-.7-7.1 1.7-8.5s5-.5 7.2 3.2z" transform="translate(-75.4 -171.9)"/><path class="cls-13" d="M564.7 1219.3l1.2.9c1.6 1.1 3.5 1.6 4.4-.3s-1.3-2.1-2.7-2.5c-1.6-.6-3.3-1.2-3.2-3.4a2.65 2.65 0 0 1 2.7-2.8c1.9-.1 4-.2 4.6 2.3-1.2.9-1.5-.2-2.1-.5-1.3-.7-2.8-.8-3.5.5-.9 1.8.9 2.2 2.1 2.5 2 .5 4 1.1 3.9 3.6a2.86 2.86 0 0 1-2.8 2.8c-2.1.2-4.3.2-4.6-3.1z" transform="translate(-75.4 -171.9)"/><path class="cls-14" d="M492.7 1211.1v7.8a3.73 3.73 0 0 1-5.3 3.4c-1.8-.8-2.2-2.5-2.1-4.3s.8-4 2.6-3.7c2.8.3 3.4-1 3.7-3.4a2 2 0 0 1 1.1.2z" transform="translate(-75.4 -171.9)"/><path class="cls-15" d="M454.8 1214.2c-1.4-.7-1.9-.8-2.3-1.1-1.4-1.1-3-1.3-3.7.2-1 2 1.2 2.2 2.4 2.6 1.7.7 3.7 1.1 3.5 3.6a3 3 0 0 1-2.9 2.8c-2.1.3-4.2.3-4.9-2.4 1.2-.7 1.4.5 2 .8 1.4.6 3.1.9 3.9-.6 1-2-1-2.2-2.3-2.7-1.7-.7-3.7-1.1-3.6-3.6a2.67 2.67 0 0 1 2.2-2.5c2-.4 4-.5 5.7 2.9z" transform="translate(-75.4 -171.9)"/><path class="cls-11" d="M402.2 1216c2.4-2.2 4.3-3 6.1-1.1s1.6 4.7.7 6.7c-.5 1.2-3.1 1-4.9.8a2 2 0 0 1-1.7-2.3c.1-1.6 1.1-2.1 2.6-2.5.9-.2 2.9.8 2.3-1.3-.4-1.5-1.9-.9-3-.4a8.48 8.48 0 0 0-2.1.1z" transform="translate(-75.4 -171.9)"/><path class="cls-14" d="M286.1 1214.6c2.3-1.5 4.8.7 7.3-.6.8-.4 2 1.1 2.1 2.4.1 1.9 0 3.8 0 6.7-2-2.2-1.3-3.8-1.5-5.2-.1-1-.1-2.3-1.5-2.4-1.7-.1-1.7 1.3-1.8 2.5-.2 1.4.5 2.9-.9 4.4-1-1.4-.6-2.8-.7-4.1-.1-1.6-.2-3-2.3-3-.6.3-.7-.1-.7-.7z" transform="translate(-75.4 -171.9)"/><path class="cls-16" d="M423.6 1213.8a9.39 9.39 0 0 1 .3 8c-.2.5-3.5 1.4-5 .3-2.9-2.1-1-5.2-1.1-7.8 1.9 1.2 1 3 1.2 4.6.2.9.2 1.9 1.5 2a2 2 0 0 0 2.3-1.7c.4-1.7-.4-3.5.8-5.4z" transform="translate(-75.4 -171.9)"/><path class="cls-17" d="M165.7 1218.2c.1-2.5 1.3-4.3 3.8-4.4 2.8-.1 4 1.9 4 4.4s-1.3 4.3-4.1 4.2-3.4-2-3.7-4.2z" transform="translate(-75.4 -171.9)"/><path class="cls-16" d="M472.7 1213.9a9.39 9.39 0 0 1 .3 8c-.2.5-3.5 1.4-5 .3-2.8-2.1-1.2-5.1-1.3-8.4 2 1.8 1.1 3.6 1.4 5.2.2.9.2 1.9 1.5 2a2 2 0 0 0 2.3-1.7c.4-1.8-.4-3.5.8-5.4z" transform="translate(-75.4 -171.9)"/><path class="cls-18" d="M140.6 1220.4c-1.3 2.4-3.3 2.7-5.1 1.2-2.1-1.8-2.1-4.2-.4-6.4 1.3-1.7 3.1-1.9 4.9-.6a3.1 3.1 0 0 1 1.3 2.7c-.1 1.1-.9 1-1.7 1.2-1.2.2-2.7-.7-3.6.7-.1.2.3 1 .6 1.3 1.4 1.4 2.7.2 4-.1z" transform="translate(-75.4 -171.9)"/><path class="cls-14" d="M605.8 1222.8c-1.2-2.3-.6-4-.9-5.6-.2-1.2-.8-2-2.1-1.9-1.1.1-1.5.8-1.7 1.8-.4 1.6.5 3.4-1 5.3a16 16 0 0 1-.3-8.1c1.9.3 4-1.5 5.5.3 2 2.3 1.5 4.9.5 8.2zM308.4 1222c-1.5-1.1-.9-2.4-1-3.6s-.1-2.9-1.8-3c-2-.1-2 1.6-2.1 3.1-.1 1.2.3 2.5-1 4.2a18.49 18.49 0 0 1-.2-8.4c1.8.4 3.6-1.3 5.3.1 2.4 2.2 1.1 5 .8 7.6z" transform="translate(-75.4 -171.9)"/><path class="cls-19" d="M439.2 1220.7c-1.4 2.1-3.4 2.3-5.2.9-2.1-1.7-2.2-4.1-.6-6.3a3.23 3.23 0 0 1 4.8-.8 2.68 2.68 0 0 1 1.3 3c-.3 1.3-1.5.8-2.3.9-1 .2-2.2-.6-2.8.6-.2.3.2 1 .5 1.3 1 1.1 2.1.8 3.1 0a.94.94 0 0 1 1.2.4z" transform="translate(-75.4 -171.9)"/><path class="cls-14" d="M476.2 1222.7c-.1-3.3-1.2-6.1.6-8.3.4-.4 3.2-1.4 4.7 0 2.4 2.2 1.5 5 1.1 8.2-1.7-1.6-1-3.2-1.1-4.6-.1-1.2-.3-2.5-1.8-2.6-1.8-.1-2 1.3-2.1 2.7s.5 2.8-1.4 4.6z" transform="translate(-75.4 -171.9)"/><path class="cls-15" d="M581 1220.6c-2.8 2.3-5 2.6-6.5.1-1.2-2.1-1.3-4.6 1.2-6.2 2.1-1.3 3.7-.4 4.9 1.5.8 1.4.8 2.3-1.3 2.6-1.2.2-3.9-1.3-3.4 1.5.6 2.5 2.9.2 5.1.5z" transform="translate(-75.4 -171.9)"/><path class="cls-19" d="M464.2 1219.1c-.1 1.7-1.1 3.3-3.8 3.3s-3.6-1.8-3.6-4.2 1.1-4.2 3.6-4.3c2.8-.1 3.9 1.8 3.8 5.2z" transform="translate(-75.4 -171.9)"/><path class="cls-20" d="M269.9 1211.4h7.7c-6.2 1.8-1.7 7.5-3.9 11-2.8-3.2 2-8.9-3.8-11zM624.8 1215.4c-1.2.8-1.6.1-2.2 0-.8-.1-1.7-.2-2 .7s.8 1.2 1.5 1.4c1.4.5 2.9.8 2.8 2.7a2.25 2.25 0 0 1-2 2.1c-1.6.2-3.4.4-4.1-1.6 1.1-.9 1.6.2 2.2.4.9.3 1.6.2 2-.6.5-1.1-.6-1.2-1.2-1.6-1.6-.8-4.1-1.3-2.5-3.7 1.4-2.2 3.6-1.6 5.5.2zM501.3 1215.4c-1.1 1-1.6-.1-2.4-.1s-1.5 0-1.7.6c-.4 1.1.6 1.3 1.3 1.5 2 .7 4.3 1.6 2.3 4-1.6 1.9-3.8 1.3-5.8-.6 1.4-1.1 2 .1 2.7.3a1.49 1.49 0 0 0 1.9-.9c.2-.8-.6-1-1.2-1.3-1.6-.8-3.9-1.1-2.8-3.7.8-1.6 2.8-1.5 5.7.2zM327.3 1215.4c-1.4.8-1.9-.2-2.7-.2s-1.4.1-1.6.9.6 1.1 1.2 1.3c1.5.5 3.2.7 3.1 2.9 0 1.1-.8 1.6-1.7 2-1.3.5-2.6.1-4.4-1.5.7-1.2 1.3-.2 1.9.1 1 .5 1.9.5 2.3-.5s-.7-1.2-1.3-1.5c-1.6-.8-4.1-1.4-2.4-3.8 1.5-2.1 3.6-1.4 5.6.3z" transform="translate(-75.4 -171.9)"/><path class="cls-21" d="M132.3 1221.8c-5.9 1.5-6.3 1.3-6.2-4.5 0-1.9-.4-3.9.5-6 1.9 1.6 1.1 3.7 1 5.4 0 2.7.1 4.8 3.7 4.2a.91.91 0 0 1 1 .9z" transform="translate(-75.4 -171.9)"/><path class="cls-22" d="M587.4 1222.1c-2.3.5-2.8-.5-3-2-.3-1.7.6-3.6-1-5.2-.7-.7.7-1.5 1.2-2.2s1.2-.1 1.5.5 1.9.8.8 2.1c-2 2.2-1.1 4.5.5 6.8z" transform="translate(-75.4 -171.9)"/><path class="cls-23" d="M147.4 1222c-1.6.5-2.5.2-2.9-.7-.9-2.2.4-4.9-1.4-7-.1-.2.9-1.6 1.6-2s1 .5 1.3 1.1 1.7.6.6 2c-1.8 2.1-1.1 4.5.8 6.6z" transform="translate(-75.4 -171.9)"/><path class="cls-13" d="M593.3 1222.1c-2.3.4-3-.5-3.2-1.8-.3-1.9.2-3.9-.7-5.8-.2-.4.4-1.5 1-2 .7-.7 1.1.1 1.4.7s1.7.7.7 2.1c-1.8 2.2-1.3 4.6.8 6.8zM415.1 1222c-2.3.5-2.9-.5-3.1-2-.2-1.8.2-3.6-.6-5.4-.2-.5.5-1.7 1.1-2.3.4-.4.9.2 1.1.7.2.8 1.9.8.6 2.4-1.6 2-.9 4.5.9 6.6z" transform="translate(-75.4 -171.9)"/><path class="cls-24" d="M431.6 1214.6c-4.8.9-2.2 5.1-3.6 7.9-2.6-6-1.5-8.4 3.6-7.9z" transform="translate(-75.4 -171.9)"/><path class="cls-25" d="M286.1 1214.6c.3.2.5.5.8.7-2.2 1.8-.9 4.7-2.2 7.5a11.5 11.5 0 0 1-.5-8.1c.2-1.2 1.2-.3 1.9-.1z" transform="translate(-75.4 -171.9)"/><path class="cls-20" d="M298.7 1214.2a10.05 10.05 0 0 1-.1 7.8 11.61 11.61 0 0 1 .1-7.8zM280.6 1222c-1.3-2.6-.8-5.2-.3-7.8 1.5 2.5.9 5.2.3 7.8zM596.5 1222c-1.3-2.6-1.2-5.2-.4-8.7 1.7 3.4.7 6.1.4 8.7z" transform="translate(-75.4 -171.9)"/><path class="cls-2" d="M514.8 517c.1 78.7-63.8 142.5-142.4 142.5S229.9 595.6 230 517s64-142.4 142.6-142.3c78.4.1 142.1 63.8 142.2 142.3z" transform="translate(-75.4 -171.9)"/><path class="cls-26" d="M137.2 1191.2c2.5-2.9 4.8-5.6 7.4-8.6.9 3.5.4 6.6.5 9.6 0 1.6-1.1 1.1-1.9.9-1.9-.5-3.7-1.2-6-1.9z" transform="translate(-75.4 -171.9)"/><path class="cls-27" d="M164.1 1190.8c-.2.3-.3.4-.3.5-7.2 3.1-7.7 2.5-6.6-7.6 2.9 1.9 4.8 4.7 6.9 7.1z" transform="translate(-75.4 -171.9)"/><path class="cls-28" d="M587.1 1191c-6.9-4.8-7.7-14.6-1.7-20.1 1.3-1.2 2.1-1.4 2.8.4 0 .1.1.2.2.4 5.3 9.3 5.3 9.7-1.3 19.3zM600.8 1179c-1.7-.3-4.5 1-5.8-.7a52.33 52.33 0 0 1-5.1-9.3c-.8-1.7 1.1-1.5 1.8-1.7 5.7-1.7 12.6 1.7 15 7.3 1.5 3.6 1 4.3-2.9 4.3a27.23 27.23 0 0 1-3 .1zM600.8 1181.8h1.1c1.9.3 4.8-1 5.5.7.9 2.3-.9 4.7-2.6 6.6a13.09 13.09 0 0 1-12 4.6c-2.4-.3-3.8-1.2-2.1-3.8.5-.8.9-1.6 1.3-2.4 1.8-4.4 4.3-7.2 8.8-5.7zM614.6 1217.8c0 1.7-.4 2.9-2.2 3s-2.2-1.4-2.2-2.7.4-2.7 2.2-2.8 2.1 1.3 2.2 2.5zM314.8 1215.3c1.9.1 2.2 1.4 2.2 2.8s-.5 2.6-2.2 2.7c-1.9.1-2.1-1.5-2.1-2.7 0-1.4.5-2.7 2.1-2.8z" transform="translate(-75.4 -171.9)"/><path class="cls-29" d="M491.1 1218c.1 1.6-.2 3-2.1 3.1s-2.4-1.4-2.5-2.9.7-2.8 2.4-2.9c1.9 0 2.2 1.3 2.2 2.7z" transform="translate(-75.4 -171.9)"/><path class="cls-30" d="M407.6 1219.5a2.33 2.33 0 0 1-2.4 1.6c-.7 0-1.3-.5-1-1.3.3-1 1.2-1.2 2.2-1.2.6-.1 1.3 0 1.2.9z" transform="translate(-75.4 -171.9)"/><path class="cls-27" d="M172 1217.9c-.1 1.7-.5 2.9-2.2 3-1.9.1-2.5-1.1-2.5-2.8 0-1.5.5-2.7 2.1-2.8 2-.1 2.3 1.4 2.6 2.6z" transform="translate(-75.4 -171.9)"/><path class="cls-31" d="M139.5 1216.7c-.3 1.2-1.4.8-2.2.8-.6 0-1.5.1-1.3-.8a1.67 1.67 0 0 1 2-1.4 1.34 1.34 0 0 1 1.5 1.4z" transform="translate(-75.4 -171.9)"/><path class="cls-32" d="M437.9 1216.6c-.3 1.3-1.3.9-2.1.9-.6 0-1.5.1-1.4-.8a1.57 1.57 0 0 1 1.9-1.4c.9 0 1.5.3 1.6 1.3zM579.5 1216.8c-.8 1.1-1.7.7-2.6.7-.7 0-1.3-.3-1-1.2.3-1.2 1.3-1.1 2.2-1s1.1.9 1.4 1.5z" transform="translate(-75.4 -171.9)"/><path class="cls-29" d="M462.7 1218c.1 1.6-.3 3-2.2 3s-2.4-1.4-2.4-2.9.7-2.8 2.5-2.8 2 1.4 2.1 2.7z" transform="translate(-75.4 -171.9)"/><path class="cls-33" d="M318.5 517c0-30.8 24.8-55.3 56-55.3 29.7 0 55.2 25.3 54.9 56.1-.3 29.5-25.4 55.2-56.3 54.8-29.9-.4-54.6-25.2-54.6-55.6z" transform="translate(-75.4 -171.9)"/><path id="Battery" class="cls-35" d="M624.9 179.1h31.4a2.43 2.43 0 0 1 2.4 2.4V192a2.43 2.43 0 0 1-2.4 2.4h-31.4a2.43 2.43 0 0 1-2.4-2.4v-10.4a2.46 2.46 0 0 1 2.4-2.5zm34.6 4.8h1.2a1.16 1.16 0 0 1 1.2 1.2v3.2a1.16 1.16 0 0 1-1.2 1.2h-1.2zm-34.5-4a1.58 1.58 0 0 0-1.6 1.6V192a1.58 1.58 0 0 0 1.6 1.6h31.3a1.58 1.58 0 0 0 1.6-1.6v-10.4a1.58 1.58 0 0 0-1.6-1.6H625zm0 .8h31.3a.86.86 0 0 1 .8.8V192a.86.86 0 0 1-.8.8H625a.86.86 0 0 1-.8-.8v-10.5a.79.79 0 0 1 .8-.8z" transform="translate(-75.4 -171.9)"/><text class="cls-36" transform="translate(493.87 23.3)">100%</text><text class="cls-36" transform="translate(256.61 23.3)">9:41<tspan class="cls-37" x="37.54" y="0"> </tspan><tspan x="41.84" y="0">AM</tspan></text><path id="Wi-Fi" class="cls-35" d="M164.5 190.3l-3.4 3.3-3.5-3.4a4.68 4.68 0 0 1 3.4-1.5 4.47 4.47 0 0 1 3.5 1.6zm3.5-3.4l-1.8 1.7a7 7 0 0 0-5.2-2.3 7.09 7.09 0 0 0-5.2 2.2l-1.8-1.7a9.5 9.5 0 0 1 6.9-2.9 9.7 9.7 0 0 1 7.1 3zm3.5-3.4l-1.7 1.7a12.19 12.19 0 0 0-17.4-.1l-1.8-1.7a14.73 14.73 0 0 1 20.9.1z" transform="translate(-75.4 -171.9)"/><path id="Mobile-Signal" class="cls-35" d="M89.8 191.2a4.4 4.4 0 1 1 4.4-4.4 4.37 4.37 0 0 1-4.4 4.4zm11.3 0a4.4 4.4 0 1 1 4.4-4.4 4.44 4.44 0 0 1-4.4 4.4zm11.3 0a4.4 4.4 0 1 1 4.4-4.4 4.44 4.44 0 0 1-4.4 4.4zm11.2 0a4.4 4.4 0 1 1 4.4-4.4 4.44 4.44 0 0 1-4.4 4.4zm11.3 0a4.4 4.4 0 1 1 4.4-4.4 4.44 4.44 0 0 1-4.4 4.4z" transform="translate(-75.4 -171.9)"/></g></g></svg>