<svg id="Layer_1" xmlns="http://www.w3.org/2000/svg" viewBox="0 0 432.3 769"><style>.st0{fill:#fefefe}.st1{fill:#2b2e3a}.st2{fill:#779ae0}.st3{fill:#49597c}.st4{fill:#779adf}.st5{fill:#909090}.st6{fill:#919191}.st7{fill:#7799de}.st8{fill:#818183}.st9{fill:#858687}.st10{fill:#828385}.st11{fill:#6f8ecd}.st12{fill:#828284}.st13{fill:#858587}.st14{fill:#808082}.st15{fill:#7c7d7f}.st16{fill:#838486}.st17{fill:#818284}.st18{fill:#6c8ac7}.st19{fill:#6d8cca}.st20{fill:#838485}.st21{fill:#7f7f81}.st22{fill:#7e7e81}.st23{fill:#6a87c3}.st24{fill:#6885bf}.st25{fill:#7d7e80}.st26{fill:#808183}.st27{fill:#818184}.st28{fill:#7f8082}.st29{fill:#727376}.st30{fill:#7e7f81}.st31{fill:#2a2e39}.st32{fill:#2e3240}.st33{fill:#2d303e}.st34{fill:#2c2f3a}.st35{fill:#2c2f3b}.st36{fill:#2f313d}.st37{fill:#363843}.st38{fill:#343742}.st39{fill:#2d313f}.st40{fill:#32384a}.st41{fill:#353842}.st42{fill:#2f323d}.st43{fill:#51648c}.st44{fill:#fff}.st45{font-family:&apos;ArialMT&apos;}.st46{font-size:13.52px}</style><title>Asset 1black-main-screen</title><path class="st0" d="M.6 387.4C.6 259.2.6 130.9.5 2.7.5.6.9 0 3.1 0c143.2.1 286.5.1 429.7 0 2.5 0 2.7.7 2.7 2.9-.1 256.6-.1 513.1 0 769.7 0 2.3-.4 2.8-2.8 2.8-143.2-.1-286.3-.1-429.5 0-2.6 0-2.9-.8-2.9-3 .3-128.4.3-256.7.3-385z"/><path class="st1" d="M1.2 386.7c0-127.6 0-255.1-.1-382.7 0-2.8.7-3.4 3.4-3.4 142.3.1 284.6.1 426.9 0 2.9 0 3.6.6 3.6 3.6-.1 255.1-.1 510.3 0 765.4 0 3-.8 3.5-3.6 3.5-142.3-.1-284.6-.1-426.9 0-2.8 0-3.4-.7-3.4-3.4.1-127.7.1-255.4.1-383z"/><path class="st2" d="M217.6 380.2c-70.1-.1-127-57.1-126.8-127.4.2-68 54.7-127.4 127.3-127.3 72.4.1 127 59.7 126.9 128.1-.2 69.8-57.3 126.6-127.4 126.6z"/><path class="st3" d="M74.6 98.8c-13.8 0-27.5.1-41.3-.1-6.9-.1-13.1-2.6-17.4-8.2-6.9-8.8-4-20.5 6.4-25.9 2.8-1.5 4.4-2.5 3.8-6.4-2-14.3 10.5-23.1 21.5-24.8 10.4-1.6 19.3 1.1 26.6 8.7 1.4 1.5 2.5 3.2 3.3 5 .6 1.4 1.3 1.8 2.8 1 10.2-5.1 20.7-5.2 31.1-.7 5.9 2.6 10.7 6.6 11.9 13.4.4 2.2 1.8 2.7 3.3 3.5 6.1 3.2 9.8 8 10.3 15.1.5 7.5-5.1 14-11.3 16.9-3.6 1.7-7.4 2.4-11.4 2.3-13.2.2-26.4.2-39.6.2zM218.9 639c5.4 0 10.8.2 16.2-.1 5.8-.3 10.8 4.6 10.5 10.6-.4 9.9-.1 19.8-.1 29.7 0 6.4-4 10.5-10.4 10.5h-32.6c-6 0-10.1-4.2-10.2-10.1v-31.2c0-5.2 4.3-9.5 9.5-9.5 5.8 0 11.5.1 17.1.1z"/><path class="st4" d="M55.5 753.8h-9.2c-2.9-.1-5.3-1-6.5-3.9-1.2-2.8.5-4.7 2.4-6.5 3.2-3.1 6.3-6.2 9.5-9.3 2.5-2.4 6.3-2.4 8.7 0 3.1 3.1 6.2 6.3 9.3 9.5 1.7 1.7 3.2 3.4 2.2 6.1-1.1 2.9-3.5 4-6.4 4.1-3.4.1-6.7 0-10 0z"/><path class="st5" d="M384.5 749.6c-1.6 1.1.4 3.8-1.9 4.1-1.7.2-1-2.3-2.4-3-1.6.3-.6 3.4-2.6 3-1.9-.4-.5-2.8-1.6-3.9-1.6.1-1.7 3.2-3.6 2.1-1.8-1.1.7-2.7.1-4.2-1.5-.6-2.8 2.4-4.2.6-1.1-1.5 1.5-2.2 1.4-3.7-1.2-1.2-3.4 1.2-4-1-.5-1.7 2.1-1.7 2.6-3-.9-1.3-3.6-.1-3.5-2.2.1-1.9 2.5-.9 3.5-1.9-.1-1.7-3.5-1.2-2.6-3.4.8-2 2.7.6 4-1 .3-1.2-2.7-2-1.3-3.6 1.4-1.6 2.6 1.1 4.1.8.7-1.5-2-3.3.2-4.3 1.6-.8 1.8 2 3.3 2.1 1.3-1-.3-3.5 1.6-3.9 2-.4 1.1 2.4 2.6 3 1.6-.3.6-3.5 2.7-2.9 1.8.4.5 2.7 1.6 3.8 0 0 .2.1.4 0 1.2-.5 1.4-2.9 3-2.1 2.1 1.1-.6 2.9.1 4.4 1.5.4 2.6-2.3 4-.8s-1.2 2.3-1.2 3.9c.8.5 1.7.2 2.6 0 1-.3 1.8-.1 2.1.9.2.9-.6 1.3-1.3 1.6-.7.3-1.3.7-2.3 1.3 1.1.8 2.2.9 3.3 1.1.6.1 1.1.3 1.2 1 0 .8-.4 1.2-1.2 1.3-1 .1-2.1.2-3 .9.5 1 1.5 1.2 2.3 1.6.6.3 1.4.5 1.1 1.4s-.9 1.3-1.8 1.1-1.9-.4-2.8-.2c-.4 1.7 2.6 2.5 1.2 4-1.3 1.5-2.4-1-4.1-.7-.7.5.2 1.2.3 1.9.1.8.7 1.7-.3 2.3-1.2.8-1.5-.3-2-.9-.7-.7-1.2-1.1-1.6-1.5z"/><path class="st6" d="M256.5 728.3c2.8-1.5 5.6-2.9 8.6-3.2 3.1-.4 5.9.6 7.5 3.3 1.8 3.2 4 4.6 7.6 3.5.3-.1.8 0 1.1 0 .2 0 .4.1.7.3-1.3 2-.5 3.2 1.4 4.3 1.2.7 2 2 2.2 3.3.7 5 .4 9.9-1.2 14.7-.5-2.5-.8-5-1.5-7.4-1.8-6.2-5.4-8.3-11.8-6.9-2.3.5-4.4 1.4-6.3 2.7-1.3.9-2.2.6-2.8-.6-.6-1.2-.7-2.4.7-3.2.8-.4 1.6-.6 2.4-1 2.1-.8 3.5-2.2 3.3-4.5-.2-2.6-2-3.8-4.3-4.4-2.4-.7-5-.6-7.6-.9zM162.3 729.5v-5.2c0-1.2.3-2.2 1.7-2.2s1.8.9 1.8 2.1c0 3.4.1 6.7 0 10.1-.1 1.8.5 2.4 2.3 2.3 3-.1 6-.1 8.9 0 1.4 0 3.3-.4 3.2 1.8s-2 1.6-3.3 1.7c-3 .1-6 .1-8.9 0-1.6-.1-2.2.5-2.1 2.1.1 3.3 0 6.5 0 9.8 0 1.2-.1 2.5-1.7 2.5-1.8.1-1.8-1.3-1.8-2.6 0-3-.1-6 0-8.9.1-2.2-.4-3.1-2.8-3-3 .2-6 .1-8.9 0-1.3 0-2.7.2-2.7-1.7 0-1.8 1.3-1.8 2.6-1.8 3.2 0 6.3-.1 9.5 0 1.7.1 2.5-.4 2.3-2.2-.2-1.5-.1-3.2-.1-4.8z"/><path class="st7" d="M55.6 731.5c-3.1 0-5.3-2.1-5.2-4.9 0-2.5 2.5-4.8 5.2-4.8 2.8 0 5.4 2.3 5.4 4.9 0 2.6-2.4 4.8-5.4 4.8z"/><path class="st8" d="M390.9 769.8c1.1.3 2.2.5 3.3.3.5-.1.9-.4.8-.9-.1-.8-.7-.4-1.1-.3-1.6.3-3 0-3.4-1.7-.3-1.3-.4-2.7.8-3.7 1.5-1.3 3.1.2 4.7-.3.1.4.3.9.3 1.3v3.4c0 1.3 0 2.6-1.4 3.2-1.4.4-3 .5-4-1.3z"/><path class="st9" d="M236.7 766.6c.5-2.3-.1-3.9.8-5.5.8 2.4.7 4.8.3 7.2-.2 1.1-1 .2-1.4-.2-1.1-1.4-2.1-2.9-3.4-4.7-.7 1.9.1 3.8-1 5.9-.8-2.9-.5-5.2-.4-7.5.1-1.4.9-.9 1.5-.2 1.1 1.5 2.2 3.1 3.6 5z"/><path class="st8" d="M173.5 769.9c.8-.5 1.2.2 1.8.2.7 0 1.8.2 1.9-.7.2-1.7-1-.4-1.6-.5-1.3-.3-2.2-.8-2.3-2.1-.2-1.3-.3-2.7 1.1-3.6 1.3-.9 2.6.3 3.9-.1.1.4.3.9.3 1.3v3.7c0 1.2-.1 2.4-1.4 2.9-1.4.6-2.7.4-3.7-1.1z"/><path class="st10" d="M363.5 763.1c-1.1-.6-1.8-1.1-2.5-1.3-.8-.2-1.6.1-1.9.9-.3.8.5 1.1 1.1 1.4.2.1.4.1.5.2 1.5.3 2.9.8 2.8 2.6-.1 1.1-.8 2-2 2.1-1.6.1-3.3.2-3.9-1.8.8-.7 1.1.2 1.5.4 1.1.6 2.5.9 3-.3.6-1.4-1-1.5-1.9-1.9-1.2-.4-2.4-.9-2.3-2.5.1-1.2.7-2 2-2 1.5-.2 3-.3 3.6 2.2z"/><path class="st11" d="M65.7 763.6c-2.1-1.2-3.4-3-5.2-1.2-1.2 1.3-1.2 2.7-.5 4.3.4.8 1 1.2 1.7 1.4 1.1.3 1.9-.1 2.4-1 .8-1.7-1.1-1-1.6-2 1.2-.2 2.5-.7 3 .4.5 1.3-.3 2.7-1.7 3.3-1.8.7-3.6.6-4.8-1.3-1.2-2-.6-5.2 1.2-6.2 1.8-1.2 3.8-.5 5.5 2.3z"/><path class="st12" d="M305.6 760.8v5.6c0 2-2 3.3-3.8 2.4-1.3-.6-1.6-1.8-1.6-3.1 0-1.4.5-2.9 1.9-2.7 2 .2 2.5-.7 2.7-2.5.3.1.6.2.8.3z"/><path class="st13" d="M272 766.7c1.1.6 1.7 1 2.4 1.2.9.4 1.9.1 2.2-.7.5-1.1-.4-1.5-1.3-1.8-.3-.1-.5-.2-.8-.3-1.2-.5-2.4-1-2.2-2.6.1-1 .9-1.7 1.9-1.8 1.4-.2 2.8-.1 3.5 1.5-.7.6-1.1.2-1.4-.1-1-.8-2.2-.7-2.7.3-.6 1.3.8 1.5 1.7 1.8 1.3.5 2.7.7 2.7 2.5 0 1.2-.8 2-1.9 2.2-1.7.3-3.3.3-4.1-2.2z"/><path class="st14" d="M239.9 764c1.5-1.4 2.9-1.9 4.2-.5s1.2 3.4.5 4.9c-.4.8-2.3.7-3.6.5-.8-.1-1.3-.8-1.2-1.7.1-1 .7-1.4 1.6-1.7.7-.2 2.2.4 2-.8-.3-1.6-1.6-.7-2.6-.4-.1 0-.3-.1-.9-.3z"/><path class="st8" d="M154.9 763.3c1.8-.9 4.1-.6 5.5-.2 2.6.8 1.3 3.6 1.2 6.2-1.4-1.5-.8-2.8-1-3.9-.1-.7-.2-1.4-1-1.5-1-.1-1.2.7-1.3 1.5-.1 1.1.2 2.2-.4 3.4-1.8-1.4.8-4.6-2.4-5.1-.6.3-.7 0-.6-.4z"/><path class="st15" d="M291.3 763.1c.6 1.8.9 3.9-.1 5.5-.3.5-2.6 1-3.7.1-1.9-1.5-.7-3.7-.9-5.9 1.6.8.9 2.1 1.1 3.1.2.8-.1 1.9 1.2 1.9s1.6-.8 1.7-1.9v-2.8h.7zM250.7 762.5c1.6 1.5 1 2.7 1.1 3.7.1.8.2 1.6 1.3 1.5.9 0 1.4-.5 1.5-1.4.1-1.1.1-2.2.3-4.1 1.4 2.5 1.2 4.5.6 6.2-.1.4-2.5 1-3.6.3-2.3-1.4-.9-3.7-1.2-6.2z"/><path class="st16" d="M267 767.2c-1.4 2.1-2.8 2.2-4.2 1.3-1.5-1-1.5-3.6-.1-4.9 1.2-1.1 2.4-1.1 3.6 0 .6.5.7 1.1.6 1.8-.1.8-.8.7-1.3.8-.8.3-2.6-.7-2.3.9.3 1.9 2 .7 3.7.1z"/><path class="st17" d="M171.1 768.7c-1-1-.6-2.3-.8-3.5-.1-.7-.4-1.3-1.2-1.4-.9-.1-1.4.5-1.5 1.4-.1 1.2-.2 2.3-.6 3.5-.9-1.8-.8-3.7-.4-5.6 1.3.3 2.6-.9 3.8.1 1.9 1.5.9 3.6.7 5.5z"/><path class="st18" d="M67 765.8c.2-1.7 1-3 2.8-3 2 0 2.9 1.4 2.8 3.3-.1 1.9-1.1 3.1-3.1 2.9-1.9-.2-2.3-1.6-2.5-3.2z"/><path class="st19" d="M48.7 767.5c-1 1.7-2.4 2-3.7.8-1.5-1.3-1.5-3.1-.3-4.6 1-1.2 2.3-1.3 3.6-.4.7.5 1 1.2.9 2s-.7.7-1.3.8c-.9.2-2-.5-2.6.5-.1.2.2.7.5 1 1 1.1 1.9.1 2.9-.1z"/><path class="st17" d="M388.3 768.7c-.9-1-.6-2-.7-3.1-.1-.9-.3-1.8-1.5-1.7-1.1 0-1.4.9-1.4 1.8 0 1-.1 2-.4 3-1.1-1.8-.9-3.7-.4-5.5.1-.2 2.4-1 3.6-.1 2 1.6 1.1 3.7.8 5.6zM298.2 768.7c-1-.8-.7-1.8-.8-2.7-.1-1-.1-2.1-1.4-2.1-1.3-.1-1.4 1-1.5 2s.2 2-.8 3.4c-.5-2.4-.7-4.3.1-6.1.1-.2 2.5-1 3.7 0 1.8 1.6.9 3.6.7 5.5z"/><path class="st13" d="M370.1 767.7c-1.9 1.5-3.5 1.8-4.6.1-1-1.5-1.1-3.4.6-4.6 1.5-1.1 2.7-.5 3.6.9.6 1 .8 1.7-.8 2-.9.2-2.9-.9-2.5 1.1.4 2 2.1.2 3.7.5z"/><path class="st20" d="M284.9 766c0 1.8-.8 3-2.7 3-2 0-2.6-1.2-2.7-3 0-2 .8-3.2 2.8-3.2 1.9.1 2.6 1.4 2.6 3.2z"/><path class="st21" d="M148.8 761.2c-4.8 1.1-1.4 5.3-3.1 7.7-2-2.2 1.6-6.4-3-7.6 2.2-.6 4-.6 6.1-.1z"/><path class="st22" d="M398.2 767.7c.8-.7 1.1.1 1.6.3.6.2 1.2.2 1.5-.4.4-.8-.4-.9-.9-1.2-1.1-.6-3-1-1.8-2.7 1-1.5 2.6-1.1 3.9.1-.6 1-1 .2-1.5.1-.6-.1-1.3-.1-1.4.6-.2.7.6.9 1.1 1 1 .3 2.1.6 2 2 0 .9-.7 1.4-1.5 1.5-1.1 0-2.4.2-3-1.3zM184.8 763.7c-.6.7-.9.4-1.3.3-.7-.3-1.5-.4-1.7.3-.3.9.6.9 1.2 1.2.9.3 1.9.6 1.9 1.8 0 .6-.3 1.2-.9 1.4-1.4.4-2.7.8-3.7-.9.9-.8 1.3.2 1.8.3s1 0 1.2-.4c.4-.8-.2-1-.7-1.2-1.1-.6-3-.9-2-2.7 1.2-1.7 2.7-1.1 4.2-.1zM311.9 763.8c-.8.8-1.3 0-1.8 0s-1.1 0-1.2.5c-.3.8.4.9.9 1.1 1.5.5 3.1 1.2 1.7 2.9-1.1 1.3-2.8 1.2-4.1-.5.9-.8 1.3.2 1.8.3.7.1 1.2-.1 1.4-.7.2-.6-.4-.7-.8-1-1.1-.6-3-.9-2-2.7 1-1.6 2.6-1.1 4.1.1z"/><path class="st23" d="M43 768.7c-5 .7-5 .7-5-3.6V761c1.5.4 1.1 1.4 1.2 2.1.1 4.1.1 4.1 3.8 5.6z"/><path class="st24" d="M53.6 768.8c-1.3.3-1.9 0-2.1-.9-.4-1.5.4-3.2-.8-4.6-.1-.1.5-1.2 1-1.5.5-.4.8.3 1 .6.3.4 1.3.5.4 1.5-1.3 1.5-.8 3.2.5 4.9z"/><path class="st25" d="M374.7 768.8c-1.4.3-1.9-.2-2.1-1.2-.3-1.3.4-2.8-.8-4.1-.5-.5.5-1.1.9-1.6s.9-.1 1 .4c.2.5 1.5.5.6 1.5-1.4 1.6-.6 3.2.4 5z"/><path class="st26" d="M249 768.7c-1.6.5-2.1-.3-2.2-1.3-.2-1.3.2-2.6-.4-3.9-.2-.4.3-1.2.7-1.7.2-.3.7 0 .8.4.2.6 1.4.6.5 1.8-1.2 1.4-.7 3.1.6 4.7z"/><path class="st27" d="M379.1 768.6c-1.7.5-2.2-.2-2.4-1.3-.2-1.3.2-2.6-.4-3.9-.2-.4.3-1.2.7-1.7.2-.3.7 0 .8.4.2.6 1.3.6.5 1.8-1 1.4-.8 3.2.8 4.7z"/><path class="st28" d="M258 769c-1-5.9-.9-6.2 3.1-5.6-3.9.3-1.3 3.9-3.1 5.6z"/><path class="st29" d="M154.9 763.3c.2.2.4.3.6.5-1.6 1.3-.6 3.4-1.6 5.3-1.1-2-.7-3.8-.5-5.5 0-1 .8-.6 1.5-.3z"/><path class="st30" d="M381.3 763c.8 1.9.7 3.8.2 6.4-1.2-2.5-.8-4.5-.2-6.4zM164 763c.9 1.9.7 3.8.2 5.7-1.1-1.9-.6-3.8-.2-5.7zM150.8 763c.7 1.9.8 3.8.1 6.4-1-2.6-.8-4.5-.1-6.4z"/><path class="st31" d="M321.8 253.2c-.1 57.4-46.8 103.9-104.2 103.8s-103.8-46.7-103.8-104.1c-.1-56.3 46.9-104.7 104.3-104.5 57.1.2 104 48.5 103.7 104.8z"/><path class="st32" d="M51.8 747.7c-1.8-.1-3.5-.8-5.4-1.5 1.5-2.3 3.2-4.2 5.4-6.3v7.8z"/><path class="st33" d="M66.1 746c-5.9 2.5-6.1 2.3-5.4-5.8 2 2.2 3.6 4 5.4 5.8z"/><path class="st34" d="M374.7 730.5c1.2 2.3 2.5 4.5 3.7 6.7.5.9.3 1.6-.1 2.4-.7 1.2-1.4 2.5-2.1 3.8-1.7 3.2-2.3 3.2-4.3 0-2.8-4.2-1.7-9.6 2.8-12.9z"/><path class="st1" d="M384.5 737.3c-1.3-.2-3.3.7-4.2-.4-1.6-2-2.6-4.5-3.8-6.7-.5-1 .4-1 1-1.2 4.4-1.6 10.5 1.7 11.7 6.3.4 1.5 0 2.2-1.6 2.1-.9-.1-1.9-.1-3.1-.1zM384.5 739.4h1.4c1.2.1 3-.6 3.5.4.7 1.4-.4 2.9-1.3 4.2-2.4 3.2-5.5 4.6-9.5 4.1-1.6-.2-2.5-.9-1.4-2.7.4-.6.8-1.3 1.1-2 1.1-3.3 3.1-5 6.2-4z"/><path class="st35" d="M393.3 763.8c1.4 0 1.8.8 1.8 2 0 1.3-.5 1.9-1.9 2-1.5.1-1.9-.9-1.9-2 .2-1 .6-2.1 2-2zM175.6 767.8c-1.3-.1-1.4-1.2-1.4-2.1 0-1 .4-2 1.7-1.9s1.4 1.1 1.4 2.1c.1 1.1-.4 1.9-1.7 1.9z"/><path class="st36" d="M304.5 766.5c0 .6-.3 1.5-1.5 1.5-1.3.1-1.8-.9-1.9-2s.5-2.1 1.7-2.1c1.5-.1 1.7 1 1.7 2.6z"/><path class="st37" d="M243.6 766.9c-.3.8-1 1.1-1.8 1.2-.5 0-.9-.4-.8-.9.2-.8.9-.9 1.6-.9.5-.2 1-.1 1 .6z"/><path class="st38" d="M265.6 764.6c.1.9-.5.9-1.1.9-.5 0-1.3.2-1.4-.5-.1-.8.5-1.1 1.2-1.2.6-.1 1.2.1 1.3.8z"/><path class="st39" d="M71.6 766c-.1 1.2-.6 2.2-1.9 2-1.2-.2-1.6-1.2-1.5-2.4.1-1.1.5-1.9 1.7-1.8 1.4.1 1.6 1.1 1.7 2.2z"/><path class="st40" d="M46.5 765.4c-.5-.1-1.3.2-1.1-.8.1-.6.6-.9 1.3-.9.6 0 1.2.2 1.3.8-.1 1.2-1 .8-1.5.9z"/><path class="st41" d="M367.6 763.8c.7.1 1.4.4 1.2 1.2-.1.7-.9.5-1.4.5s-1.2 0-1.1-.8c.1-.8.7-.9 1.3-.9z"/><path class="st42" d="M283.7 766c.1 1.1-.3 2-1.5 2-1.3.1-1.8-.9-1.9-2.1-.1-1.2.5-2.1 1.8-2.1 1.5 0 1.6 1.1 1.6 2.2z"/><path class="st43" d="M259.4 253.4c.1 21.8-18.6 40.4-40.9 40.1-21.9-.2-40.3-18.7-40.1-41 .3-21.8 18.7-40.3 41.1-40 22 .4 39.9 18.5 39.9 40.9z"/><g id="Pin-Right"><path id="Battery" class="st44" d="M395.6 7h22c.9 0 1.7.8 1.7 1.7V16c0 .9-.7 1.7-1.7 1.7h-22c-.9 0-1.7-.8-1.7-1.7V8.7c0-.9.8-1.7 1.7-1.7zm24.2 3.4h.8c.5 0 .8.4.8.8v2.3c0 .5-.4.8-.8.8h-.8v-3.9zm-24.2-2.8c-.6 0-1.1.5-1.1 1.1V16c0 .6.5 1.1 1.1 1.1h22c.6 0 1.1-.5 1.1-1.1V8.7c0-.6-.5-1.1-1.1-1.1h-22zm0 .5h22c.3 0 .6.2.6.6V16c0 .3-.3.6-.6.6h-22c-.3 0-.6-.2-.6-.5V8.7c.1-.3.3-.6.6-.6z"/><text transform="translate(356.59 18.26)" class="st44 st45 st46" id="_100_">100%</text></g><g id="_9:41-AM"><text transform="translate(190.34 18.26)" class="st44 st45 st46">9:41</text><text transform="translate(216.65 18.26)" class="st44 st45 st46"></text><text transform="translate(219.66 18.26)" class="st44 st45 st46">AM</text></g><path id="Wi-Fi" class="st44" d="M68.6 14.8l-2.4 2.3-2.4-2.4c1.2-1.3 3.3-1.4 4.6-.2.1.1.1.2.2.3zm2.5-2.4l-1.2 1.2c-1.9-2-5.1-2.1-7.1-.2l-.2.2-1.2-1.2c2.6-2.7 6.9-2.7 9.6-.1 0 .1 0 .1.1.1zm2.4-2.4l-1.2 1.2c-3.3-3.4-8.8-3.4-12.1-.1l-.1.1-1.2-1.2c4-4 10.6-4 14.6 0z"/><path id="Mobile-Signal" class="st44" d="M15.7 15.4c-1.7 0-3.1-1.4-3.1-3.1s1.4-3.1 3.1-3.1 3.1 1.4 3.1 3.1c0 1.8-1.3 3.1-3.1 3.1zm7.9 0c-1.7 0-3.1-1.4-3.1-3.1s1.4-3.1 3.1-3.1 3.1 1.4 3.1 3.1c0 1.8-1.4 3.1-3.1 3.1zm7.9 0c-1.7 0-3.1-1.4-3.1-3.1s1.4-3.1 3.1-3.1 3.1 1.4 3.1 3.1c0 1.8-1.4 3.1-3.1 3.1zm7.9 0c-1.7 0-3.1-1.4-3.1-3.1s1.4-3.1 3.1-3.1 3.1 1.4 3.1 3.1c0 1.8-1.4 3.1-3.1 3.1zm7.9 0c-1.7 0-3.1-1.4-3.1-3.1s1.4-3.1 3.1-3.1 3.1 1.4 3.1 3.1c0 1.8-1.4 3.1-3.1 3.1z"/></svg>