<svg xmlns="http://www.w3.org/2000/svg" viewBox="0 0 543.93 437.75"><defs><style>.cls-1{fill:#ec008c}.cls-2{fill:#fec77c}.cls-3{fill:#00aeef}.cls-4{fill:#fff}.cls-5{fill:#009444}.cls-6{fill:#8dc63f}.cls-7{fill:#ed1c24}.cls-8,.cls-9{fill:none;stroke:#ed1c24;stroke-miterlimit:10}.cls-8{stroke-width:4px}.cls-9{stroke-width:2px}.cls-10{fill:#bcbec0}</style></defs><title>Asset 7clown</title><g id="Layer_2" data-name="Layer 2"><g id="Layer_4" data-name="Layer 4"><path class="cls-1" d="M339.07 208.81c-1.51 4.71-5.86 9.84-8.41 14.11a86.7 86.7 0 0 1-12.41-13.61c-.15 44 20.82 108.07-26.31 109.13-15.29.34-18.93 1.2-38.58.93-49.93-.67-34-71.51-33.86-111.8-5.52 6.62-9.71 12.85-12.64 14.46-3.64-6.54-3.81-6.39-8.41-14.11 4.38-11.3 1.54-5.19 5.44-14.32 6.18-19.26 25.52-26.39 42.42-41.77-15.41 34.53 47.37 46.52 49.63 3.24 23.65 19.4 31.26 21.32 43.13 53.74z"/><path class="cls-2" d="M537.45 144.68c-1.06-8.06-9.16-20.21-19.24-16.22-3.08 1.22-5 3.36-5 6.78 0 8.69 6.42 4.48 11.14 3.05 6.65 1.13 5.68 14.53 1.64 17.76-3.36 2.68-5.47 1.61-8.71-.76-3.84-2.8-7.28-12.6-7.83-5-.23 3.22 2.79 8 2.77 11.82 0 5.77-1.77 11.56-3.81 16.92-4.65 12.25-12.15 23.55-20.28 33.82-16 20.15-34.3 37.26-61.88 35.39-31.66-2.15-63.45-19.58-87.24-39.47l-8.41 14.11.17.15 1.8 1.56h.05c34 23.78 98.77 56.49 137.91 27 14.54-11 26.58-27.53 37.28-41.91 13.21-17.77 30.93-41.8 29.59-65.11M.07 143.79c1.06-8.06 9.16-20.21 19.24-16.22 3.08 1.22 5 3.36 5 6.78 0 8.69-6.42 4.48-11.14 3.05-6.65 1.13-5.68 14.53-1.64 17.76 3.36 2.68 5.47 1.61 8.71-.76 3.84-2.8 7.28-12.6 7.83-5 .23 3.22-2.79 8-2.77 11.82 0 5.77 1.77 11.56 3.81 16.92 4.65 12.25 12.15 23.55 20.28 33.82 16 20.15 34.3 37.26 61.88 35.39 31.66-2.15 63.45-19.58 87.24-39.47l8.36 14.12-.17.15-1.8 1.56h-.05c-34 23.78-98.77 56.49-137.91 27-14.54-11-26.58-27.53-37.28-41.91C16.44 191.12-1.27 167.1.07 143.79M543.93 156.44l-6.48-11.76"/><path class="cls-3" d="M95.49 308.08c15.73-16.77 99.8 1.69 112.61 6.18 18.76 6.58 36.61 19.66 56.73 20.78 24.16 1.35 44.1-16.33 65.63-25.16 39.9-16.36 95.3-33.12 117.21 1.1 18 28-19.24 46.25-23 49.19-16.11 12.56-35.79 18.93-54.91 22.83a227.33 227.33 0 0 1-67.6 3.43c-8.87-.88-32.73-5.64-36.65-5.42-10 .55-25.28 3.82-36.64 5.46-23.78 3.44-40.48 3.38-64.48-3.58-29.12-8.44-104.96-36.35-68.9-74.81z"/><path class="cls-2" d="M302.07 91.2c.25.34.5.7.75 1.05a12.06 12.06 0 0 0-.75-1.05zm0 0a53.19 53.19 0 0 0-8.2-8.95 7.7 7.7 0 0 0-4-2.17c-2-.21-3.89 1.09-5.33 2.51-2.48 2.43-4.88 5.82-5.6 9.24a1 1 0 0 0 .68-.12 12.55 12.55 0 0 0-.92 1.39 13.67 13.67 0 0 0-.84 11.42c-.21-.14-.42-.26-.64-.38-7.54-4.24-17.22-4.4-25.22-1.09a17.5 17.5 0 0 0-2.11 1.05 11.09 11.09 0 0 0-.25-6 13.18 13.18 0 0 0-3.54-5.36c.89.69 1.78 1.26 2.4 1.09-1.3-2.92-4.42-5.65-6.86-7.7a6.72 6.72 0 0 0-4-1.93 6.36 6.36 0 0 0-4 1.84 22.45 22.45 0 0 0-6.61 9.57 11.24 11.24 0 0 0-.83 1.64 12.82 12.82 0 0 0-.91 4.83h-1.72a63.77 63.77 0 0 0-.39-9.17c-.62-5.06 5.57-19.78 9.3-22.39 6.63-4.66 23.14-12.28 31-14.19 10.16-2.47 23.47-.5 33.76 1.34 5.92 1.07 7.17 4.08 12.43 6.93 9.31 5 9 27.21 11 37.49a36.06 36.06 0 0 1-7.45 29.53c-.49.6-1 1.18-1.54 1.75a15.54 15.54 0 0 0 .16-12.1c-2.09-4.65-6.75-7.52-11.51-8.55a26 26 0 0 0-4.2-.54l.37-.16a13.94 13.94 0 0 0 6.49-6.43 13.53 13.53 0 0 0 1.38-7.61c-1.25-10.31-13.07-14.32-20.95-9.72a2 2 0 0 1 .23-.16 14 14 0 0 1 7-2.18 14.12 14.12 0 0 1 11.42 5.27z"/><path class="cls-4" d="M311.93 121.23a15.54 15.54 0 0 1-.16 12.1c-8.61 9.24-21.38 13.75-33.53 17.83-3.76 1.27-7.66 2.55-11.62 2.22-3.65-.31-7-2-10.29-3.58-11-5.43-22.63-11.56-28.19-22.26a11.94 11.94 0 0 1 2.94-5.42c3.19-3.22 7.82-4 12.24-4.56a14.69 14.69 0 0 0 7.48 8.81c5 2.52 10.86 2.6 16.37 1.79 4.14-.62 8.32-1.75 11.66-4.24s5.7-6.54 5.24-10.64c0-.11 0-.23-.05-.34l1.88-.22.86-.1a14.23 14.23 0 0 0 9.46-.5 26 26 0 0 1 4.2.54c4.76 1.05 9.42 3.93 11.51 8.57zm-30.71 13.27c1.85-4.24 8.83-10.48 13.06-12.45-5.18 1.63-15.61 9.58-22.24 11.85s-13.88 1.71-20.35-.61c-1.13-.41-5.31-2.21-6.24-1.91-2.21.71.39 2.66 1 3.63A116.41 116.41 0 0 0 255 146.5c2.25 2.65 4.85 5.34 8.27 6.1 4.57 1 9.23-1.86 12-5.6s4.1-8.26 5.95-12.49zM304.46 97.94a13.53 13.53 0 0 1-1.38 7.61h-1.6c.13-.67-.66-1.13-1.32-1.33a25.71 25.71 0 0 0-2.92-.75 7.5 7.5 0 0 0-.57-3.85c-3-6.82-13.51-5.65-14.9 1.66a7.38 7.38 0 0 0 .19 3.45 2.26 2.26 0 0 0-.3.35 5.72 5.72 0 0 0 .72.79 7.84 7.84 0 0 0 .93 1.55l-1.52.57a15.23 15.23 0 0 0-3.91-3.46 13.67 13.67 0 0 1 .84-11.42 12.55 12.55 0 0 1 .92-1.39c1.16-.57 2.84-2.66 3.88-3.47 7.87-4.63 19.69-.62 20.94 9.69z"/><path class="cls-4" d="M301.48 105.54h1.6a13.94 13.94 0 0 1-6.49 6.43l-.37.16a58.14 58.14 0 0 0-9.46.5 14.21 14.21 0 0 1-3.14-1.32 11.27 11.27 0 0 0-1.83-3.35l1.52-.57a7.65 7.65 0 0 0 2.34 2 8.16 8.16 0 0 0 9.09-1 7.61 7.61 0 0 0 2.14-3.32 20.82 20.82 0 0 1 2.28.8 3.46 3.46 0 0 0 1.3.36 1 1 0 0 0 1.02-.69z"/><path class="cls-5" d="M300.16 104.21c.66.21 1.46.67 1.32 1.33a1 1 0 0 1-1 .72 3.46 3.46 0 0 1-1.3-.36 20.82 20.82 0 0 0-2.28-.8 8 8 0 0 0 .35-1.65 25.71 25.71 0 0 1 2.91.76z"/><path class="cls-2" d="M296.67 99.61a7.5 7.5 0 0 1 .57 3.85 28.65 28.65 0 0 0-6.73-.56c-2.12.06-6.83.12-8.55 1.82a7.38 7.38 0 0 1-.19-3.45c1.39-7.27 11.89-8.48 14.9-1.66z"/><path class="cls-5" d="M297.23 103.46a8 8 0 0 1-.35 1.65 21.9 21.9 0 0 0-14.44.82l-.07-.06a7.43 7.43 0 0 1-.42-1.14c1.72-1.7 6.42-1.76 8.55-1.82a28.65 28.65 0 0 1 6.73.55z"/><path class="cls-6" d="M293.87 82.24a53.19 53.19 0 0 1 8.2 8.95 14.12 14.12 0 0 0-11.36-5.31 14 14 0 0 0-7 2.18 2 2 0 0 0-.23.16 13 13 0 0 0-3.88 3.47 1 1 0 0 1-.68.12c.71-3.43 3.11-6.81 5.6-9.24 1.44-1.42 3.3-2.72 5.33-2.51a7.7 7.7 0 0 1 4.02 2.18z"/><path class="cls-2" d="M296.89 105.11a7.61 7.61 0 0 1-2.14 3.32 8.16 8.16 0 0 1-9.09 1 7.65 7.65 0 0 1-2.34-2 7.84 7.84 0 0 1-.93-1.55l.07.06a21.9 21.9 0 0 1 14.43-.83z"/><path class="cls-4" d="M294.28 122.06c-4.23 2-11.21 8.21-13.06 12.45s-3.22 8.75-5.94 12.49-7.4 6.6-12 5.6c-3.42-.75-6-3.44-8.27-6.1a116.41 116.41 0 0 1-8.54-11.5c-.63-1-3.24-2.92-1-3.63.93-.29 5.11 1.51 6.24 1.91 6.48 2.32 13.84 2.85 20.35.61s17.04-10.2 22.22-11.83z"/><path class="cls-7" d="M284.07 113.29c.47 4.1-1.9 8.15-5.24 10.64s-7.52 3.62-11.66 4.24c-5.52.82-11.41.74-16.37-1.79a14.69 14.69 0 0 1-7.48-8.81l.86-.1L284 113c0 .06.06.18.07.29z"/><path class="cls-7" d="M284 113l-39.84 4.52-.86.1a10.57 10.57 0 0 1-.39-2.47 13.39 13.39 0 0 0 4.36-4.63 21.93 21.93 0 0 0 2.64-6.35 17.5 17.5 0 0 1 2.11-1.05c7.93-3.31 17.64-3.16 25.19 1.08.22.12.43.24.64.38a12.67 12.67 0 0 0 5.75 6.81 9 9 0 0 1 .4 1.61z"/><path class="cls-7" d="M281.79 108a11.27 11.27 0 0 1 1.83 3.35 12.67 12.67 0 0 1-5.75-6.81 15.23 15.23 0 0 1 3.92 3.46z"/><path class="cls-4" d="M249.67 98.07a11.09 11.09 0 0 1 .25 6 15 15 0 0 0-5.6 5.45 9.58 9.58 0 0 0 .57-2.91 1 1 0 0 0 .12-.33l.09-.49a.4.4 0 0 0-.23-.41 8 8 0 0 0-2.71-5.78c-4.82-3.8-11.61.29-11.85 5.87-1.73.32-3.35.62-3.78.74-.06 0 0 .43.2.85l-.48.17a15.51 15.51 0 0 1-.92-5.2 12.82 12.82 0 0 1 .91-4.83 11.24 11.24 0 0 1 .83-1.64c-.15.41-.28.82-.41 1.23a33.72 33.72 0 0 1 5-5 13.18 13.18 0 0 1 3.89-2 12.16 12.16 0 0 1 5.14 0 11.66 11.66 0 0 1 4 1.81c.42.32.89.72 1.35 1.08a13.18 13.18 0 0 1 3.63 5.39z"/><path class="cls-6" d="M248.53 93.8c-.62.17-1.51-.4-2.4-1.09a10.8 10.8 0 0 0-1.35-1.08 7.51 7.51 0 0 0-.8-.57 11.33 11.33 0 0 0-5.68-1.71 9.46 9.46 0 0 0-2.68.43 13.22 13.22 0 0 0-8.5 5.82 22.45 22.45 0 0 1 6.56-9.6 6.36 6.36 0 0 1 4-1.84 6.72 6.72 0 0 1 4 1.93c2.43 2.06 5.56 4.8 6.85 7.71z"/><path class="cls-7" d="M249.93 104.11a21.93 21.93 0 0 1-2.64 6.35 13.39 13.39 0 0 1-4.36 4.63 10.35 10.35 0 0 1 .15-2.12 10.54 10.54 0 0 1 .61-2.12 7.42 7.42 0 0 0 .63-1.3 15 15 0 0 1 5.61-5.44z"/><path class="cls-5" d="M244.87 105.42a.4.4 0 0 1 .23.41l-.09.49a1 1 0 0 1-.12.33 10.17 10.17 0 0 0 0-1.15.24.24 0 0 0-.02-.08z"/><path class="cls-5" d="M244.88 105.49a10.17 10.17 0 0 1 0 1.15c-.24.44-.77.5-1.38.34a26.12 26.12 0 0 0-13.11.09 7.43 7.43 0 0 1-.1-1.56l1.59-.29c1.67-.3 3.19-.43 3.4-.44 4.39-.27 8.56-.07 9.58.64a.24.24 0 0 1 .02.07z"/><path class="cls-2" d="M244.89 106.65a9.58 9.58 0 0 1-.57 2.91 10.72 10.72 0 0 0-.63 1.3 6.12 6.12 0 0 1-1.43 1.62 7.12 7.12 0 0 1-7.16.69 8.24 8.24 0 0 1-4.69-6.1 26.12 26.12 0 0 1 13.11-.09c.6.17 1.13.1 1.37-.33zM242.16 99.63a8 8 0 0 1 2.71 5.78c-1-.71-5.19-.9-9.58-.64-.21 0-1.72.14-3.4.44l-1.59.29c.25-5.58 7.03-9.67 11.86-5.87z"/><path class="cls-4" d="M243.68 110.86a10.54 10.54 0 0 0-.61 2.12 10.35 10.35 0 0 0-.15 2.12 9.79 9.79 0 0 1-2.35 1.07 10.59 10.59 0 0 1-8.31-1.22 14.32 14.32 0 0 1-5.51-6.41c-.19-.42-.36-.84-.52-1.27l.48-.17c.18.46.45.93.67.85 1-.34 2-.63 3-.87a8.24 8.24 0 0 0 4.69 6.1 7.12 7.12 0 0 0 7.16-.69 6.12 6.12 0 0 0 1.45-1.63z"/><path class="cls-2" d="M242.93 115.1a10.57 10.57 0 0 0 .39 2.47c-4.42.52-9 1.34-12.24 4.56a11.94 11.94 0 0 0-2.94 5.42c-.12-.22-.23-.44-.33-.66-2.88-5.92-5-12.52-4.52-19.07.15-1.89.26-3.83.31-5.78h1.72a15.51 15.51 0 0 0 .92 5.2c.15.43.33.85.52 1.27a14.32 14.32 0 0 0 5.51 6.41 10.59 10.59 0 0 0 8.31 1.22 9.79 9.79 0 0 0 2.35-1.04z"/><path class="cls-5" d="M230.3 105.52a7.43 7.43 0 0 0 .1 1.56c-1 .24-2 .54-3 .87-.22.07-.49-.39-.67-.85s-.26-.84-.2-.85c.44-.12 2.05-.42 3.78-.74z"/><path class="cls-8" d="M251.69 133.3c6.48 2.32 13.84 2.85 20.35.61s17.06-10.22 22.24-11.85c-4.23 2-11.21 8.21-13.06 12.45s-3.22 8.75-5.94 12.49-7.4 6.6-12 5.6c-3.42-.75-6-3.44-8.27-6.1a116.41 116.41 0 0 1-8.54-11.5c-.63-1-3.24-2.92-1-3.63.91-.28 5.09 1.52 6.22 1.93z"/><path class="cls-9" d="M228.14 127.56a11.16 11.16 0 0 0 .05 5.89c1 3.35 5.44 5.79 8 7.83a121.47 121.47 0 0 0 24.71 15.45c2.37 1.1 4.9 2.16 7.48 1.93a15.91 15.91 0 0 0 4.59-1.38l17.79-7.36c6-2.5 12.25-5.11 16.83-10a20.59 20.59 0 0 0 4.21-6.62 15.54 15.54 0 0 0 .16-12.1c-2.09-4.65-6.75-7.52-11.51-8.55a26 26 0 0 0-4.2-.54 58.14 58.14 0 0 0-9.46.5l-.86.1-1.93.29-39.84 4.52-.86.1c-4.42.52-9 1.34-12.24 4.56a11.94 11.94 0 0 0-2.92 5.38z"/><ellipse class="cls-10" cx="268.76" cy="425.44" rx="152.62" ry="12.31"/><path class="cls-1" d="M210.65 103.69c-8.1.63-16-5.92-19.07-14.93a33.31 33.31 0 0 1 3.54-27.53 9.9 9.9 0 0 0 1.56-3.1 12.85 12.85 0 0 0-.12-4.11c-.85-8.25 5-17.19 11.89-16.45a18.29 18.29 0 0 1 5-13.39 12.26 12.26 0 0 1 12-3.24c1-5.21 4.06-9.8 8.08-12.14a13 13 0 0 1 13-.16c2.32-5.13 7-8.56 11.92-8.65s9.68 3.16 12.14 8.19c3.81-5.07 9.67-8.1 15.29-7s10.66 6.57 11.38 13.33a12.36 12.36 0 0 1 14.62-.27c4.42 3.11 7.19 9.3 6.91 15.44a16.67 16.67 0 0 1 15.43 5.41 19 19 0 0 1 3.36 18.26c3.69-.26 7.15 2.75 8.93 6.64s2.11 8.48 2 12.91a34.66 34.66 0 0 1-1.52 9.67 24.65 24.65 0 0 1-14.47 14.81c-6.22 2.48-12.87 2.74-19.42 3q-2.4-14.42-5.48-28.65c-.63-2.89-1.58-6.19-3.94-7.18s-4.91.72-7.09-.47c-2-1.09-2.83-4.19-4.86-5.19-3.54-1.75-6.71 4-10.54 4.25-4.54.28-8.31-7.27-12.45-5-1.66.9-2.5 3.07-3.7 4.7a7.92 7.92 0 0 1-7.11 3.38c-2.52-.28-4.8-1.89-7.24-2.71s-5.51-.55-6.9 2c-1 1.92-.88 4.71-2.36 6.17-2 2-5.36 0-7.38 1.87-.68.64-2.39 2.25-3.08 3-6.5 6.81-7.55 15.93-7.09 21.78.26 4.4-9.36 5.36-13.23 5.36z"/><path class="cls-2" d="M318.37 107.45a7.91 7.91 0 0 0 2.17 5.74 7.94 7.94 0 1 0 13.78 2.75h.41a7.94 7.94 0 1 0 .55-15.87h-.36a7.94 7.94 0 1 0-14.06 1.84 7.92 7.92 0 0 0-2.49 5.54zM226.74 110.47a7.91 7.91 0 0 1-2 5.81 7.94 7.94 0 1 1-13.68 3.23h-.41a7.94 7.94 0 1 1-1.11-15.84h.35A7.94 7.94 0 1 1 224 105a7.92 7.92 0 0 1 2.74 5.47z"/><ellipse class="cls-4" cx="218.95" cy="111.84" rx="3.48" ry="8.2"/><ellipse class="cls-4" cx="327.18" cy="109.4" rx="3.48" ry="8.2"/></g></g></svg>