<?xml version="1.0" encoding="utf-8"?>
<!-- Generator: Adobe Illustrator 21.0.0, SVG Export Plug-In . SVG Version: 6.00 Build 0)  -->
<svg version="1.1" id="Layer_1" xmlns="http://www.w3.org/2000/svg" xmlns:xlink="http://www.w3.org/1999/xlink" x="0px" y="0px"
	 viewBox="0 0 749 1332" style="enable-background:new 0 0 749 1332;" xml:space="preserve">
<style type="text/css">
	.st0{fill:#030303;}
	.st1{font-family:'ArialMT';}
	.st2{font-size:23.81px;}
</style>
<title>Asset 1sound-pink</title>
<path id="Battery" class="st0" d="M690.3,10.7H729c1.7,0,3,1.3,3,3v12.9c0,1.7-1.3,3-3,3h-38.7c-1.7,0-3-1.3-3-3V13.7
	C687.4,12,688.7,10.7,690.3,10.7z M733,16.7h1.5c0.8,0,1.5,0.6,1.5,1.4v4c0,0.8-0.7,1.5-1.5,1.5l0,0H733V16.7z M690.4,11.7
	c-1.1,0-2,0.9-2,2v12.9c0,1.1,0.9,2,2,2H729c1.1,0,2-0.9,2-2V13.7c0-1.1-0.9-2-2-2H690.4z M690.4,12.7H729c0.6,0,1,0.4,1,1v12.9
	c0,0.6-0.4,1-1,1h-38.6c-0.6,0-1-0.4-1-1v-13C689.4,13.1,689.8,12.7,690.4,12.7L690.4,12.7z"/>
<text transform="matrix(1 0 0 1 621.62 30.52)" class="st0 st1 st2">100%</text>
<text transform="matrix(1 0 0 1 328.76 30.52)" class="st0 st1 st2">5:00</text>
<text transform="matrix(1 0 0 1 375.1 30.52)" class="st0 st1 st2"> </text>
<text transform="matrix(1 0 0 1 380.4 30.52)" class="st0 st1 st2">AM</text>
<path id="Wi-Fi" class="st0" d="M112.6,24.4l-4.2,4.1l-4.3-4.2c2.1-2.3,5.8-2.5,8.1-0.4C112.3,24.2,112.5,24.3,112.6,24.4z
	 M116.9,20.2L116.9,20.2l-2.2,2.1c-3.4-3.5-9-3.7-12.5-0.3c-0.1,0.1-0.2,0.2-0.3,0.3l-2.2-2.1c4.7-4.7,12.3-4.8,17-0.1
	C116.9,20.1,116.9,20.2,116.9,20.2L116.9,20.2z M121.3,16l-2.2,2.1c-5.9-5.9-15.4-6-21.4-0.2L97.6,18l-2.1-2
	C102.6,8.9,114.1,8.9,121.3,16L121.3,16z"/>
<path id="Mobile-Signal" class="st0" d="M21.2,25.6c-3,0-5.5-2.4-5.5-5.5c0-3,2.4-5.5,5.5-5.5c3,0,5.5,2.4,5.5,5.5
	S24.2,25.6,21.2,25.6L21.2,25.6z M35.1,25.6c-3,0-5.5-2.4-5.5-5.5s2.4-5.5,5.5-5.5c3,0,5.5,2.4,5.5,5.5S38.1,25.6,35.1,25.6
	L35.1,25.6z M49,25.6c-3,0-5.5-2.4-5.5-5.5c0-3,2.4-5.5,5.5-5.5c3,0,5.5,2.4,5.5,5.5C54.5,23.1,52,25.6,49,25.6L49,25.6z M62.9,25.6
	c-3,0-5.5-2.4-5.5-5.5c0-3,2.4-5.5,5.5-5.5c3,0,5.5,2.4,5.5,5.5C68.3,23.1,65.9,25.6,62.9,25.6L62.9,25.6L62.9,25.6z M76.8,25.6
	c-3,0-5.5-2.4-5.5-5.5s2.4-5.5,5.5-5.5c3,0,5.5,2.4,5.5,5.5C82.2,23.1,79.8,25.6,76.8,25.6L76.8,25.6L76.8,25.6z"/>
</svg>
