<svg id="Layer_1" xmlns="http://www.w3.org/2000/svg" viewBox="0 0 354 629.7"><style>.st0{fill:#fefefe}.st1{fill:#b1b1b1}.st2{fill:#ea5180}.st3{fill:#b6b6b6}.st4{fill:#919191}.st5{fill:#929292}.st6{fill:#ea5181}.st7{fill:#e95180}.st8{fill:#d8d8d8}.st9{fill:#d7d7d7}.st10{fill:#9d9d9d}.st11{fill:#a3a3a3}.st12{fill:#ec6b94}.st13{fill:#a0a0a0}.st14{fill:#9e9e9e}.st15{fill:#a2a2a2}.st16{fill:#ec6a94}.st17{fill:#a9a9a9}.st18{fill:#a6a6a6}.st19{fill:#ec6a95}.st20{fill:#ec6e97}.st21{fill:#ec6d96}.st22{fill:#a5a5a5}.st23{fill:#a4a4a4}.st24{fill:#a7a7a7}.st25{fill:#a1a1a1}.st26{fill:#ee83a6}.st27{fill:#ec6d97}.st28{fill:#fefbfc}.st29{fill:#fdfafb}.st30{fill:#fdfbfc}.st31{fill:#fefcfd}.st32{fill:#fefcfc}.st33{fill:#fcf4f7}.st34{fill:#fdf7f9}.st35{fill:#fbe8ef}.st36{fill:#fefdfe}.st37{fill:#fefdfd}.st38{fill:#fae6ed}.st39{fill:#fbe9ef}.st40{fill:#fafafa}.st41{fill:#fbfbfb}.st42{fill:#fdfdfd}.st43{fill:#f2f2f2}.st44{fill:#fcfcfc}.st45{fill:#f3f3f3}.st46{fill:#eb608d}.st47{fill:#ea5684}.st48{fill:#ea5685}.st49{fill:#ea5785}.st50{fill:#eb608c}.st51{fill:#ea5382}.st52{fill:#ea5281}.st53{fill:#030303}.st54{font-family:&apos;ArialMT&apos;}.st55{font-size:11.22px}</style><title>Asset 1pink-timings</title><path class="st0" d="M.5 580.6V2.5C.5.7.9.4 2.6.4h348.3c1.8 0 2.1.4 2.1 2.1v623.2c0 1.8-.4 2.1-2.1 2.1H2.6c-1.8 0-2.2-.4-2.2-2.1.1-14.9 0-29.8 0-44.6.7-.4 1.5-.2 2.3-.2h347.1c.6 0 1.2-.1 1.7 0-1.1-.1-2.4 0-3.8 0H3.4c-.9-.1-2 .1-2.9-.3z"/><path class="st1" d="M.5 580.6h351.2v.5H.5v-.5z"/><path class="st2" d="M176.3 323.4H37.5c-6.2 0-8.9-2.7-8.9-9v-60.1c0-5.7 2.9-8.6 8.7-8.6h278.1c5.9 0 8.7 2.8 8.7 8.8v60.3c0 5.7-2.9 8.6-8.7 8.6H176.3zM176 488.9H37.4c-6.1 0-8.9-2.8-8.9-8.8v-60.8c0-5.6 2.9-8.5 8.5-8.5h278.6c5.5 0 8.4 2.9 8.4 8.6v61c0 5.6-2.9 8.5-8.5 8.5H176zM176 158.4H37.4c-6.1 0-8.9-2.8-8.9-8.8V88.8c0-5.6 2.9-8.5 8.5-8.5h278.6c5.5 0 8.4 2.9 8.4 8.6v61c0 5.6-2.9 8.5-8.5 8.5H176z"/><path class="st3" d="M121.9 533.3c0-1-.1-1.9 1.6-1.5 1.5.4 3.3.1 4.9.1h192.1c1.1 0 3.2-.7 3.2.8 0 1.8-2.1 1-3.2 1H129.4c-2.3 0-4.5.1-6.8.1-.5.2-.7 0-.7-.5zM121.9 367.8c0-1-.1-1.9 1.6-1.5 1.5.4 3.3.1 4.9.1h192.1c1.1 0 3.2-.7 3.2.8 0 1.8-2.1 1-3.2 1H130.1c-2.5 0-5 .1-7.5.1-.5.2-.7 0-.7-.5zM121.9 202.8c0-1-.1-1.9 1.6-1.5 1.5.4 3.3.1 4.9.1h192.1c1.1 0 3.2-.7 3.2.8 0 1.8-2.1 1-3.2 1H130.1c-2.5 0-5 .1-7.5.1-.5.1-.7 0-.7-.5z"/><path class="st4" d="M44.6 611.4h-7.2c-2.4 0-4.5-.7-5.6-3.1-1.1-2.4.4-4 2-5.5 2.6-2.5 5.2-5.1 7.9-7.6 1.7-1.6 4.9-1.6 6.5 0 2.6 2.6 5.2 5.3 7.8 8 1.3 1.3 2.4 2.7 1.7 4.7-.8 2.3-2.6 3.2-4.9 3.4-2.8.2-5.5 0-8.2.1z"/><path class="st5" d="M299.6 593.7c.2-1-2.2-1.7-1-3 1.1-1.2 2 .8 3.2.7.6-.6-.1-1.2-.3-1.8-.1-.7-.4-1.4.5-1.8.8-.4 1 .4 1.5.8.4.4.6.9 1.2 1 1.2-.8-.4-3 1.5-3.2 1.4-.1.8 1.9 1.9 2.4 1.3-.3.5-2.8 2.1-2.4 1.6.3.4 2.3 1.3 3.2 1.3-.1 1.3-2.6 2.8-1.7 1.5.9-.4 2.2-.1 3.4 1.2.5 2.3-1.9 3.4-.5 1 1.2-1.1 1.8-1.1 3 .9 1.1 2.9-1 3.3.9.3 1.3-1.6 1.3-2.1 2.2 0 .1 0 .3.1.3.8.7 2.6 0 2.7 1.3.1 1.7-2.1.8-2.8 1.8.3 1.2 2.7.9 2.1 2.6-.6 1.7-2.3-.2-3.3.7-.2 1.2 2.2 1.9 1 3.2-1 1-2-.8-3.2-.7-.8 1.1 1.5 2.6-.1 3.5-1.5.8-1.5-1.7-2.8-1.7-1 .9.4 2.9-1.2 3.2s-.9-1.9-2.2-2.4c-1.2.3-.5 2.8-2.1 2.4-1.5-.3-.4-2.3-1.3-3.2-1.3.1-1.3 2.6-2.9 1.7-1.5-.9.4-2.2.1-3.4-.5-.4-.8.1-1.2.2-.7.2-1.5 1.3-2.3.3-.6-.8.2-1.4.7-2l.6-.9c-1-1.1-2.8.8-3.3-.8-.5-1.5 1.6-1.4 2.1-2.5-.5-1.3-3 0-2.8-1.9.1-1.4 2.1-.6 2.8-1.5-.3-1.3-2.6-1-2.1-2.6.6-1.8 2.3.5 3.3-.8z"/><path class="st4" d="M230.3 612.2c-.5-2.3-.7-4.4-1.3-6.3-1.4-5.1-4.5-6.9-9.7-5.6-1.7.4-3.4 1.1-4.9 2.1-1 .7-1.7.7-2.3-.4-.6-1.1-.7-2.1.6-2.7.6-.3 1.3-.5 1.9-.8 1.6-.6 2.6-1.7 2.5-3.5-.1-2-1.4-3.1-3.2-3.6-2.1-.6-4.3-.7-6.5-.7 2.2-1.4 4.6-2.4 7.2-2.7 2.8-.3 4.9.8 6.3 3.2 1.2 2 2.4 3.3 5 2.4 1.1-.4 3-.7 1.7 1.8-.3.6.5 1 1 1.4 1.9 1.2 2.6 3 2.6 5.1.3 3.4.4 6.8-.9 10.3z"/><path class="st6" d="M131.3 591.6v-4.2c0-1 .3-1.7 1.4-1.7 1.1 0 1.5.7 1.5 1.7 0 2.6.1 5.3 0 7.9-.1 1.6.3 2.2 2 2.1 2.6-.1 5.1 0 7.7 0 1 0 1.9.2 2 1.4 0 1.3-.9 1.4-1.9 1.4-2.6 0-5.3.1-7.9 0-1.5-.1-1.9.5-1.8 1.9.1 2.6 0 5.3 0 7.9 0 1-.2 1.9-1.5 1.9s-1.4-1-1.4-2c0-2.6-.1-5.1 0-7.7.1-1.7-.6-2.1-2.1-2-2.6.1-5.1 0-7.7 0-1 0-2-.2-1.9-1.4 0-1.3 1-1.4 2-1.4 2.6 0 5.3-.1 7.9 0 1.4.1 2-.4 1.8-1.8-.2-1.3-.1-2.7-.1-4z"/><path class="st7" d="M94.9 368.4c-21 0-42 0-63.1-.1-1.1 0-3.1.8-3-.9 0-1.7 2-.9 3.1-.9 20.7-.1 41.4-.1 62.1 0 .7 0 1.8-.5 1.9.9.3.9-.1 1.3-1 1z"/><path class="st2" d="M94.9 203.4c-21 0-42 0-63.1-.1-1.1 0-3.1.8-3-.9 0-1.7 2-.9 3.1-.9 20.7-.1 41.4-.1 62.1 0 .7 0 1.8-.5 1.9.9.3.9-.1 1.2-1 1zM94.9 533.9c-21 0-42 0-63.1-.1-1.1 0-3.1.8-3-.9 0-1.7 2-.9 3.1-.9 20.7-.1 41.4-.1 62.1 0 .7 0 1.8-.5 1.9.9.3.9-.1 1.3-1 1z"/><path class="st8" d="M94.9 533.9c.7 0 1.1-.3 1.1-1 .7 4.2 2.6 7.6 6.1 9.9 7.6 5 18.1.4 19.5-8.6 0-.3.2-.6.3-.8l.6.6c-.5 2.6-1.1 5.1-2 7.6-1.7 4.3-7.2 7.7-12.1 7.6-4.9-.1-9.1-2.7-11.2-7.7-1.1-2.5-1.6-5.1-2.3-7.6z"/><path class="st9" d="M94.9 368.4c.7 0 1-.4 1.1-1 .6 4.2 2.6 7.6 6.1 9.9 7.6 5.1 18.1.4 19.5-8.6 0-.3.2-.6.3-.8l.6.6c-.7 2.9-1.4 5.8-2.7 8.6-2 4.3-7.7 6.3-12.1 6-7.2-.4-10.3-5-12-11.2-.2-1.3-.5-2.4-.8-3.5zM94.9 203.4c.7 0 1-.4 1.1-1 .6 4.2 2.6 7.6 6.1 9.9 7.6 5.1 18.1.4 19.5-8.6 0-.3.2-.6.3-.8l.6.6c-.7 2.9-1.4 5.8-2.7 8.6-2 4.3-7.7 6.3-12.1 6-7.2-.4-10.3-5-12-11.2-.2-1.3-.5-2.4-.8-3.5z"/><path class="st5" d="M44.5 593.3c-2.5 0-4.3-1.7-4.2-4 0-2 2-3.9 4.2-3.9 2.4 0 4.5 2 4.4 4.2-.1 2.1-2 3.7-4.4 3.7z"/><path class="st10" d="M191.9 623.7c-1.1-1.5-2.2-2.9-3.4-4.6-.6 1.5.1 3-.8 4.3-.6-1.8-.5-3.7-.3-5.6.1-1.1.8-.7 1.2-.1.9 1.2 1.8 2.5 3 4.1.1-1.9.1-3.3.2-4.6h.6c.4 2 .2 4.1.1 6.2l-.6.3z"/><path class="st11" d="M316.6 624.2c.9.2 1.6.3 2.3.3.5 0 .9-.2.9-.8-.1-.7-.5-.3-.9-.2-1.2.2-2-.3-2.3-1.4-.3-1.1-.3-2.1.6-3 1.1-1.1 2.8-.5 3.2-.1 1.1 1 .3 2.7.5 4.1.1 1-.2 1.9-1.2 2.3-1.3.3-2.3.2-3.1-1.2z"/><path class="st12" d="M140.4 624.4c.7-.5 1 .2 1.6.2s1.5.1 1.5-.7c0-1.4-.9-.2-1.3-.3-1.7-.3-2.1-1.4-2-2.8.1-1.4.7-2.3 2.4-2.1 1.5.1 2.4.5 2 2.3-.1.7 0 1.4 0 2.1 0 1.1-.2 2.1-1.3 2.4-1.2.2-2.3 0-2.9-1.1z"/><path class="st13" d="M290.4 621.8c.2.2.5.3.7.5.9.7 2.1 1 2.6-.2.5-1.1-.8-1.2-1.6-1.5-1-.3-2-.7-1.9-2 .1-1 .6-1.6 1.6-1.7 1.1-.1 2.3-.2 2.7 1.3-.7.5-.9-.1-1.2-.3-.9-.5-1.8-.5-2.1.5-.3.8.6 1.1 1.3 1.3 1.2.3 2.4.6 2.3 2.1 0 .9-.7 1.6-1.7 1.7-1.3.2-2.6.2-2.7-1.7z"/><path class="st14" d="M52.4 618.9c-1.4-.5-2.5-2.1-3.8-.6-.9.9-1 2-.5 3.2.2.5.5.9 1 1.2 1 .4 1.8.3 2.4-.6.9-1.4-.9-.9-1.3-1.5 1-.3 1.9-.6 2.4.2.5.7-.1 1.5-.6 2.1-.9 1.1-2.3 1.1-3.4.6-1.5-.7-1.9-2.2-1.7-3.7.2-1.3.8-2.6 2.4-2.7 1.4-.2 2.6-.2 3.1 1.8z"/><path class="st15" d="M247.8 617c0 1.5.1 3-.1 4.4-.1.7.9 1.9-.9 2-1.3.1-2.8.6-3.3-1.2-.3-1.2-.5-2.7.9-3.3 1.3-.4 2.8-.3 3.4-1.9z"/><path class="st14" d="M220.1 621.7c1 .5 1.5.9 2.1 1.1.7.2 1.5.1 1.7-.7.3-.8-.4-1.1-1-1.3-.1 0-.3-.1-.4-.1-1-.4-2.2-.7-2.1-2.1 0-.8.6-1.3 1.3-1.5 1.2-.3 2.5-.3 3.1 1.1-.4.5-.8.2-1.1 0-.8-.7-1.8-.7-2.2.1-.6 1.2.7 1.3 1.4 1.5 1 .4 2.2.7 2.1 2.1-.1 1-.7 1.5-1.7 1.7-1.4.2-2.6.1-3.2-1.9z"/><path class="st11" d="M194.3 619.5c1-1 2.1-1.5 3.2-.4 1.1 1.2.9 2.8.4 4.1-.1.3-1.9.6-3 .3-.6-.2-1-.8-.8-1.5.2-1.1 1-1.2 1.9-1.3.4 0 1.1.1 1.1-.5 0-.7-.6-.8-1.2-.8-.6.1-1 .7-1.6.1z"/><path class="st16" d="M125.3 619c1.4-.7 3 .3 4.5-.3.6-.2 1.1.9 1.1 1.8-.1 1 .2 2-.3 3.1-1-.8-.4-1.9-.6-2.8-.1-.6-.1-1.3-1-1.3-.8 0-.9.7-1 1.3-.1.9.2 1.8-.5 2.9-.6-.9-.4-1.8-.4-2.5 0-.9-.1-1.8-1.3-1.8-.4.2-.5-.1-.5-.4z"/><path class="st17" d="M236.2 618.8c.6 1.5.8 3.2 0 4.5-.4.6-2.5.6-3.3.1-1.9-1.1-.6-3-1-4.8 1.5.6.9 1.6 1 2.4.1.7-.2 1.7 1 1.7 1-.1 1.8-.6 1.8-1.7v-2c.1-.2.3-.2.5-.2z"/><path class="st18" d="M203.1 618.8c1 .7.6 1.6.7 2.4.1.7 0 1.5 1.1 1.4.9 0 1.2-.6 1.2-1.4 0-.8 0-1.6.2-2.5 1.1 1.4.8 3 .4 4.5-.1.2-2 .8-3 .2-1.7-1.2-.5-3-.6-4.6z"/><path class="st19" d="M134.9 623.8c-.3-1.9-.5-3.5 0-5 1.1.3 2.4-.9 3.3.2 1.1 1.4.7 2.9.4 4.8-1-1-.6-1.8-.7-2.5-.1-.9 0-1.9-1.2-1.8-1 0-1 .9-1.1 1.7-.1.7.2 1.5-.7 2.6z"/><path class="st15" d="M53.7 621.1c.1-1.5.8-2.6 2.4-2.6 1.5 0 2.2 1.2 2.2 2.5 0 1.5-.7 2.5-2.4 2.5-1.6.1-2-1-2.2-2.4z"/><path class="st13" d="M215.7 622.4c-.8 1.4-2 1.6-3 .7-1.2-1.1-1.2-2.5-.2-3.7.8-1 1.8-1.1 2.9-.3.5.4.8 1 .7 1.6s-.6.6-1 .7c-.7.2-1.6-.5-2.1.5-.1.2.2.6.4.8.7.7 1.4-.1 2.3-.3z"/><path class="st15" d="M311.2 624.1c-.4-2.2-.7-3.8.1-5.2.1-.2 2-.8 3 .1 1.3 1.3.8 2.9.5 5-.8-1.2-.5-2.2-.6-3s-.3-1.5-1.2-1.5c-.9 0-1.1.7-1.2 1.5 0 .7.2 1.6-.6 3.1z"/><path class="st13" d="M39.1 622.5c-1 1.3-2.2 1.5-3.3.5-1.1-1.1-1.1-2.5 0-3.7.9-1 1.9-.9 2.9-.1.5.4.7 1 .6 1.7-.1.6-.7.5-1.1.5-.6.1-1.4-.3-1.9.4-.1.1.1.6.3.8.7.8 1.4.3 2-.1 0-.2.2-.1.5 0z"/><path class="st15" d="M238.3 623.9c-.4-2-.6-3.6.1-5 .1-.2 2-.8 3 .1 1.3 1.3.8 2.9.5 4.9-.8-1.2-.5-2.1-.6-3-.1-.8-.2-1.5-1.1-1.5-.9 0-1.1.7-1.2 1.4-.2.9.1 1.8-.7 3.1z"/><path class="st14" d="M300 622.5c-1.6 1.4-2.9 1.6-3.8 0-.7-1.2-.8-2.7.7-3.7 1.2-.8 2.2-.3 2.9.9.5.8.4 1.4-.7 1.6-.7.1-2.3-.8-2 .9.2 1.5 1.6.2 2.9.3z"/><path class="st13" d="M230.5 621.6c0 1-.7 2-2.2 2-1.6 0-2.1-1.1-2.1-2.5 0-1.5.6-2.5 2.1-2.5 1.6-.1 2.3 1.1 2.2 3z"/><path class="st20" d="M117.9 623.6c-1.6-1.9 1.2-5.1-2.7-6.2 2-.6 3.5-.4 5.3-.1-3.9.9-1.2 4.3-2.6 6.3z"/><path class="st21" d="M145.9 622.5c.8-.4 1 .2 1.4.3.5.1 1 .1 1.2-.4.3-.7-.4-.7-.8-.9-.9-.5-2.4-.8-1.4-2.2.9-1.3 2.1-.7 3.2 0-.6 1-1 .1-1.4.1s-.9 0-1 .4c-.2.6.3.8.7.9.8.3 1.7.4 1.8 1.5 0 .6-.3 1.1-.8 1.2-1 .3-2.1.5-2.9-.9z"/><path class="st22" d="M252.9 619.4c-.6.7-1 .1-1.4 0-.5 0-1 0-1.1.5-.1.4.4.6.8.7.8.3 1.7.4 1.8 1.5 0 .7-.4 1.2-1.1 1.3-1 .2-2 .4-2.6-.9.5-.7.8 0 1.2.1.6.3 1.1.2 1.3-.4.2-.6-.5-.7-.8-.9-.9-.4-2.2-.9-1.4-2.1.9-1.2 2.1-.7 3.3.2zM322.3 622.6c.7-.5.9.1 1.3.2.5.2 1 .1 1.2-.4.3-.7-.4-.7-.7-.9-.9-.5-2.4-.8-1.4-2.2.9-1.3 2.1-.8 3.2.1-.5.8-.9.1-1.2.1-.5-.1-1-.1-1.2.4-.1.6.5.7.9.8.8.3 1.7.5 1.7 1.6 0 .7-.5 1.1-1.2 1.2-1.2.1-2.2.3-2.6-.9z"/><path class="st23" d="M30.3 616.8c1.2.9.9 1.6.9 2.1.1 3.2.1 3.2 2.7 4.2-3.2 1-3.6.7-3.6-2.4v-3.9z"/><path class="st24" d="M303.7 623.4c-1.1.4-1.5 0-1.7-.8-.3-1.1.4-2.5-.6-3.5-.1-.1.4-.9.8-1.3s.7.1.8.4c.2.4 1.2.4.5 1.2-1.2 1.3-.7 2.6.2 4zM42.9 623.4c-1.1.3-1.6-.1-1.7-.9-.3-1.1.4-2.5-.7-3.5-.1-.1.4-.9.8-1.2.4-.4.7.1.9.4.2.4 1.1.4.4 1.2-1.2 1.3-.7 2.7.3 4z"/><path class="st25" d="M305.8 617.6c2.1 1.7-1.2 4.3 1.4 5.8-2-.4-2.7-3.8-1.4-5.8zM201.5 623.4c-1.2.2-1.6-.3-1.7-1-.2-1.1.1-2.3-.4-3.4-.1-.3.4-1 .7-1.3s.5.2.6.5c.2.4 1 .4.4 1.2-1.1 1.3-.6 2.7.4 4z"/><path class="st23" d="M209 624.1c-1.2-4.7-.9-5.3 2.2-5.1-2.7.6-1.4 2.9-2.2 5.1z"/><path class="st26" d="M125.3 619c.2.1.3.3.5.4-1.3 1.1-.5 2.8-1.3 4.4-.9-1.8-.7-3.3-.3-4.8.1-.7.7-.1 1.1 0z"/><path class="st22" d="M309.1 623.4c-.7-1.5-.7-3.1-.2-5.1 1 2 .5 3.5.2 5.1z"/><path class="st20" d="M132.8 623.4c-.7-1.6-.5-3.1-.1-4.7.8 1.6.6 3.1.1 4.7z"/><path class="st27" d="M122 618.8c.8 1.5.5 3.1.2 4.7-.9-1.6-.7-3.2-.2-4.7z"/><path class="st0" d="M168.7 283.5c4.6-4 9.5-4.7 13.9-2.3 4.7 2.6 6.5 8.4 4.4 14.1-2 5.5-7.4 8.5-13 7.3-4.7-1-7.8-3.9-9-8.5-1.6-6.4-1.3-12.8.9-19 2.3-6.3 7.4-9 13.9-7.6 3.6.7 5.8 2.9 6.7 6.3.2.8 1 2.1-.2 2.3-1.3.2-3.1 1.1-4-1-1.4-3.4-3.1-4.3-6.4-4-1.7.2-3.1 1-4.2 2.3-2.3 2.8-2.9 6.3-3 10.1z"/><path class="st28" d="M266.6 285.9v-1.6c0-2.2 0-2.2 2.3-1.8.2 0 .5-.2.8-.4.3-.2.8-.6 1-.5 2.2 1.2 4.4.1 6.6.1 1 0 1.7.9 1.7 1.9.1 1.9.1 3.7.1 5.6 0 .7-.3 1-1 1s-1.3-.1-1.3-1v-4c0-.9-.2-1.8-1.3-1.9-1.2 0-1.6.8-1.6 1.9v3.7c0 .7-.1 1.2-1 1.2s-1-.5-1-1.2v-3.5c0-1-.2-2-1.4-2-1.3 0-1.6 1-1.6 2.1v3.5c0 .8-.3 1.1-1.1 1.1-.7 0-1.2-.2-1.2-1v-3.2z"/><path class="st29" d="M49.7 285.9v-1.6c0-2.3 0-2.3 2.3-1.8.5.1.7-.3 1-.5 2.4-1.2 4.4-.1 4.5 2.6.1 1.5 0 3 0 4.4 0 .7-.2 1.2-1 1.2-.9 0-1.3-.3-1.3-1.2v-3.7c0-1-.3-1.8-1.4-1.9-1.1-.1-1.7.7-1.8 1.7-.1 1.2-.1 2.5-.1 3.7 0 .8 0 1.4-1.1 1.4-.9 0-1.2-.4-1.2-1.3.1-.9.1-1.9.1-3z"/><path class="st30" d="M90.5 283.9c.4-2.2 2.1-2.3 3.7-2.4 1.7 0 3.2.6 3.3 2.6.2 1.7.1 3.4.1 5.1 0 .9-.6 1.3-1.2.9-1.2-.7-2.3-.1-3.4.1-1.4.2-2.5-.3-2.8-1.8s.3-2.6 1.8-3c.6-.1 1.2-.2 1.8-.4.5-.1 1.1.2 1.4-.5.2-.4-.1-.7-.4-1-.5-.5-1.2-.6-1.7-.2-.8.7-1.6 1-2.6.6z"/><path class="st31" d="M69.5 290.3c-2.7-.1-4-1.4-4.1-3.9-.1-2.8 1.2-4.6 3.6-4.8 2.2-.2 3.9 1.1 4.3 3.4.2 1.1 0 1.6-1.2 1.6-.9-.1-1.9-.1-2.8 0-.5.1-1.6-.6-1.6.6.1 1.1.9 1.7 2 1.5.7-.1 1.3-.6 1.9-.8.4-.1 1-.2 1.3.3.2.5-.2.9-.6 1.2-.9.8-1.9 1-2.8.9zM285.1 290.3c-2.6 0-4-1.3-4.2-3.8-.2-2.8 1.1-4.6 3.5-4.9 2.2-.3 3.9.9 4.4 3.2.3 1.1.2 1.8-1.3 1.7-.9-.1-1.9-.1-2.8 0-.5 0-1.4-.4-1.5.5-.1.8.6 1.5 1.4 1.6.4.1.9 0 1.3-.2.8-.4 2-1.2 2.4-.1.3 1.1-1.1 1.6-2.2 1.9-.4.1-.8.1-1 .1z"/><path class="st28" d="M293.9 290.3c-.9 0-1.9 0-2.7-.6-.5-.4-1.2-.8-.8-1.5.3-.6 1.1-.4 1.7-.2.4.1.8.5 1.2.7.7.3 1.6.2 1.8-.5.3-.9-.5-1.1-1.2-1.2-.4-.1-.7-.2-1.1-.3-1.4-.3-2.6-1-2.4-2.6.1-1.4 1.2-2.1 2.5-2.4 1.6-.3 3.1-.2 4.2 1.3.1.2.2.7.1.8-.3.4-.9.4-1.3.2-1-.4-2.5-1.7-2.9-.3-.5 1.6 1.7 1.2 2.7 1.6 1.2.5 2.3 1.1 1.9 2.7-.4 1.6-1.6 2.3-3.7 2.3zM106.8 290.3c-.4 0-.9 0-1.3-.1-.9-.2-1.6-.6-2.1-1.4-.1-.2-.3-.7.1-.8.9-.3 1.6-.2 2.4.4s1.9.6 2.2-.3c.4-1.1-.8-1-1.5-1.3-1.7-.5-3.8-.7-3.2-3.3.4-1.7 3.1-2.5 5.2-1.7.8.3 1.8.9 1.5 1.8-.4 1-1.4.5-2.1 0-.8-.5-1.9-.8-2.2.2-.4 1.2.9 1.1 1.7 1.3 1.5.5 3.3.6 3.1 2.7-.3 2.1-1.9 2.5-3.8 2.5zM256.8 279h3.3c.6 0 1.3 0 1.3.9s-.6 1.1-1.2 1c-2.2-.4-2.2.9-2.1 2.5.1 1.7 0 3.4 0 5.1 0 .9.1 1.7-1.2 1.7-1.4 0-1.1-1-1.1-1.8 0-1.8-.1-3.6 0-5.4.1-1.5-.2-2.4-2-2.2-.6.1-1.3.1-1.3-.9-.1-1.1.7-1 1.4-1 .9.1 1.9.1 2.9.1z"/><path class="st32" d="M81.3 281.8c4.4-.2 2.3 4.1 4.2 5.4 1.8-1.3-.1-5.4 4.2-5.5-.9 2.7-1.8 5-2.5 7.4-.3.9-.8 1.2-1.7 1.2-.9 0-1.4-.3-1.7-1.2-.8-2.4-1.6-4.7-2.5-7.3z"/><path class="st29" d="M62.7 290.2c-1.5-.1-2.4-.8-2.5-2.5-.1-1.6.6-3.3-1.1-4.9-.6-.5 1-2.3 1.8-3.2.7-.7 1.6.2 1.6 1.4 0 .6.6.6 1 .7.8.3.7.9.3 1.5-1.8 2.2-1.9 3.1 0 5.3.3.3.4.7.2 1.1-.1.9-.8.5-1.3.6z"/><path class="st33" d="M101.5 284.3v4.4c0 .8 0 1.5-1.2 1.5-1 0-1.1-.6-1.1-1.4v-8.9c0-.8.1-1.5 1.2-1.5 1.2 0 1.1.9 1.1 1.6.1 1.5 0 2.9 0 4.3z"/><path class="st34" d="M75.9 281.8c.9 1 2 0 3.2-.2.7-.1 1.3-.1 1.4.8.1.7-.1 1.3-.9 1.2-2.4-.2-2.8 1.3-2.7 3.3v1.9c0 .8 0 1.5-1.2 1.5-1 0-1.1-.6-1.1-1.4v-5.8c-.2-.9 0-1.4 1.3-1.3z"/><path class="st30" d="M45.3 284.4v-4.2c0-.9.3-1.3 1.2-1.2 1 0 1.2.5 1.2 1.3v8.6c0 .8-.1 1.3-1.1 1.4-1.1 0-1.3-.5-1.3-1.4v-4.5z"/><path class="st33" d="M264.7 286.2v3c0 .8-.4 1.1-1.1 1.1-.8 0-1.1-.3-1.1-1.1V283c0-.9.4-1.2 1.3-1.2s1 .5 1 1.2c-.1 1-.1 2.1-.1 3.2z"/><path class="st35" d="M264.8 279.3c-.2.7-.6 1.1-1.3 1.1-.7 0-1.2-.4-1.2-1.1s.7-1 1.3-1c.7 0 1.1.4 1.2 1z"/><path class="st36" d="M183.6 447c1.9-.9 3.2-1.6 4.7-2.1 2.1-.8 4 .1 6 .8 5 1.8 7.6 5.7 7.3 11.2-.2 5.4-3.4 9.6-8.2 10.9-3.5.9-6.9.8-10.2-.8-2.4-1.2-4.1-3.1-4.8-5.7-.2-.8-1.1-2.3.4-2.5 1.3-.2 3.1-1.2 3.9 1.1 1.3 3.5 4.1 5.1 7.7 4.6 3.2-.4 5.6-2.5 6.4-5.6.9-3.6-.3-6.9-3-8.7-2.5-1.6-6.6-1.5-9 .3-.4.3-.7.6-1 .9-1.2 1.2-2.7.8-3.9.5-1.2-.4-.2-1.6-.1-2.4.6-4.9 1.3-9.9 1.9-14.8.2-1.3.6-1.9 2.1-1.8 4.8.1 9.7.1 14.5 0 1.9-.1 1.7 1 1.7 2.2.1 1.4-.1 2.1-1.8 2.1-3.7-.1-7.5 0-11.2 0-.9 0-1.7.1-1.9 1.2-.7 2.6-1.1 5.4-1.5 8.6z"/><path class="st37" d="M166.3 450c0 5.2-.1 10.4 0 15.6.1 2-1.1 1.8-2.4 1.8-1.3 0-2.4.2-2.3-1.8.1-7 0-14 .1-21 0-1.9-.7-2.5-2.4-2.3-1.4.1-2.8 0-4.2 0-1.1 0-1.8-.2-1.7-1.5.1-1.1 0-1.9 1.5-2 3.6-.2 6.7-1.3 7.7-5.5.4-1.7 1.7-.9 2.7-.9 1.2-.1 1 1 1 1.7V450z"/><path class="st31" d="M53.1 449c-.5 1.8-1.1 3.7-1.6 5.5-.2.8-.4 1.3-1.3 1.3-1 0-1.4-.4-1.6-1.3-.7-2.9-1.5-5.7-2.2-8.6-.2-.6-.6-1.6.7-1.8 1-.1 1.5.2 1.7 1.3.3 2.2.9 4.4 1.6 7.3.7-2.8 1.3-5 1.9-7.2.2-.6.1-1.4 1.1-1.5 1.1 0 1.2.7 1.4 1.5.5 2.1 1 4.2 2 6.3.4-2.1 1-4.2 1.3-6.3.2-1.2.6-1.7 1.8-1.5 1.5.2.6 1.3.5 1.8-.7 2.9-1.6 5.9-2.3 8.8-.2.9-.6 1.1-1.4 1.1-.9 0-1.2-.5-1.4-1.2-.5-1.9-1-3.7-1.5-5.6-.3 0-.5 0-.7.1z"/><path class="st28" d="M76.8 451.4v-3c0-.5.2-1.3.6-1.1 2.1 1.2 4.6-1.6 6.5.6.6.7.8.1 1.3-.1 2.6-1.6 4.6-.6 4.6 2.5v4.2c0 .7-.1 1.2-1 1.2s-1.3-.3-1.3-1.2v-4c0-.9-.3-1.6-1.3-1.6s-1.6.7-1.6 1.6c-.1 1.3 0 2.6 0 4 0 .7-.1 1.2-1 1.2s-1-.5-1-1.2v-3.7c0-.9-.3-1.8-1.4-1.8-1.2 0-1.6.9-1.6 1.9v2.8c-.1.9.5 2.1-1.3 2.1-1.9 0-1.4-1.2-1.4-2.2-.1-.8-.1-1.5-.1-2.2zM247.6 443.9c1.1 0 2.3.4 3 1.8.3.6.8 1.1.3 1.7-.5.5-1.3.4-1.8-.2-.6-.7-1.3-1.1-2.2-1-.7.1-1.4.3-1.6 1.2-.2.9.4 1.3 1.2 1.5 1 .3 2.1.5 3.1.9 2.2 1 2.7 3.5.9 5.1-1.6 1.6-5.3 1.6-6.9 0-.5-.5-1.4-1.2-.7-1.9.5-.6 1.5-.4 2.1.3.8.9 1.7 1.3 2.9.9.6-.2 1.2-.5 1.2-1.2.1-.8-.4-1.1-1.1-1.3-.7-.2-1.4-.3-2-.5-1.8-.5-3.4-1.3-3.1-3.6.3-2.5 1.8-3.7 4.7-3.7z"/><path class="st30" d="M296.3 448.3v-3.7c0-.8.3-1.1 1.1-1.1s1.1.3 1.1 1.1v10c0 1-.9 1.5-1.3 1.1-1.3-1.6-2.3 0-3.3.1-1.6.1-2.7-.5-3.4-1.9-.8-1.8-.5-4.8.8-5.9 1.2-1 2.5-1.1 3.9-.3.3.2.6.3 1.1.6zM103.4 454.6v2.9c0 .7-.3 1-1 1s-1.3-.1-1.3-.9v-9.3c0-.8.7-1.4 1.1-1 1.3 1.3 2.4-.1 3.6-.1 1.6-.1 2.8.5 3.3 2 .6 2 .8 4-.7 5.7-1.4 1.4-3.1 1.1-5-.3z"/><path class="st29" d="M280.6 451.5v-2.3c-.1-1.7.5-2.7 2.2-1.4.8.6.9-.2 1.3-.4 2.2-1 4.2 0 4.4 2.4.1 1.5 0 3.1 0 4.7 0 .9-.3 1.3-1.2 1.2-1 0-1.1-.6-1.1-1.4v-3.5c0-1.1-.3-1.9-1.5-1.9-1.1 0-1.6.8-1.7 1.9-.1 1.2 0 2.5 0 3.7 0 .7-.1 1.2-1 1.2s-1.3-.3-1.3-1.2c0-1-.1-2-.1-3z"/><path class="st30" d="M61 449.4c.5-2.2 2.3-2.3 4-2.3 1.9 0 3 1.1 3.2 3 .1.9 0 1.7 0 2.6s.2 2.1-.3 2.7c-.6.8-1.6.6-2.3-.4 0-.1-.7.5-1.2.6-1.5.3-3.1.4-3.7-1.5-.6-1.9.4-2.9 2.3-3.3.5-.1.9-.1 1.4-.2.6-.1 1.7.3 1.3-.9-.2-.9-1.1-1.2-1.9-.8-.8.4-1.6 1.1-2.8.5zM99.1 451.6v1.9c0 1.7.1 3.4-2.4 1.7-.6-.4-.7.3-1.1.5-2.1.8-3.9 0-4.2-2.2-.3-1.7-.1-3.4-.2-5.1 0-.8.5-1 1.2-1 .8 0 1.1.4 1.1 1.1v3.7c0 1.1.4 1.8 1.7 1.8 1.2 0 1.6-.8 1.6-1.8v-3.7c0-.8.4-1.1 1.1-1.1s1.2.2 1.2 1v3.2z"/><path class="st28" d="M279.2 451.6c0 2.7-1.5 4.2-4.2 4.2-2.6 0-4-1.6-4-4.4 0-2.7 1.7-4.5 4.3-4.4 2.5.1 4 1.8 3.9 4.6z"/><path class="st31" d="M257.1 455.8c-2.7 0-4.1-1.3-4.2-3.8-.2-2.8 1.1-4.6 3.5-4.9 2.3-.3 3.9 1 4.4 3.2.3 1.1.1 1.8-1.3 1.7-.8-.1-1.7-.1-2.6 0-.6.1-1.8-.6-1.7.7.1 1.1 1 1.5 2.1 1.4.2 0 .4-.1.7-.2.8-.4 2-1.2 2.3-.1.4 1-1 1.5-2 1.9-.5.1-1 .1-1.2.1z"/><path class="st28" d="M303.6 455.8c-.4 0-.9 0-1.3-.1-.8-.2-1.6-.6-2-1.4-.1-.3-.2-.7.2-.8.8-.2 1.5-.1 2.2.4.9.6 2 .7 2.4-.3.3-1-.9-1-1.6-1.2-.5-.1-1.1-.3-1.6-.5-.9-.4-1.6-1-1.7-2-.1-1.1.6-2 1.6-2.4 1.6-.7 3.2-.7 4.6.4.4.3.9.8.6 1.4s-1 .4-1.5.3c-1-.4-2.4-1.7-2.9-.1-.4 1.4 1.5 1 2.4 1.4 1.3.5 2.6.9 2.3 2.7-.3 1.9-1.9 2.2-3.7 2.2zM261.7 451.6c-.1-1.9.4-3.5 2.3-4.2 1.6-.6 3.2-.6 4.5.7.5.5 1.1 1.1.6 1.8-.4.5-1.3.5-1.9-.1-.9-1-1.8-1.4-2.7-.3-1 1.2-1 2.7-.1 3.9.8 1.1 1.9.9 2.8 0 .6-.6 1.4-.7 1.9-.2.6.8-.2 1.5-.8 1.9-1.3 1.1-2.9 1.1-4.4.5-1.7-.8-2.3-2.3-2.2-4z"/><path class="st34" d="M69.8 451.4v-2.1c0-2.2 0-2.2 2.2-1.6.8.2 1-.5 1.6-.6.7-.1 1.4-.4 1.7.6.2.8-.1 1.3-1.1 1.3-1.8 0-2.1 1.2-2.1 2.7v2.8c0 .8-.3 1.1-1.1 1.1-.7 0-1.2-.2-1.2-1v-3.2z"/><path class="st0" d="M200.2 119.2c.1 3.8-.4 7.5-1.9 10.9-1.8 3.9-4.8 6.1-9.1 6.2-4.4 0-7.7-2-9.4-6.1-2.9-7.2-2.8-14.4.1-21.6 1.7-4 4.9-6 9.2-5.9 4.4.1 7.7 2.2 9.5 6.3 1.3 3.4 1.7 6.8 1.6 10.2zM168.9 118c4.4 2.8 5.8 5.7 5 10-.8 4.2-3.8 7-8.4 8-7 1.5-12.5-1.5-13.9-7.5-.6-2.7 0-3.3 2.7-3.1 1.4.1 1.3 1 1.4 1.9.7 3.3 2.5 4.9 5.7 5.2 3.6.4 6.7-1.2 7.8-3.9 1.5-3.8-.6-7.5-4.7-8.1-.8-.1-1.6-.2-2.3-.1-1.5.1-2-.4-2-2s.8-1.7 2-1.7c4.5-.1 6.4-1.8 6.3-5.4-.1-2.4-1.6-4.2-4.3-4.7-3-.7-6.1.6-7.2 3-.3.6-.6 1.2-.6 1.8.1 2.4-1.5 2.2-3.1 2.1-1 0-1.3-.3-1.2-1.4.6-6.9 5.8-10.6 12.9-9.2 5.6 1.1 8 4.2 7.6 9.6-.1 2.6-1.5 4.2-3.7 5.5z"/><path class="st31" d="M250.4 118.5v4.5c0 .8.2 1.8-1.2 1.8-1.3 0-1-.9-1-1.6v-7.9c0-.7-.3-1.6 1-1.7 1 0 1.8 0 2.2 1.1.8 2.1 1.7 4.2 2.7 6.7 1-2.4 1.9-4.4 2.6-6.4.4-1.4 1.3-1.6 2.5-1.4 1.4.2.8 1.3.8 2.1.1 2.6 0 5.1 0 7.7 0 .7.1 1.4-1 1.4s-1-.7-1-1.4c0-1.8 0-3.6-.4-5.6-.7 1.7-1.4 3.4-2.1 5-.3.6-.4 1.4-1.3 1.4s-1-.8-1.3-1.4c-.6-1.5-1.2-2.9-1.9-4.4-.2 0-.4.1-.6.1zM42.5 119.1c0-.5-.2-1.2 0-1.6.6-1.3-1.4-3.6 1.2-3.9 4.7-.6 7.6.9 8.1 3.8 1 5.5-3.2 9-8.6 7.3-.9-.3-.7-.9-.7-1.4v-4.2z"/><path class="st29" d="M107.1 121.1v2.6c0 .8-.4 1.1-1.1 1.1s-1.2-.2-1.2-1.1v-3.5c0-1.1-.1-2.2-1.4-2.2-1.4 0-1.8 1-1.8 2.2v3.3c0 .8-.2 1.3-1.2 1.3-.8 0-1.1-.4-1.1-1.1v-6.3c0-.6.4-1.3.9-1 1.5.8 2.7-.2 4-.3 1.6 0 2.7.8 2.8 2.5.1.8 0 1.7.1 2.5-.1 0-.1 0 0 0zM266.1 120.5v-2.3c-.1-1.7.5-2.7 2.2-1.4.8.6.9-.2 1.3-.4 2.2-1 4.2 0 4.4 2.4.1 1.5 0 3.1 0 4.7 0 .9-.3 1.2-1.2 1.2-1 0-1.1-.6-1.1-1.4v-3.5c0-1.1-.3-1.9-1.5-1.9-1.1 0-1.6.8-1.7 1.9-.1 1.2 0 2.5 0 3.7 0 .7-.1 1.2-1 1.2s-1.3-.3-1.3-1.2c0-1-.1-2-.1-3z"/><path class="st30" d="M69.8 118.3c1.1-2.3 2.8-2.4 4.8-2.1 1.9.3 2.5 1.6 2.5 3.3v4c0 .9-.4 1.6-1.2 1.2-1.2-.7-2.3-.1-3.4.1-1.4.2-2.5-.3-2.8-1.8s.3-2.6 1.8-3c.6-.2 1.2-.2 1.8-.4.5-.1 1.1.2 1.4-.4.2-.4-.1-.7-.4-1-.5-.5-1.2-.6-1.7-.2-.8.5-1.6.9-2.8.3zM61.7 120.5v2.1c.1 1.7-.1 3.2-2.3 1.6-.6-.4-.7.2-1.1.4-2.2.9-4 0-4.3-2.3-.2-1.6-.1-3.2-.1-4.9 0-.8.4-1.1 1.1-1.1 1 0 1.2.5 1.2 1.3v3.3c0 1.1.2 2.1 1.6 2.1 1.5 0 1.7-1 1.7-2.2v-3.3c0-.9.4-1.2 1.3-1.2.8 0 1 .5 1 1.2-.1.9-.1 2-.1 3zM283.8 120.6v1.9c0 1.8 0 3.4-2.4 1.7-.5-.3-.6.2-.9.4-2.4 1-4.2 0-4.5-2.6-.2-1.5 0-2.9-.1-4.4 0-.9.4-1.2 1.3-1.2.8 0 1.1.4 1 1.2 0 .8-.1 1.6 0 2.3.1 1.3-.5 3.2 1.7 3.1s1.5-1.9 1.6-3.2c.1-.8 0-1.6 0-2.3 0-.8.4-1.1 1.2-1.1.8 0 1.2.3 1.1 1.1v3.1z"/><path class="st28" d="M93.8 124.8c-2.6 0-4.1-1.5-4.1-4.2 0-2.8 1.6-4.6 4.2-4.5 2.5 0 4 1.7 4 4.4-.1 2.7-1.5 4.3-4.1 4.3z"/><path class="st31" d="M299.2 122.6c-.9 2-2.7 2.8-5 2.1-1.9-.6-2.9-2.5-2.5-5.2.3-2 1.8-3.4 3.7-3.5 2.2-.1 3.6 1.2 4.1 3.4.3 1.3-.2 1.7-1.4 1.6-.8-.1-1.6-.1-2.3 0-.6.1-1.5-.4-1.8.4-.1.3.2.9.5 1.2.6.6 1.3.8 2.1.4s1.6-.9 2.6-.4z"/><path class="st28" d="M303.9 124.8c-.3 0-.7 0-1.1-.1-.9-.2-1.8-.6-2.2-1.6-.1-.2 0-.5.1-.6.8-.4 1.6-.2 2.4.3.8.6 1.9.6 2.2-.3.5-1.3-.9-1.1-1.6-1.3-.5-.2-1.1-.3-1.6-.5-.9-.4-1.6-1-1.6-2.1s.6-1.8 1.4-2.2c1.5-.8 3-.7 4.5.1.6.3 1.3.9.9 1.6-.3.6-1.1.3-1.7.1-.2-.1-.4-.3-.6-.4-.7-.3-1.7-.6-2.1.2-.5 1.1.7 1.1 1.4 1.3.1.1.3 0 .5.1 1.4.4 3.1.6 2.9 2.7-.1 2.4-1.9 2.7-3.8 2.7z"/><path class="st29" d="M82.9 124.7c-1.6-.1-2.5-.8-2.6-2.6-.1-1.5.6-3.2-1.1-4.6-.7-.6 1.1-2.2 1.8-3.2.4-.7 1.7 0 1.7 1.3 0 .6.5.6.9.8 1 .4.8 1 .2 1.6-1.6 1.6-1.7 3.6-.1 5 .4.4.6.7.5 1.2-.2.7-.8.5-1.3.5zM289.1 124.8c-1.5-.2-2.4-.7-2.5-2.3-.1-1.7.8-3.7-1.3-5-.2-.1-.2-.8.2-1 1.2-.6 1.9-4.9 4-.3.6 1.3 1.4 1.3-.2 2.1-.9.5-.6 4 .3 4.6.6.4 1 .7.8 1.4-.3.7-1 .3-1.3.5z"/><path class="st34" d="M63.7 120.4v-1.9c0-2.1 0-2.1 2.3-1.6.8.2 1.1-.7 1.8-.7s1.3-.1 1.4.8c0 .5.1 1.2-.7 1.2-2.6 0-2.5 1.8-2.5 3.5v1.6c0 .8 0 1.5-1.2 1.5s-1.1-.8-1.1-1.6v-2.8z"/><path class="st33" d="M85.7 120.3v-3c0-.8.4-1.1 1.2-1.1.8 0 1.1.3 1.1 1.1v6.5c0 .7-.4.9-1 .9-.7 0-1.2-.1-1.2-1-.1-1.1-.1-2.2-.1-3.4zM264.2 120.4v3.2c0 .8-.3 1.1-1.1 1.1-.7 0-1.2-.2-1.2-1v-6.2c0-.9.4-1.2 1.3-1.2.8 0 1 .5 1 1.2v2.9z"/><path class="st38" d="M264.4 113.8c-.1.7-.5 1.1-1.2 1.1s-1.2-.3-1.3-1c-.1-.8.6-1 1.2-1.1.7-.1 1.1.3 1.3 1z"/><path class="st39" d="M88.1 113.9c-.2.7-.6 1.1-1.3 1-.7 0-1.2-.4-1.2-1.1s.7-1 1.3-1c.7 0 1.1.4 1.2 1.1z"/><path class="st40" d="M41.5 600.4v6c-1.5-.2-3.6-.3-4.1-1.3s1.4-2.1 2.2-3.2c.5-.5.9-1.2 1.9-1.5z"/><path class="st41" d="M48.5 600.7c1.3.5 1.9 1.4 2.5 2.2.6.7 2 1.3 1.5 2.3-.3.7-1.8.8-2.7 1.1s-1.3-.1-1.3-1v-4.6z"/><path class="st42" d="M303.7 592.5c1 1.8 1.9 3.6 2.9 5.3.4.8.4 1.4 0 2.2-.6 1-1.2 2-1.7 3-1.3 2.5-1.8 2.5-3.4.1-2.4-3.6-1.5-8.1 2.2-10.6zM311.7 598c-1-.2-2.6.6-3.4-.4-1.3-1.6-2.1-3.6-3.1-5.5-.4-.8.4-.8.8-1 3.6-1.3 8.5 1.4 9.5 5.1.3 1.2 0 1.8-1.3 1.7-.8 0-1.6.1-2.5.1zM311.6 599.6h1.1c1 .2 2.5-.7 2.9.5.4 1-.4 2.2-1.1 3.2-1.9 2.6-4.5 3.8-7.7 3.3-1.3-.2-2.1-.7-1.1-2.1.3-.5.6-1.1.9-1.6.9-2.6 2.5-4.1 5-3.3zM319.8 621c0 .9-.3 1.6-1.3 1.6-1.1.1-1.3-.9-1.3-1.6 0-.7.2-1.6 1.3-1.6s1.3.8 1.3 1.6z"/><path class="st31" d="M143.6 621c0 .8-.2 1.5-1.2 1.6-1.1.1-1.3-.8-1.3-1.5 0-.8.2-1.8 1.4-1.7.9.1 1 .8 1.1 1.6z"/><path class="st40" d="M246.9 621.1c0 .9-.3 1.7-1.4 1.7-.9-.1-1.3-.8-1.3-1.6 0-.9.3-1.7 1.4-1.8 1.1 0 1.3.9 1.3 1.7z"/><path class="st43" d="M197.1 621.7c-.1.7-.5.9-1.1 1.1-.5.2-1 0-1-.6s.5-.8.9-.8c.5-.1 1-.3 1.2.3z"/><path class="st44" d="M57.5 621c-.1 1.1-.5 1.9-1.5 1.8-1-.1-1.3-.9-1.3-1.9 0-.9.4-1.5 1.3-1.6 1.2.1 1.3 1 1.5 1.7z"/><path class="st45" d="M215 620.2c-.2.7-.8.5-1.3.5-.3 0-.9.1-.8-.5.1-.6.5-.9 1.1-.8.6 0 .9.2 1 .8zM38.3 620.3c-.2.7-.8.4-1.3.4-.4 0-.9 0-.7-.6.1-.6.6-.8 1.2-.8.4.1.8.3.8 1zM299 620.2c-.2.7-.7.5-1.1.5s-1 .1-1-.6.6-.8 1.2-.7c.5 0 .8.4.9.8z"/><path class="st40" d="M229.6 620.4c.1 1.6-.1 2.4-1.2 2.4-1.1 0-1.4-.8-1.4-1.7s.4-1.7 1.5-1.7c.9 0 1.1.8 1.1 1z"/><path class="st6" d="M176.2 283.7c4.3 0 7 2.9 7 7.5s-2.8 7.8-6.9 7.8c-4.3 0-7.2-3.1-7.2-7.8.1-4.5 2.8-7.5 7.1-7.5z"/><path class="st46" d="M95.3 287.4c-.3.8-.9 1.4-1.9 1.3-.6-.1-1.3-.5-1.1-1.2.3-1 1.3-1 2.1-1 .7 0 1 .2.9.9z"/><path class="st47" d="M69 285.1c-.5-.2-1.3.3-1.3-.5 0-.9.7-1.3 1.6-1.3s1.7.5 1.6 1.3c-.2 1.1-1.3.2-1.9.5z"/><path class="st48" d="M284.9 285.1c-.5-.3-1.6.5-1.6-.6 0-.8.8-1.3 1.6-1.3s1.5.4 1.5 1.2c.1 1.2-1 .5-1.5.7z"/><path class="st49" d="M296.4 451.4c-.2 1.2-.4 2.5-1.9 2.5-1.6.1-1.9-1-1.9-2.3s.3-2.6 1.9-2.6c1.4-.1 1.6 1.3 1.9 2.4zM107.2 451.5c0 1.2-.2 2.4-1.8 2.5-1.5 0-2-1.1-2-2.3 0-1.3.4-2.6 2-2.6 1.4-.1 1.8 1.1 1.8 2.4z"/><path class="st50" d="M62.8 453.1c.4-.9 1.2-1 2.1-1.1.7 0 1.1.2.9.9-.3.8-.9 1.3-1.7 1.3-.7 0-1.2-.4-1.3-1.1z"/><path class="st51" d="M277 451.5c-.2 1.2-.3 2.5-1.8 2.5-1.7 0-1.9-1.3-1.9-2.6 0-1.2.2-2.5 1.7-2.6 1.7 0 1.8 1.4 2 2.7z"/><path class="st48" d="M256.7 450.6c-.5-.2-1.5.4-1.5-.5s.7-1.3 1.6-1.3c.9 0 1.7.5 1.6 1.3-.1 1-1.1.3-1.7.5z"/><path class="st6" d="M182.2 119.1c0-2.6.1-5.6 1.3-8.5s3.2-4.3 6.1-4.1c2.6.2 4.4 1.7 5.2 4.6 1.5 5.4 1.5 10.9.1 16.3-.8 3.2-3.1 5.1-5.8 5.2-2.7.1-4.7-1.6-5.9-4.8-1-2.6-1-5.4-1-8.7z"/><path class="st52" d="M44.9 119c0-.4-.1-.8 0-1.2.1-.8-.5-1.9.5-2.3s2-.1 2.9.5c1.7 1.2 1.5 3 1.1 4.7-.4 1.6-1.7 2.1-3.2 2.2-1 .1-1.4-.3-1.4-1.3.1-.9.1-1.8.1-2.6z"/><path class="st50" d="M74.8 121.7c-.2.8-.7 1.4-1.5 1.5s-1.5-.3-1.5-1.1c.1-.9 1-1.1 1.8-1.1.5 0 1.1-.2 1.2.7z"/><path class="st51" d="M95.6 120.5c-.2 1.2-.3 2.6-1.8 2.6-1.7 0-1.8-1.3-1.8-2.6 0-1.2.3-2.5 1.7-2.5 1.6-.2 1.7 1.3 1.9 2.5z"/><path class="st47" d="M293.9 119.5c.2-1.5.9-2 2.2-1.7.6.2 1.4.9 1 1.3-.8 1-2 .4-3.2.4z"/><path id="Battery" class="st53" d="M325.5 5.9h18.2c.8 0 1.4.6 1.4 1.4v6.1c0 .8-.6 1.4-1.4 1.4h-18.2c-.8 0-1.4-.6-1.4-1.4V7.3c0-.8.6-1.4 1.4-1.4zm20.1 2.8h.7c.4 0 .7.3.7.7v1.9c0 .4-.3.7-.7.7h-.7V8.7zm-20.1-2.4c-.5 0-.9.4-.9.9v6.1c0 .5.4.9.9.9h18.2c.5 0 .9-.4.9-.9v-6c0-.5-.4-.9-.9-.9l-18.2-.1zm0 .5h18.2c.3 0 .5.2.5.5v6.1c0 .3-.2.5-.5.5h-18.2c-.3 0-.5-.2-.5-.5V7.3c0-.3.2-.5.5-.5z"/><text transform="translate(293.09 15.23)" class="st53 st54 st55">100%</text><text transform="translate(155.04 15.23)" class="st53 st54 st55">9:41</text><text transform="translate(176.88 15.23)" class="st53 st54 st55"></text><text transform="translate(179.38 15.23)" class="st53 st54 st55">AM</text><path id="Wi-Fi" class="st53" d="M54.3 12.4l-2 1.9-2-2c1-1.1 2.7-1.2 3.8-.2.1.1.2.1.2.3zm2-2l-1 1c-1.6-1.7-4.2-1.7-5.9-.1l-.1.1-1-1a5.5 5.5 0 0 1 8 0c.1-.1.1-.1 0 0zm2-2l-1 1c-2.8-2.8-7.3-2.8-10.1-.1l-.1.1-1-1C49.6 5 55 5 58.3 8.4c.1 0 .1 0 0 0z"/><path id="Mobile-Signal" class="st53" d="M10.1 12.9c-1.4 0-2.6-1.2-2.6-2.6s1.2-2.6 2.6-2.6 2.6 1.2 2.6 2.6c-.1 1.4-1.2 2.6-2.6 2.6zm6.5 0c-1.4 0-2.6-1.2-2.6-2.6s1.2-2.6 2.6-2.6 2.6 1.2 2.6 2.6c0 1.4-1.2 2.6-2.6 2.6zm6.6 0c-1.4 0-2.6-1.2-2.6-2.6s1.2-2.6 2.6-2.6 2.6 1.2 2.6 2.6c-.1 1.4-1.2 2.6-2.6 2.6zm6.5 0c-1.4 0-2.6-1.2-2.6-2.6s1.2-2.6 2.6-2.6 2.6 1.2 2.6 2.6c0 1.4-1.2 2.6-2.6 2.6zm6.6 0c-1.4 0-2.6-1.2-2.6-2.6s1.2-2.6 2.6-2.6 2.6 1.2 2.6 2.6c-.1 1.4-1.2 2.6-2.6 2.6z"/></svg>