<svg xmlns="http://www.w3.org/2000/svg" viewBox="0 0 182.4 180.22"><defs><style>.cls-1{fill:#00aeef;}</style></defs><title>bird-logo-blue</title><g id="Layer_2" data-name="Layer 2"><g id="Layer_2-2" data-name="Layer 2"><path class="cls-1" d="M50.49,109.9c22-17,64.64-32.42,90.87-16.58s26.5,60.47,32.41,86.89c6.39-26.86,10.49-57.15,7.79-84.8-1.15-11.78-5-20.24-13.75-28.17-3.2-2.89-12-7-13.42-10.88-2-5.61,6.21-9.64,5.78-16.26-9.94-2-18.7-.8-28.11,2.28-8.29,2.71-11.76.2-17.34-6.82-4.46-5.61-7.88-12-12.23-17.73C75.64-17.26,31.38,7.89,0,21.77c21.45-.23,73.85-5.35,78.31,24.76,2.81,19-6.24,25.19-22,31.73-8,3.32-18.19,4.12-17.67,14.24C39,99.61,43.52,107.34,50.49,109.9Z"/></g></g></svg>